<svg width="348" height="199" viewBox="0 0 348 199" fill="none" xmlns="http://www.w3.org/2000/svg">
<g clip-path="url(#clip0_493_445)">
<path d="M20.5687 167.871L9.8997 160.575C11.1198 154.726 14.0884 149.206 18.5476 144.494C18.9062 155.035 32.2766 162.094 36.8775 171.962C38.2834 175.048 38.8116 178.351 38.4233 181.625C38.0349 184.899 36.7398 188.06 34.634 190.874L33.5606 198.837C27.7341 196.384 22.635 192.939 18.6147 188.739C14.5945 184.54 11.7487 179.686 10.2733 174.513C9.48118 171.604 9.14557 168.626 9.27437 165.649C14.737 166.992 20.5687 167.871 20.5687 167.871Z" fill="#F2F2F2"/>
<path d="M319.637 181.826L327.088 172.271C334.425 172.43 341.604 174.035 348 176.945C335.134 178.704 328.351 190.388 316.902 195.447C313.316 197.003 309.343 197.887 305.277 198.033C301.211 198.18 297.156 197.585 293.414 196.293L283.506 196.546C285.699 191.541 289.208 186.98 293.793 183.177C298.377 179.374 303.927 176.419 310.061 174.516C313.515 173.476 317.117 172.791 320.783 172.479C319.9 177.037 319.637 181.826 319.637 181.826Z" fill="#F2F2F2"/>
<path d="M83.8072 150.676L42.4966 148.717L48.1593 116.359L84.5624 148.064L83.8072 150.676Z" fill="#F2F2F2"/>
<path d="M78.549 183.688L36.4832 181.4L42.0921 151.986L78.7387 181.405L78.549 183.688Z" fill="#F2F2F2"/>
<path d="M313.544 47.1886V17.2991C313.544 15.0274 312.99 12.7779 311.914 10.6791C310.838 8.58022 309.261 6.67318 307.273 5.0668C305.285 3.46043 302.925 2.18618 300.328 1.31682C297.731 0.447457 294.947 0 292.136 0H213.771C210.96 -4.29227e-07 208.176 0.447457 205.579 1.31682C202.982 2.18618 200.622 3.46043 198.634 5.0668C196.646 6.67318 195.069 8.58023 193.993 10.6791C192.917 12.7779 192.364 15.0274 192.364 17.2992V181.275C192.364 185.863 194.619 190.263 198.634 193.507C202.648 196.751 208.094 198.574 213.771 198.574H292.136C297.813 198.574 303.259 196.751 307.273 193.507C311.288 190.263 313.543 185.863 313.543 181.275V68.4643C313.902 68.4643 314.245 68.3494 314.498 68.1448C314.751 67.9402 314.894 67.6626 314.894 67.3733V48.2796C314.894 47.9903 314.751 47.7127 314.498 47.5081C314.245 47.3035 313.902 47.1886 313.544 47.1886Z" fill="#3F3D56"/>
<path d="M308.988 17.4179V181.157C308.988 184.558 307.328 187.822 304.368 190.239C301.407 192.657 297.386 194.033 293.177 194.068C293.119 194.073 293.061 194.075 293.002 194.074H214.256C210.017 194.074 205.951 192.713 202.953 190.29C199.956 187.868 198.271 184.582 198.271 181.157V17.4179C198.271 13.992 199.956 10.7066 202.953 8.28421C205.951 5.86179 210.017 4.50075 214.256 4.50043H223.813C223.343 5.43269 223.164 6.44396 223.291 7.44525C223.419 8.44655 223.849 9.40719 224.544 10.2427C225.238 11.0781 226.177 11.7628 227.276 12.2364C228.375 12.7101 229.601 12.9582 230.847 12.9589H275.741C276.986 12.9561 278.211 12.7066 279.308 12.2323C280.405 11.7579 281.342 11.0732 282.036 10.2382C282.729 9.40325 283.159 8.44347 283.287 7.44308C283.414 6.4427 283.236 5.43227 282.768 4.50043H293.002C297.242 4.50074 301.307 5.86178 304.305 8.2842C307.303 10.7066 308.987 13.992 308.988 17.4179Z" fill="white"/>
<path d="M291.65 190.077C291.65 191.773 291.584 193.455 291.452 195.124C291.394 195.129 291.336 195.131 291.278 195.13H212.534C208.972 195.13 205.511 194.168 202.702 192.398C199.892 190.627 197.895 188.149 197.027 185.357C196.874 184.87 196.76 184.375 196.683 183.877C196.593 183.325 196.549 182.769 196.549 182.213V109.243C202.608 109.486 208.628 110.173 214.532 111.296C215.111 111.404 215.685 111.518 216.256 111.636C216.292 111.642 216.328 111.652 216.365 111.659C216.943 111.777 217.518 111.901 218.088 112.028C230.261 114.73 241.688 119.276 251.761 125.426C252.339 125.776 252.913 126.135 253.484 126.498L253.593 126.567C254.548 127.174 255.487 127.798 256.412 128.436C256.618 128.577 256.825 128.72 257.027 128.868C257.525 129.214 258.022 129.567 258.507 129.923C269.249 137.736 277.775 147.331 283.504 158.052C283.694 158.402 283.876 158.755 284.058 159.108C284.131 159.252 284.204 159.395 284.277 159.539C284.345 159.67 284.41 159.801 284.475 159.931C289.23 169.517 291.666 179.75 291.65 190.077Z" fill="#3F3D56"/>
<path d="M192.797 63.9099C192.314 63.9094 191.85 63.7541 191.509 63.478C191.167 63.202 190.975 62.8277 190.974 62.4373V52.4237C190.974 52.0332 191.166 51.6586 191.508 51.3825C191.85 51.1063 192.313 50.9512 192.797 50.9512C193.28 50.9512 193.744 51.1063 194.085 51.3825C194.427 51.6586 194.619 52.0332 194.619 52.4237V62.4373C194.618 62.8277 194.426 63.202 194.085 63.478C193.743 63.7541 193.28 63.9094 192.797 63.9099Z" fill="#3F3D56"/>
<path d="M192.432 44.4718C191.949 44.4713 191.486 44.3161 191.144 44.04C190.803 43.7639 190.61 43.3896 190.61 42.9992V32.9857C190.61 32.5952 190.802 32.2206 191.144 31.9444C191.485 31.6683 191.949 31.5131 192.432 31.5131C192.915 31.5131 193.379 31.6683 193.721 31.9444C194.063 32.2206 194.255 32.5952 194.255 32.9857V42.9992C194.254 43.3896 194.062 43.7639 193.72 44.04C193.379 44.3161 192.915 44.4713 192.432 44.4718Z" fill="#3F3D56"/>
<path d="M240.906 6.1848C240.906 5.79439 241.098 5.4201 241.44 5.14404C241.782 4.86797 242.245 4.71268 242.728 4.71222H255.12C255.359 4.71193 255.597 4.74981 255.818 4.82368C256.039 4.89756 256.241 5.00598 256.41 5.14275C256.58 5.27952 256.714 5.44196 256.806 5.62076C256.898 5.79957 256.945 5.99123 256.945 6.1848C256.945 6.37837 256.898 6.57003 256.806 6.74884C256.714 6.92764 256.58 7.09007 256.41 7.22684C256.241 7.36361 256.039 7.47204 255.818 7.54591C255.597 7.61979 255.359 7.65767 255.12 7.65738H242.728C242.245 7.65692 241.782 7.50162 241.44 7.22556C241.098 6.9495 240.906 6.57521 240.906 6.1848Z" fill="white"/>
<path d="M192.797 80.9917C192.314 80.9913 191.85 80.836 191.509 80.5599C191.167 80.2838 190.975 79.9096 190.974 79.5191V69.5056C190.974 69.1151 191.166 68.7405 191.508 68.4644C191.85 68.1882 192.313 68.0331 192.797 68.0331C193.28 68.0331 193.744 68.1882 194.085 68.4644C194.427 68.7405 194.619 69.1151 194.619 69.5056V79.5191C194.618 79.9096 194.426 80.2838 194.085 80.5599C193.743 80.836 193.28 80.9913 192.797 80.9917Z" fill="#3F3D56"/>
<path d="M262.045 7.65737C263.051 7.65737 263.867 6.99808 263.867 6.18479C263.867 5.37151 263.051 4.71222 262.045 4.71222C261.038 4.71222 260.222 5.37151 260.222 6.18479C260.222 6.99808 261.038 7.65737 262.045 7.65737Z" fill="white"/>
<path opacity="0.2" d="M255.316 182.821C255.316 179.763 256.06 176.736 257.508 173.911C258.956 171.086 261.078 168.519 263.754 166.357C266.429 164.195 269.605 162.481 273.101 161.311C276.597 160.141 280.343 159.539 284.127 159.539H284.277C284.204 159.395 284.131 159.252 284.058 159.108C283.876 158.755 283.694 158.402 283.504 158.052H255.316V128.868H257.027C256.825 128.72 256.619 128.577 256.412 128.436C255.486 127.799 254.546 127.176 253.593 126.567L253.484 126.498V127.38H218.088V112.028C217.518 111.901 216.943 111.777 216.365 111.659C216.328 111.652 216.292 111.643 216.256 111.636V127.38H198.272V128.868H216.256V158.052H198.272V159.539H216.256V182.821H198.406C198.483 183.32 198.598 183.814 198.75 184.302H216.256V194.074H218.088V184.302H253.484V194.074H255.316V184.302H286.198V182.821H255.316ZM253.484 182.821H218.088V159.539H253.484V182.821ZM253.484 158.052H218.088V157.47C218.088 149.884 221.817 142.609 228.455 137.245C235.093 131.881 244.096 128.868 253.484 128.868V158.052Z" fill="black"/>
<path d="M96.5301 76.0877L76.8846 198.206L76.7592 198.984H75.9421L76.0675 198.206L95.7292 76.0027L96.5301 76.0877Z" fill="#E5E5E5"/>
<path d="M55.6292 76.2413L33.9653 198.219L33.8278 198.997H33.0107L33.1483 198.219L54.8283 76.1498L55.6292 76.2413Z" fill="#E5E5E5"/>
<path d="M127.076 198.967L126.235 198.971L125.976 198.193L84.0681 72.4041L84.8488 72.2341L126.813 198.193L127.076 198.967Z" fill="#3F3D56"/>
<path d="M125.302 72.2292L124.523 72.4075L168.687 198.295L169.465 198.116L125.302 72.2292Z" fill="#3F3D56"/>
<path d="M161.035 175.198L120.989 181.893L121.153 182.533L161.199 175.839L161.035 175.198Z" fill="#3F3D56"/>
<path d="M154.092 155.561L114.046 162.256L114.21 162.896L154.256 156.202L154.092 155.561Z" fill="#3F3D56"/>
<path d="M147.154 135.923L107.387 142.143L107.541 142.784L147.307 136.565L147.154 135.923Z" fill="#3F3D56"/>
<path d="M140.21 116.29L101.309 122.502L101.466 123.143L140.367 116.931L140.21 116.29Z" fill="#3F3D56"/>
<path d="M54.9453 76.2187C54.337 73.0074 55.3323 69.7324 57.7122 67.1141C60.092 64.4957 63.6616 62.7486 67.6356 62.2571C71.6095 61.7655 75.6624 62.5697 78.9026 64.4929C82.1428 66.416 84.3048 69.3005 84.9131 72.5118L84.1136 72.6107C83.8294 71.1049 83.1807 69.6591 82.2048 68.3559C81.2288 67.0527 79.9446 65.9176 78.4257 65.0156C76.9067 64.1136 75.1827 63.4622 73.3521 63.0988C71.5215 62.7353 69.6202 62.6668 67.7569 62.8973C65.8936 63.1278 64.1047 63.6527 62.4925 64.442C60.8803 65.2313 59.4763 66.2696 58.3608 67.4975C57.2453 68.7254 56.4401 70.1189 55.9913 71.5983C55.5424 73.0777 55.4587 74.6141 55.7448 76.1197L54.9453 76.2187Z" fill="#3F3D56"/>
<path d="M95.4584 76.3649C95.1307 74.7779 95.1932 73.1543 95.6421 71.5868C96.0911 70.0193 96.9178 68.5386 98.0751 67.2294C99.2323 65.9201 100.697 64.808 102.387 63.9563C104.076 63.1047 105.956 62.5304 107.92 62.2661C109.884 62.0018 111.894 62.0528 113.833 62.4161C115.773 62.7794 117.605 63.448 119.225 64.3835C120.844 65.3191 122.22 66.5034 123.274 67.8687C124.327 69.234 125.037 70.7537 125.364 72.3408L124.566 72.4481C123.939 69.4157 121.847 66.7087 118.751 64.922C115.655 63.1354 111.808 62.4154 108.055 62.9205C104.302 63.4255 100.951 65.1141 98.7386 67.6151C96.5261 70.1161 95.6332 73.2248 96.2563 76.2576L95.4584 76.3649Z" fill="#3F3D56"/>
<path d="M137.255 103.04L129.482 118.322L154.81 118.173L152.234 103.006L137.255 103.04Z" fill="#FFB6B6"/>
<path d="M143.44 173.193L147.197 173.636L151.098 162.137L145.553 161.484L143.44 173.193Z" fill="#FFB6B6"/>
<path d="M142.779 171.586L148.769 172L148.398 174.056L153.475 177.872C153.726 178.061 153.896 178.309 153.96 178.581C154.023 178.853 153.978 179.134 153.83 179.384C153.682 179.633 153.439 179.838 153.137 179.968C152.834 180.098 152.489 180.147 152.15 180.107L145.079 179.273L144.228 177.096L143.385 179.074L140.719 178.759L142.779 171.586Z" fill="#2F2E41"/>
<path d="M100.024 164.701L103.022 166.584L113.437 158.138L109.014 155.359L100.024 164.701Z" fill="#FFB6B6"/>
<path d="M100.431 163.039L105.388 165.788L103.81 167.428L105.895 172.772C105.998 173.036 105.994 173.319 105.883 173.581C105.773 173.843 105.562 174.07 105.28 174.228C104.999 174.386 104.663 174.467 104.32 174.46C103.978 174.452 103.648 174.357 103.377 174.187L97.737 170.642L98.3261 168.409L96.3852 169.793L94.2585 168.457L100.431 163.039Z" fill="#2F2E41"/>
<path d="M130.912 114.696L128.417 117.366L121.778 140.709L106.686 157.18L111.759 161.116L131.008 146.026L140.455 129.903L145.234 144.795L144.021 164.733L152.11 164.406C154.303 141.268 157.732 117.461 153.693 110.775C151.03 112.652 147.921 114.07 144.557 114.943C141.193 115.816 137.644 116.125 134.126 115.851L130.912 114.696Z" fill="#2F2E41"/>
<path d="M144.264 78.3267L150.646 83.966C152.047 85.2037 152.935 86.7636 153.186 88.4284C153.3 89.1844 153.281 89.9496 153.129 90.7013L151.754 98.8463L154.18 111.267C154.18 111.267 150.722 112.971 144.068 116.496C141.353 117.935 128.683 117.912 128.698 117.477C128.77 115.463 131 110.035 131.53 103.422C132.184 95.2604 131.326 85.5191 133.552 80.8695C136.27 75.1935 144.264 78.3267 144.264 78.3267Z" fill="#08A882"/>
<path d="M122.363 114.464C122.642 114.136 122.828 113.764 122.909 113.372C122.99 112.98 122.964 112.579 122.832 112.196C122.7 111.813 122.466 111.459 122.146 111.157C121.827 110.855 121.429 110.614 120.981 110.45L121.231 104.244L116.601 103.202L116.401 111.97C116.11 112.596 116.113 113.286 116.41 113.91C116.706 114.535 117.276 115.049 118.011 115.357C118.746 115.664 119.595 115.743 120.397 115.578C121.199 115.414 121.899 115.017 122.363 114.464Z" fill="#FFB6B6"/>
<path d="M116.188 89.413C116.325 89.1239 116.534 88.8608 116.803 88.6404C117.072 88.4201 117.395 88.2473 117.751 88.133C120.215 87.2964 130.868 80.2617 131.26 80.3938L134.643 79.0449C134.767 79.046 138.099 79.1097 139.733 80.6073C140.073 80.9234 140.324 81.2953 140.469 81.6973C140.614 82.0993 140.65 82.5219 140.574 82.9362C140.095 86.5027 124.993 94.5139 123.392 94.4599L121.697 104.586L122.357 108.455L116.18 108.597L114.277 102.901C114.004 102.485 113.659 94.6168 116.188 89.413Z" fill="#08A882"/>
<path d="M140.949 84.0039C141.449 81.2352 139.524 78.7162 136.651 78.3774C133.777 78.0387 131.043 80.0085 130.543 82.7772C130.043 85.5459 131.967 88.065 134.841 88.4037C137.714 88.7424 140.449 86.7726 140.949 84.0039Z" fill="#08A882"/>
<path d="M94.5235 102.106L94.3669 101.465L131.934 94.5972V95.2509L94.5235 102.106Z" fill="#3F3D56"/>
<path d="M260.833 55.9144H246.425C243.317 55.9144 240.798 57.9503 240.798 60.4618V60.4619C240.798 62.9734 243.317 65.0093 246.425 65.0093H260.833C263.941 65.0093 266.461 62.9734 266.461 60.4618C266.461 57.9503 263.941 55.9144 260.833 55.9144Z" fill="#E6E6E6"/>
<path d="M287.564 74.1043H219.694C216.586 74.1043 214.067 76.1403 214.067 78.6518V78.6518C214.067 81.1633 216.586 83.1993 219.694 83.1993H287.564C290.672 83.1993 293.192 81.1633 293.192 78.6518C293.192 76.1403 290.672 74.1043 287.564 74.1043Z" fill="#E6E6E6"/>
<path d="M258.442 87.7184H190.572C187.464 87.7184 184.945 89.7544 184.945 92.2659V92.2659C184.945 94.7774 187.464 96.8133 190.572 96.8133H258.442C261.55 96.8133 264.069 94.7774 264.069 92.2659C264.069 89.7544 261.55 87.7184 258.442 87.7184Z" fill="#08A882"/>
<path d="M347.904 198.51C347.905 198.561 347.892 198.612 347.868 198.659C347.844 198.706 347.808 198.749 347.764 198.785C347.719 198.821 347.666 198.85 347.607 198.869C347.549 198.889 347.486 198.899 347.423 198.899L107.692 198.967L106.851 198.971L57.3753 198.984H56.5583L14.4439 198.997H13.6269L0.481331 199C0.353674 199 0.231244 198.959 0.140978 198.886C0.0507107 198.813 0 198.714 0 198.611C0 198.508 0.0507107 198.409 0.140978 198.336C0.231244 198.263 0.353674 198.222 0.481331 198.222L13.7644 198.219H14.5815L56.6836 198.206H57.5007L106.592 198.193H107.43L149.261 198.18H149.811L347.423 198.121C347.486 198.121 347.549 198.131 347.607 198.15C347.666 198.17 347.719 198.198 347.764 198.234C347.808 198.271 347.844 198.313 347.868 198.361C347.892 198.408 347.905 198.459 347.904 198.51Z" fill="#CACACA"/>
<path d="M151.017 72.6953C149.81 73.9914 148.092 74.9166 146.147 75.3185C144.202 75.7204 142.146 75.575 140.316 74.9063C138.487 74.2375 136.994 73.0853 136.084 71.6395C135.173 70.1936 134.899 68.5402 135.307 66.9516C135.714 65.3631 136.779 63.934 138.326 62.8998C139.873 61.8657 141.81 61.288 143.817 61.2621C145.825 61.2361 147.783 61.7634 149.37 62.757C150.957 63.7507 152.078 65.1514 152.548 66.7287C152.574 66.8142 152.595 66.8993 152.616 66.9877C152.864 67.9763 152.85 68.9962 152.575 69.9801C152.299 70.964 151.768 71.8894 151.017 72.6953Z" fill="#FFB6B6"/>
<path d="M153.317 67.0703C153.094 66.1753 153.178 66.6377 152.951 65.7455C152.998 66.1774 152.881 66.6106 152.616 66.9877L142.206 65.7605L143.089 60.8703C146.315 60.253 149.447 59.7733 150.921 61.7936C152.526 61.9829 153.973 62.6795 154.942 63.7304C155.911 64.7813 156.324 66.1003 156.09 67.3972L153.317 67.0703Z" fill="#2F2E41"/>
<path d="M147.172 80.2289C147.181 80.1374 147.186 80.0422 147.186 79.9497C147.166 79.2689 147.057 78.5916 146.86 77.9294C146.683 77.2116 146.502 76.4901 146.321 75.7718C146.489 77.0567 146.134 78.3509 145.309 79.4576C143.751 78.1443 144.781 76.2434 142.483 75.9726C136.96 75.3215 132.466 70.5348 133.272 66.0682C134.078 61.6049 137.05 58.5465 142.573 59.1976C148.1 59.8491 152.214 62.4216 151.516 66.8977C144.479 67.3893 148.539 79.9276 147.172 80.2289Z" fill="#2F2E41"/>
<path d="M135.02 63.2718C137.057 63.2718 138.709 61.9371 138.709 60.2907C138.709 58.6442 137.057 57.3095 135.02 57.3095C132.982 57.3095 131.331 58.6442 131.331 60.2907C131.331 61.9371 132.982 63.2718 135.02 63.2718Z" fill="#2F2E41"/>
<path d="M139.396 57.8292C139.052 57.2276 138.529 56.7038 137.875 56.3043C137.221 55.9048 136.454 55.6419 135.644 55.5388C136.215 55.7474 136.713 56.0661 137.096 56.467C137.478 56.8679 137.733 57.3387 137.837 57.8378C137.941 58.3369 137.891 58.849 137.693 59.329C137.494 59.8091 137.153 60.2423 136.698 60.5905L137.444 60.0725C137.648 60.2124 137.901 60.2962 138.167 60.3116C138.434 60.327 138.699 60.2731 138.925 60.1579C139.147 60.0374 139.331 59.8779 139.466 59.6914C139.6 59.5049 139.68 59.2962 139.7 59.0811C139.736 58.6495 139.631 58.2179 139.396 57.8292Z" fill="#2F2E41"/>
<path d="M186.357 89.3603C185.919 89.1808 185.437 89.0812 184.946 89.0685C184.455 89.0558 183.966 89.1303 183.514 89.2867C183.062 89.4432 182.658 89.6778 182.331 89.974C182.003 90.2702 181.76 90.6209 181.619 91.0012L173.974 91.627L173.312 95.4737L184.092 94.4674C184.898 94.6173 185.745 94.523 186.471 94.2022C187.197 93.8815 187.752 93.3566 188.032 92.7271C188.311 92.0976 188.295 91.4071 187.986 90.7866C187.678 90.1661 187.098 89.6586 186.357 89.3603Z" fill="#FFB6B6"/>
<path d="M156.454 97.639C156.082 97.5681 155.731 97.4353 155.425 97.2492C155.119 97.0631 154.864 96.8276 154.677 96.5578C153.323 94.6957 143.277 87.0994 143.387 86.7674L141.283 84.2381C141.267 84.1381 140.902 81.4614 142.522 79.9532C142.864 79.639 143.287 79.3884 143.761 79.2187C144.234 79.049 144.748 78.9642 145.266 78.9701C149.704 78.8789 160.862 90.2292 161.009 91.5183L174.332 91.2083L178.989 90.1651L179.984 95.0928L173.251 97.3749C172.778 97.649 163.173 98.9721 156.454 97.639Z" fill="#08A882"/>
</g>
<defs>
<clipPath id="clip0_493_445">
<rect width="348" height="199" fill="white"/>
</clipPath>
</defs>
</svg>
