<svg width="399" height="218" viewBox="0 0 399 218" fill="none" xmlns="http://www.w3.org/2000/svg">
<g clip-path="url(#clip0_494_559)">
<path d="M21.7914 198.533C13.2889 205.785 11.5242 217.678 11.5242 217.678C11.5242 217.678 23.5446 217.815 32.047 210.563C40.5495 203.311 42.3142 191.418 42.3142 191.418C42.3142 191.418 30.2938 191.281 21.7914 198.533Z" fill="#F2F2F2"/>
<path d="M25.7201 201.418C22.0984 211.991 11.6859 218 11.6859 218C11.6859 218 7.14546 206.867 10.7672 196.294C14.3889 185.721 24.8014 179.712 24.8014 179.712C24.8014 179.712 29.3419 190.845 25.7201 201.418Z" fill="#F2F2F2"/>
<path d="M114.469 44.9899C112.545 42.4965 109.826 40.1895 109.654 37.1128C109.496 34.2908 111.6 31.4891 110.713 28.7893C110.03 26.7135 107.78 25.461 105.581 24.7977C101.37 23.546 96.8647 23.7196 92.763 25.2913L92.9857 25.1342C90.4823 24.2423 87.556 25.1631 85.5864 26.8686C83.6166 28.574 82.4461 30.938 81.5379 33.3069C80.6294 35.6759 79.9256 38.1315 78.6636 40.3524C77.4014 42.5734 75.469 44.5931 72.9194 45.3607C73.773 47.0636 76.4411 47.6478 78.0061 46.4744C78.4058 46.1496 78.7652 45.7781 79.0764 45.3676C80.12 44.0982 81.1637 42.8288 82.2075 41.5594C83.2814 43.4699 81.6771 46.1067 82.9972 47.8753C83.6778 48.7874 84.921 49.1338 86.0756 49.3822C95.0999 51.3082 104.461 50.9609 113.318 48.3716C114.03 48.1617 114.815 47.8728 115.11 47.2283C115.451 46.4844 114.975 45.6455 114.469 44.9899Z" fill="#2F2E41"/>
<path d="M140.057 54.7202C140 54.968 139.963 55.2199 139.947 55.4735L120.222 66.855L115.428 64.0944L110.317 70.787L118.33 76.4991C118.977 76.9606 119.756 77.1995 120.551 77.1802C121.346 77.1608 122.113 76.8841 122.737 76.3917L143.076 60.3423C143.994 60.6821 144.993 60.7344 145.942 60.4921C146.89 60.2499 147.742 59.7246 148.385 58.9861C149.027 58.2477 149.43 57.331 149.539 56.3581C149.648 55.3852 149.458 54.4022 148.995 53.5397C148.532 52.6773 147.817 51.9763 146.946 51.5301C146.075 51.0838 145.088 50.9135 144.118 51.0416C143.148 51.1698 142.239 51.5904 141.514 52.2475C140.788 52.9046 140.28 53.7671 140.057 54.7202Z" fill="#FFB7B7"/>
<path d="M119.563 67.3941L113.188 75.6581C113.007 75.8933 112.777 76.0865 112.514 76.2248C112.251 76.363 111.962 76.443 111.665 76.4592C111.369 76.4755 111.072 76.4276 110.796 76.3189C110.519 76.2102 110.27 76.0432 110.064 75.8293L102.847 68.3335C101.648 67.399 100.869 66.0268 100.68 64.5181C100.491 63.0093 100.909 61.4874 101.841 60.2863C102.773 59.0852 104.144 58.3032 105.652 58.1118C107.16 57.9205 108.682 58.3354 109.884 59.2657L118.936 64.3281C119.195 64.4731 119.42 64.6723 119.595 64.912C119.77 65.1518 119.892 65.4265 119.951 65.7175C120.011 66.0085 120.007 66.3088 119.94 66.5982C119.873 66.8875 119.744 67.159 119.563 67.3941Z" fill="#08A882"/>
<path d="M110.789 211.385L116.419 211.385L119.097 189.667L110.789 189.667L110.789 211.385Z" fill="#FFB7B7"/>
<path d="M109.354 209.547L120.439 209.546H120.44C122.314 209.546 124.11 210.291 125.435 211.616C126.76 212.941 127.505 214.738 127.505 216.613V216.842L109.354 216.843L109.354 209.547Z" fill="#2F2E41"/>
<path d="M72.2202 211.385L77.8494 211.385L80.5273 189.667L72.2192 189.667L72.2202 211.385Z" fill="#FFB7B7"/>
<path d="M70.7842 209.547L81.8701 209.546H81.8706C83.7442 209.546 85.5411 210.291 86.866 211.616C88.1909 212.941 88.9353 214.738 88.9354 216.613V216.842L70.7845 216.843L70.7842 209.547Z" fill="#2F2E41"/>
<path d="M107.409 41.9197C107.995 36.5776 104.141 31.7716 98.7999 31.1852C93.4591 30.5987 88.6542 34.454 88.0679 39.7961C87.4816 45.1382 91.336 49.9443 96.6768 50.5307C102.018 51.1171 106.823 47.2618 107.409 41.9197Z" fill="#FFB7B7"/>
<path d="M103.431 55.4456L109.162 58.2855C109.162 58.2855 115.566 69.4168 111.892 79.9799C110.109 85.1084 115.131 101.457 115.131 101.457C115.131 101.457 122.912 175.507 122.937 198.362C113.27 199.848 104.087 201.685 103.628 197.093C103.168 192.5 98.1422 138.198 98.1422 138.198C98.1422 138.198 91.2303 198.471 85.7204 199.389C80.2105 200.308 69.1907 198.93 69.1907 198.93C69.1907 198.93 77.9393 110.642 83.9083 105.131L84.8266 100.538L84.8021 59.3129L91.6792 56.0302L103.431 55.4456Z" fill="#2F2E41"/>
<path d="M82.9279 118.03C83.5622 117.687 84.1134 117.209 84.5429 116.629C84.9724 116.05 85.2696 115.383 85.4137 114.676C85.5578 113.97 85.5452 113.24 85.3768 112.539C85.2084 111.837 84.8883 111.181 84.4391 110.617L91.1046 66.1777L82.3963 65.7595L77.2004 110.015C76.3028 110.833 75.7362 111.951 75.608 113.159C75.4799 114.367 75.799 115.579 76.505 116.567C77.211 117.555 78.2548 118.25 79.4386 118.519C80.6224 118.789 81.8639 118.615 82.9279 118.03Z" fill="#FFB7B7"/>
<path d="M90.9153 77.3125L80.5005 76.6548C80.2041 76.6361 79.9153 76.5538 79.6537 76.4133C79.3921 76.2729 79.1637 76.0777 78.9843 75.8411C78.8049 75.6044 78.6786 75.3319 78.614 75.042C78.5494 74.7522 78.548 74.4518 78.6099 74.1613L80.78 63.9838C80.884 62.4677 81.585 61.0547 82.7291 60.0547C83.8732 59.0548 85.3671 58.5495 86.8831 58.6497C88.3992 58.7499 89.8136 59.4474 90.8163 60.5892C91.8189 61.7311 92.3278 63.224 92.2315 64.7407L93.1044 75.0766C93.1293 75.3726 93.0901 75.6704 92.9896 75.9498C92.889 76.2293 92.7295 76.4838 92.5217 76.6959C92.314 76.9081 92.0629 77.073 91.7857 77.1794C91.5085 77.2859 91.2116 77.3312 90.9153 77.3125Z" fill="#08A882"/>
<path d="M378.754 35.1725H148.443C146.761 35.1725 145.149 35.8405 143.96 37.0296C142.771 38.2187 142.104 39.8315 142.104 41.5131V169.868C142.104 171.55 142.771 173.163 143.96 174.352C145.149 175.541 146.761 176.209 148.443 176.209H378.754C380.435 176.209 382.047 175.541 383.236 174.352C384.425 173.163 385.093 171.55 385.093 169.868V41.5131C385.093 39.8315 384.425 38.2187 383.236 37.0296C382.047 35.8405 380.435 35.1725 378.754 35.1725Z" fill="#3F3D56"/>
<path d="M376.594 46.3781H150.602V173.89H376.594V46.3781Z" fill="white"/>
<path d="M263.405 42.9005C264.685 42.9005 265.723 41.8625 265.723 40.5821C265.723 39.3017 264.685 38.2637 263.405 38.2637C262.125 38.2637 261.087 39.3017 261.087 40.5821C261.087 41.8625 262.125 42.9005 263.405 42.9005Z" fill="white"/>
<path d="M311.964 173.891H150.602V46.3781L311.964 173.891Z" fill="#F2F2F2"/>
<path d="M391.438 171.572H369.383V169.983C369.383 169.899 369.35 169.819 369.29 169.76C369.231 169.701 369.151 169.667 369.068 169.667H361.506C361.464 169.667 361.423 169.676 361.385 169.691C361.347 169.707 361.312 169.73 361.283 169.76C361.254 169.789 361.231 169.824 361.215 169.862C361.199 169.9 361.191 169.941 361.191 169.983V171.572H356.465V169.983C356.465 169.941 356.456 169.9 356.441 169.862C356.425 169.824 356.402 169.789 356.372 169.76C356.343 169.731 356.308 169.707 356.27 169.691C356.232 169.676 356.191 169.667 356.15 169.667H348.588C348.546 169.667 348.505 169.676 348.467 169.691C348.429 169.707 348.394 169.73 348.365 169.76C348.336 169.789 348.312 169.824 348.297 169.862C348.281 169.9 348.273 169.941 348.273 169.983V171.572H343.547V169.983C343.547 169.941 343.538 169.9 343.523 169.862C343.507 169.824 343.484 169.789 343.454 169.76C343.425 169.73 343.39 169.707 343.352 169.691C343.314 169.676 343.273 169.667 343.231 169.667H335.67C335.628 169.667 335.587 169.676 335.549 169.691C335.511 169.707 335.476 169.73 335.447 169.76C335.418 169.789 335.394 169.824 335.379 169.862C335.363 169.9 335.355 169.941 335.355 169.983V171.572H330.628V169.983C330.628 169.941 330.62 169.9 330.604 169.862C330.589 169.824 330.565 169.789 330.536 169.76C330.507 169.731 330.472 169.707 330.434 169.691C330.396 169.676 330.355 169.667 330.313 169.667H322.751C322.71 169.667 322.669 169.676 322.631 169.691C322.593 169.707 322.558 169.73 322.529 169.76C322.499 169.789 322.476 169.824 322.46 169.862C322.445 169.9 322.436 169.941 322.436 169.983V171.572H317.71V169.983C317.71 169.941 317.702 169.9 317.686 169.862C317.67 169.824 317.647 169.789 317.618 169.76C317.589 169.73 317.554 169.707 317.516 169.691C317.478 169.676 317.437 169.667 317.395 169.667H309.833C309.792 169.667 309.751 169.676 309.713 169.691C309.675 169.707 309.64 169.73 309.611 169.76C309.581 169.789 309.558 169.824 309.542 169.862C309.526 169.9 309.518 169.941 309.518 169.983V171.572H304.792V169.983C304.792 169.941 304.784 169.9 304.768 169.862C304.752 169.824 304.729 169.789 304.7 169.76C304.671 169.731 304.636 169.707 304.598 169.691C304.559 169.676 304.518 169.667 304.477 169.667H296.915C296.874 169.667 296.833 169.676 296.795 169.691C296.756 169.707 296.722 169.73 296.692 169.76C296.663 169.789 296.64 169.824 296.624 169.862C296.608 169.9 296.6 169.941 296.6 169.983V171.572H291.874V169.983C291.874 169.941 291.866 169.9 291.85 169.862C291.834 169.824 291.811 169.789 291.782 169.76C291.753 169.73 291.718 169.707 291.68 169.691C291.641 169.676 291.6 169.667 291.559 169.667H232.325C232.283 169.667 232.242 169.676 232.204 169.691C232.166 169.707 232.131 169.73 232.102 169.76C232.073 169.789 232.049 169.824 232.034 169.862C232.018 169.9 232.01 169.941 232.01 169.983V171.572H227.283V169.983C227.283 169.941 227.275 169.9 227.259 169.862C227.244 169.824 227.22 169.789 227.191 169.76C227.162 169.73 227.127 169.707 227.089 169.691C227.051 169.676 227.01 169.667 226.968 169.667H219.407C219.365 169.667 219.324 169.676 219.286 169.691C219.248 169.707 219.213 169.73 219.184 169.76C219.155 169.789 219.131 169.824 219.115 169.862C219.1 169.9 219.091 169.941 219.091 169.983V171.572H214.365V169.983C214.365 169.941 214.357 169.9 214.341 169.862C214.326 169.824 214.302 169.789 214.273 169.76C214.244 169.731 214.209 169.707 214.171 169.691C214.133 169.676 214.092 169.667 214.05 169.667H206.488C206.447 169.667 206.406 169.676 206.368 169.691C206.33 169.707 206.295 169.73 206.266 169.76C206.236 169.789 206.213 169.824 206.197 169.862C206.182 169.9 206.173 169.941 206.173 169.983V171.572H201.447V169.983C201.447 169.941 201.439 169.9 201.423 169.862C201.407 169.824 201.384 169.789 201.355 169.76C201.326 169.73 201.291 169.707 201.253 169.691C201.214 169.676 201.174 169.667 201.132 169.667H193.57C193.529 169.667 193.488 169.676 193.45 169.691C193.412 169.707 193.377 169.73 193.348 169.76C193.318 169.789 193.295 169.824 193.279 169.862C193.263 169.9 193.255 169.941 193.255 169.983V171.572H188.529V169.983C188.529 169.941 188.521 169.9 188.505 169.862C188.489 169.824 188.466 169.789 188.437 169.76C188.408 169.73 188.373 169.707 188.335 169.691C188.296 169.676 188.255 169.667 188.214 169.667H180.652C180.611 169.667 180.57 169.676 180.532 169.691C180.493 169.707 180.459 169.73 180.429 169.76C180.4 169.789 180.377 169.824 180.361 169.862C180.345 169.9 180.337 169.941 180.337 169.983V171.572H175.611V169.983C175.611 169.941 175.603 169.9 175.587 169.862C175.571 169.824 175.548 169.789 175.519 169.76C175.489 169.73 175.455 169.707 175.416 169.691C175.378 169.676 175.337 169.667 175.296 169.667H167.734C167.651 169.667 167.57 169.701 167.511 169.76C167.452 169.819 167.419 169.899 167.419 169.983V171.572H162.693V169.983C162.693 169.941 162.685 169.9 162.669 169.862C162.653 169.824 162.63 169.789 162.601 169.76C162.571 169.731 162.537 169.707 162.498 169.691C162.46 169.676 162.419 169.667 162.378 169.667H154.816C154.732 169.667 154.652 169.701 154.593 169.76C154.534 169.819 154.501 169.899 154.501 169.983V171.572H140.007C139.014 171.572 138.031 171.768 137.114 172.148C136.196 172.528 135.363 173.085 134.66 173.787C133.958 174.49 133.401 175.324 133.021 176.241C132.641 177.159 132.446 178.142 132.446 179.136V182.556C132.446 184.562 133.242 186.486 134.66 187.904C136.078 189.322 138.002 190.119 140.007 190.119H391.438C393.444 190.119 395.367 189.322 396.785 187.904C398.203 186.486 399 184.562 399 182.556V179.136C399 178.142 398.804 177.159 398.424 176.241C398.044 175.324 397.487 174.49 396.785 173.787C396.083 173.085 395.249 172.528 394.332 172.148C393.414 171.768 392.431 171.572 391.438 171.572Z" fill="#3F3D56"/>
<path d="M275.864 126.312C276.64 126.312 277.269 125.683 277.269 124.907C277.269 124.131 276.64 123.502 275.864 123.502C275.088 123.502 274.459 124.131 274.459 124.907C274.459 125.683 275.088 126.312 275.864 126.312Z" fill="#F1F1F1"/>
<path d="M337.893 78.6049C334.241 80.796 327.733 83.5414 321.083 80.72L316.784 78.8961L325.399 69.2371C318.525 61.6558 314.721 51.7843 314.732 41.5494C314.742 31.3145 318.566 21.4508 325.455 13.8836C332.345 6.31635 341.807 1.58877 351.994 0.623597C362.181 -0.341573 372.362 2.52493 380.549 8.66361C388.737 14.8023 394.344 23.7725 396.276 33.8234C398.207 43.8743 396.325 54.2845 390.996 63.022C385.667 71.7595 377.274 78.1972 367.456 81.0785C357.637 83.9597 347.097 83.0779 337.893 78.6049Z" fill="white"/>
<path d="M337.916 79.1255C334.406 81.1866 327.72 84.035 320.904 81.1426L316.015 79.0685L324.783 69.2383C319.328 63.1008 315.81 55.486 314.673 47.3528C313.537 39.2197 314.831 30.932 318.394 23.5334C321.957 16.1349 327.63 9.95627 334.696 5.7758C341.763 1.59533 349.909 -0.400075 358.107 0.0408782C366.306 0.481832 374.191 3.33943 380.768 8.25378C387.346 13.1681 392.323 19.9195 395.073 27.6576C397.822 35.3957 398.221 43.7745 396.219 51.7387C394.216 59.703 389.903 66.8967 383.821 72.4137C377.714 77.9879 370.078 81.606 361.896 82.8022C353.715 83.9984 345.363 82.7179 337.916 79.1255ZM386.008 14.2544C382.42 10.2945 378.086 7.08064 373.256 4.79621C368.425 2.51178 363.192 1.20158 357.855 0.940433C352.518 0.679284 347.181 1.47231 342.151 3.27421C337.12 5.07611 332.494 7.85159 328.536 11.4421C324.578 15.0327 321.366 19.3679 319.083 24.2003C316.801 29.0327 315.492 34.2675 315.232 39.6058C314.973 44.9441 315.767 50.2813 317.57 55.3126C319.372 60.3438 322.148 64.9706 325.739 68.9286L326.016 69.2347L317.554 78.7236L321.263 80.2972C327.846 83.0905 334.36 80.1889 337.657 78.211L337.871 78.083L338.094 78.1917C346.594 82.3227 356.266 83.365 365.451 81.1399C374.635 78.9148 382.759 73.561 388.427 65.9977C394.094 58.4344 396.953 49.1333 396.512 39.6915C396.071 30.2496 392.357 21.2558 386.008 14.2544Z" fill="#08A882"/>
<path opacity="0.1" d="M390.606 41.335C390.605 31.8711 387.062 22.7503 380.674 15.7689C374.286 8.78751 365.516 4.45141 356.092 3.61455C357.194 3.51792 358.31 3.46564 359.438 3.46564C369.475 3.47169 379.099 7.46416 386.195 14.5654C393.29 21.6666 397.276 31.2954 397.276 41.335C397.276 51.3746 393.29 61.0034 386.195 68.1047C379.099 75.2059 369.475 79.1984 359.438 79.2044C358.312 79.2044 357.198 79.1515 356.097 79.055C365.52 78.2169 374.289 73.8804 380.676 66.8992C387.063 59.918 390.605 50.798 390.606 41.335Z" fill="black"/>
<path d="M361.216 33.7833H334.163V36.2962H361.216V33.7833Z" fill="#08A882"/>
<path d="M381.315 42.4763H334.163V44.9891H381.315V42.4763Z" fill="#08A882"/>
<path d="M381.269 51.1691H334.163V53.682H381.269V51.1691Z" fill="#08A882"/>
<path d="M175.399 217.322H0.459159C0.337382 217.322 0.220593 217.274 0.134484 217.188C0.0483752 217.101 0 216.985 0 216.863C0 216.741 0.0483752 216.624 0.134484 216.538C0.220593 216.452 0.337382 216.404 0.459159 216.404H175.399C175.52 216.404 175.637 216.452 175.723 216.538C175.809 216.624 175.858 216.741 175.858 216.863C175.858 216.985 175.809 217.101 175.723 217.188C175.637 217.274 175.52 217.322 175.399 217.322Z" fill="#CBCBCB"/>
<path d="M107.935 34.5325C107.556 32.8124 106.324 31.3872 104.906 30.3434C102.567 28.6229 99.6997 27.7771 96.8021 27.9533C93.9045 28.1296 91.1605 29.3167 89.0478 31.308C87.8672 32.3509 87.0162 33.7153 86.5986 35.2344C86.3994 35.9936 86.3888 36.79 86.5676 37.5543C86.7465 38.3186 87.1094 39.0275 87.6247 39.6195L87.8191 39.7412C87.6429 38.9936 88.2236 38.2464 88.9173 37.9166C89.6387 37.6517 90.3918 37.4828 91.1572 37.4142C92.3153 37.1953 93.4129 36.7303 94.3759 36.0506C95.3388 35.371 96.1447 34.4924 96.7391 33.4745C97.1795 34.7274 97.883 35.8714 98.8023 36.8297C99.7216 37.788 100.835 38.5382 102.069 39.03C103.355 39.5329 106.886 40.2246 108.11 39.586C109.672 38.7716 108.314 36.2526 107.935 34.5325Z" fill="#2F2E41"/>
<g clip-path="url(#clip1_494_559)">
<path d="M317.31 131.704H256.268C254.774 131.704 253.341 132.274 252.285 133.29C251.228 134.306 250.635 135.684 250.635 137.121C250.635 138.558 251.228 139.935 252.285 140.951C253.341 141.967 254.774 142.538 256.268 142.538H311.026L315.49 149.137C315.586 149.284 315.719 149.405 315.876 149.489C316.034 149.573 316.211 149.617 316.391 149.618C316.5 149.618 316.607 149.603 316.711 149.574C316.939 149.512 317.139 149.38 317.28 149.198C317.421 149.017 317.496 148.795 317.493 148.568V142.535C318.97 142.488 320.37 141.886 321.389 140.856C322.408 139.827 322.966 138.454 322.942 137.033C322.918 135.611 322.314 134.256 321.261 133.259C320.207 132.262 318.788 131.704 317.31 131.704ZM317.31 141.841H316.764V148.568C316.765 148.643 316.74 148.717 316.693 148.777C316.647 148.838 316.581 148.882 316.506 148.904C316.431 148.925 316.35 148.922 316.277 148.896C316.204 148.87 316.141 148.821 316.099 148.758L311.424 141.841H256.268C254.966 141.841 253.719 141.343 252.799 140.459C251.879 139.574 251.362 138.374 251.362 137.123C251.362 135.871 251.879 134.671 252.799 133.786C253.719 132.902 254.966 132.405 256.268 132.405H317.31C318.611 132.405 319.859 132.902 320.779 133.786C321.699 134.671 322.216 135.871 322.216 137.123C322.216 138.374 321.699 139.574 320.779 140.459C319.859 141.343 318.611 141.841 317.31 141.841Z" fill="#3F3D56"/>
<path d="M290.424 108.644H191.592C190.099 108.644 188.666 109.214 187.61 110.23C186.554 111.245 185.961 112.623 185.961 114.059C185.961 115.495 186.554 116.873 187.61 117.888C188.666 118.904 190.099 119.475 191.592 119.475H192.5V125.853C192.497 126.08 192.571 126.301 192.712 126.483C192.852 126.665 193.052 126.797 193.278 126.859C193.384 126.888 193.493 126.903 193.602 126.903C193.782 126.903 193.959 126.859 194.117 126.776C194.274 126.692 194.407 126.572 194.503 126.425L199.2 119.475H290.424C291.917 119.475 293.349 118.904 294.405 117.888C295.461 116.873 296.055 115.495 296.055 114.059C296.055 112.623 295.461 111.245 294.405 110.23C293.349 109.214 291.917 108.644 290.424 108.644ZM290.424 118.777H198.806L193.894 126.043C193.852 126.106 193.789 126.155 193.716 126.181C193.642 126.207 193.562 126.21 193.486 126.188C193.411 126.167 193.345 126.123 193.298 126.062C193.251 126.002 193.226 125.929 193.226 125.853V118.777H191.592C190.291 118.777 189.043 118.28 188.123 117.395C187.203 116.51 186.686 115.31 186.686 114.059C186.686 112.808 187.203 111.608 188.123 110.723C189.043 109.838 190.291 109.341 191.592 109.341H290.424C291.725 109.341 292.973 109.838 293.893 110.723C294.813 111.608 295.329 112.808 295.329 114.059C295.329 115.31 294.813 116.51 293.893 117.395C292.973 118.28 291.725 118.777 290.424 118.777Z" fill="#CCCCCC"/>
<path d="M252.634 62.5166H191.592C190.099 62.5166 188.666 63.0871 187.61 64.1027C186.554 65.1183 185.961 66.4958 185.961 67.932C185.961 69.3683 186.554 70.7457 187.61 71.7613C188.666 72.7769 190.099 73.3475 191.592 73.3475H192.5V79.7262C192.497 79.9528 192.571 80.1743 192.712 80.3561C192.852 80.538 193.052 80.67 193.278 80.7317C193.383 80.7621 193.493 80.7781 193.602 80.7791C193.782 80.7787 193.96 80.7344 194.117 80.6503C194.275 80.5662 194.408 80.4451 194.503 80.2984L199.2 73.3475H252.634C254.128 73.3475 255.56 72.7769 256.616 71.7613C257.672 70.7457 258.265 69.3683 258.265 67.932C258.265 66.4958 257.672 65.1183 256.616 64.1027C255.56 63.0871 254.128 62.5166 252.634 62.5166ZM252.634 72.65H198.806L193.894 79.9192C193.851 79.9819 193.788 80.0295 193.714 80.0551C193.641 80.0807 193.561 80.0828 193.486 80.0612C193.411 80.0396 193.345 79.9953 193.298 79.935C193.251 79.8747 193.226 79.8014 193.226 79.7262V72.65H191.592C190.291 72.65 189.043 72.153 188.123 71.2682C187.203 70.3834 186.686 69.1833 186.686 67.932C186.686 66.6807 187.203 65.4807 188.123 64.5959C189.043 63.7111 190.291 63.214 191.592 63.214H252.634C253.936 63.214 255.183 63.7111 256.103 64.5959C257.023 65.4807 257.54 66.6807 257.54 67.932C257.54 69.1833 257.023 70.3834 256.103 71.2682C255.183 72.153 253.936 72.65 252.634 72.65Z" fill="#CCCCCC"/>
<path d="M317.31 85.5801H231.923C230.43 85.5801 228.998 86.1506 227.942 87.1662C226.886 88.1818 226.292 89.5593 226.292 90.9955C226.292 92.4318 226.886 93.8092 227.942 94.8248C228.998 95.8404 230.43 96.411 231.923 96.411H309.611L315.49 105.109C315.586 105.256 315.719 105.377 315.876 105.461C316.034 105.545 316.211 105.589 316.391 105.59C316.5 105.589 316.608 105.573 316.711 105.542C316.939 105.481 317.139 105.35 317.281 105.168C317.422 104.986 317.497 104.764 317.493 104.537V96.411C318.97 96.3649 320.37 95.7622 321.389 94.7329C322.408 93.7036 322.966 92.3302 322.942 90.9089C322.918 89.4877 322.314 88.1324 321.261 87.1355C320.207 86.1387 318.788 85.58 317.31 85.5801ZM317.31 95.7135H316.764V104.537C316.767 104.612 316.743 104.686 316.697 104.747C316.65 104.808 316.583 104.852 316.507 104.872C316.433 104.895 316.352 104.894 316.278 104.868C316.204 104.842 316.141 104.794 316.099 104.73L310.005 95.7135H231.923C230.622 95.7135 229.374 95.2165 228.454 94.3317C227.534 93.4469 227.017 92.2468 227.017 90.9955C227.017 89.7442 227.534 88.5442 228.454 87.6594C229.374 86.7746 230.622 86.2775 231.923 86.2775H317.31C318.611 86.2775 319.859 86.7746 320.779 87.6594C321.699 88.5442 322.216 89.7442 322.216 90.9955C322.216 92.2468 321.699 93.4469 320.779 94.3317C319.859 95.2165 318.611 95.7135 317.31 95.7135Z" fill="#3F3D56"/>
<path d="M257.903 140.092C259.508 140.092 260.81 138.84 260.81 137.296C260.81 135.752 259.508 134.501 257.903 134.501C256.298 134.501 254.996 135.752 254.996 137.296C254.996 138.84 256.298 140.092 257.903 140.092Z" fill="#08A882"/>
<path d="M266.623 140.092C268.229 140.092 269.53 138.84 269.53 137.296C269.53 135.752 268.229 134.501 266.623 134.501C265.018 134.501 263.717 135.752 263.717 137.296C263.717 138.84 265.018 140.092 266.623 140.092Z" fill="#08A882"/>
<path d="M275.344 140.092C276.949 140.092 278.251 138.84 278.251 137.296C278.251 135.752 276.949 134.501 275.344 134.501C273.738 134.501 272.437 135.752 272.437 137.296C272.437 138.84 273.738 140.092 275.344 140.092Z" fill="#08A882"/>
<path d="M280.742 112.676H201.274C200.879 112.676 200.5 112.827 200.221 113.096C199.942 113.364 199.785 113.728 199.784 114.108V114.359C199.785 114.738 199.942 115.103 200.221 115.371C200.5 115.64 200.879 115.791 201.274 115.791H280.742C281.137 115.79 281.515 115.639 281.795 115.371C282.074 115.102 282.231 114.738 282.232 114.359V114.108C282.231 113.729 282.074 113.365 281.795 113.096C281.515 112.828 281.137 112.677 280.742 112.676Z" fill="#CCCCCC"/>
<path d="M250.04 66.2002H194.187C193.792 66.2009 193.414 66.352 193.134 66.6205C192.855 66.8889 192.698 67.2528 192.698 67.6324V67.8829C192.698 68.2625 192.855 68.6264 193.134 68.8948C193.414 69.1633 193.792 69.3144 194.187 69.3151H250.04C250.434 69.3144 250.813 69.1633 251.092 68.8948C251.371 68.6264 251.528 68.2625 251.529 67.8829V67.6324C251.528 67.2528 251.371 66.8889 251.092 66.6205C250.813 66.352 250.434 66.2009 250.04 66.2002Z" fill="#CCCCCC"/>
<path d="M302.545 89.6125H246.692C246.297 89.6132 245.919 89.7643 245.64 90.0327C245.36 90.3011 245.203 90.665 245.203 91.0446V91.2952C245.203 91.6748 245.36 92.0386 245.64 92.3071C245.919 92.5755 246.297 92.7266 246.692 92.7273H302.545C302.939 92.7265 303.317 92.5752 303.596 92.3067C303.874 92.0382 304.031 91.6744 304.031 91.2952V91.0446C304.031 90.6653 303.874 90.3015 303.596 90.033C303.317 89.7646 302.939 89.6133 302.545 89.6125Z" fill="#08A882"/>
</g>
</g>
<defs>
<clipPath id="clip0_494_559">
<rect width="399" height="218" fill="white"/>
</clipPath>
<clipPath id="clip1_494_559">
<rect width="257.129" height="206.211" fill="white" transform="translate(185.959 38.1191)"/>
</clipPath>
</defs>
</svg>
