<svg width="282" height="204" viewBox="0 0 282 204" fill="none" xmlns="http://www.w3.org/2000/svg">
<g clip-path="url(#clip0_493_339)">
<path d="M164.264 35.9628C169.55 35.9628 173.834 31.7013 173.834 26.4444C173.834 21.1876 169.55 16.9261 164.264 16.9261C158.979 16.9261 154.695 21.1876 154.695 26.4444C154.695 31.7013 158.979 35.9628 164.264 35.9628Z" fill="#F2F2F2"/>
<path d="M238.5 177.226C252.724 166.45 259.518 148.342 255.264 131.068C255.159 130.639 255.047 130.21 254.93 129.783C252.11 119.53 245.134 109.784 234.967 106.508C226.43 103.757 217.111 105.872 208.205 104.778C190.721 102.631 177.167 88.5607 167.629 73.8289C158.092 59.0971 150.762 42.607 138.089 30.4363C117.2 10.3751 83.1235 6.05596 57.2234 19.1143C31.3234 32.1727 14.8254 61.1437 15.529 90.017C16.2326 118.89 33.4658 146.495 58.4927 161.141C67.6866 166.522 78.3202 170.333 88.9027 169C98.0851 167.842 106.428 162.935 115.568 161.478C129.936 159.187 144.214 165.649 156.642 173.179C169.07 180.709 181.074 189.634 195.197 193.125C208.91 196.515 225.899 186.772 238.5 177.226Z" fill="#F2F2F2"/>
<path d="M218.063 19.7206C217.751 19.5139 217.435 19.3178 217.124 19.1182C208.11 13.3844 198.449 8.72638 188.34 5.2403L185.996 37.4022H171.137V0.545418C170.201 0.352917 169.259 0.171112 168.316 0V37.4022H150.657C140.936 37.4022 131.613 33.5611 124.739 26.724C117.865 19.8869 114.003 10.6138 114.003 0.944721C113.057 1.14792 112.118 1.36534 111.179 1.59705V37.4022H96.7964L94.5636 6.73396C84.1751 10.6967 74.3127 15.908 65.1959 22.2517C65.0382 22.3586 64.8805 22.4691 64.7264 22.5761C63.9343 23.1286 63.153 23.6919 62.3752 24.2622V146.96H104.764L104.015 136.64L99.893 79.9769H182.896L178.774 136.64L178.025 146.96H219.944V20.9612C219.321 20.5406 218.693 20.127 218.063 19.7206ZM111.179 70.6192H99.2121L97.0007 40.2113H111.179V70.6192ZM168.316 70.6192H148.217V70.0168C148.217 69.7272 148.159 69.4404 148.048 69.1729C147.936 68.9053 147.773 68.6623 147.567 68.4577C147.361 68.2531 147.116 68.0909 146.847 67.9804C146.578 67.8699 146.289 67.8132 145.998 67.8137H137.26C136.969 67.8136 136.681 67.8705 136.413 67.9812C136.144 68.0919 135.9 68.2541 135.694 68.4587C135.488 68.6633 135.325 68.9062 135.214 69.1736C135.103 69.4409 135.045 69.7274 135.045 70.0168V70.6192H114.003V40.2113H168.316V70.6192ZM171.137 70.6192V40.2113H185.792L183.581 70.6192H171.137Z" fill="#3F3D56"/>
<path d="M0 154.817C3.11355 158.487 6.48121 161.935 10.0783 165.137L271.922 165.494C275.519 162.292 278.886 158.843 282 155.174L0 154.817Z" fill="#3F3D56"/>
<path d="M177.564 121.771V152.323C177.565 152.713 177.72 153.086 177.997 153.361C178.274 153.637 178.649 153.791 179.041 153.792H224.56C224.951 153.791 225.327 153.637 225.603 153.361C225.88 153.086 226.036 152.713 226.036 152.323V121.771C226.035 121.382 225.879 121.01 225.603 120.735C225.326 120.46 224.951 120.305 224.56 120.305H179.041C178.65 120.305 178.275 120.46 177.998 120.735C177.721 121.01 177.565 121.382 177.564 121.771Z" fill="#3F3D56"/>
<path d="M178.632 122.152V151.947C178.633 152.155 178.716 152.354 178.864 152.501C179.012 152.648 179.212 152.731 179.421 152.731H224.181C224.39 152.731 224.59 152.648 224.738 152.501C224.886 152.354 224.969 152.155 224.97 151.947V122.152C224.97 121.943 224.887 121.743 224.739 121.596C224.591 121.449 224.39 121.366 224.181 121.365H179.421C179.212 121.366 179.011 121.449 178.863 121.596C178.715 121.743 178.632 121.943 178.632 122.152Z" fill="#08A882"/>
<path d="M176.613 158.282C176.696 158.386 176.802 158.47 176.923 158.527C177.043 158.585 177.175 158.614 177.309 158.613H226.049C226.183 158.613 226.314 158.583 226.434 158.526C226.555 158.469 226.661 158.386 226.745 158.283C226.829 158.18 226.888 158.06 226.92 157.931C226.951 157.802 226.953 157.668 226.926 157.538L226.169 153.964C226.138 153.818 226.07 153.682 225.973 153.569C225.875 153.456 225.751 153.369 225.611 153.316C225.51 153.276 225.402 153.256 225.293 153.256H178.063C177.954 153.256 177.846 153.276 177.744 153.316C177.604 153.369 177.48 153.456 177.382 153.569C177.285 153.682 177.217 153.818 177.186 153.964L176.429 157.538C176.402 157.668 176.405 157.802 176.437 157.931C176.468 158.059 176.528 158.179 176.613 158.282Z" fill="#2F2E41"/>
<path d="M223.62 154.796H224.771C224.868 154.796 224.946 154.718 224.946 154.622V154.074C224.946 153.978 224.868 153.9 224.771 153.9H223.62C223.523 153.9 223.445 153.978 223.445 154.074V154.622C223.445 154.718 223.523 154.796 223.62 154.796Z" fill="#3F3D56"/>
<path d="M220.618 154.796H221.769C221.866 154.796 221.944 154.718 221.944 154.622V154.074C221.944 153.978 221.866 153.9 221.769 153.9H220.618C220.521 153.9 220.443 153.978 220.443 154.074V154.622C220.443 154.718 220.521 154.796 220.618 154.796Z" fill="#3F3D56"/>
<path d="M217.615 154.796H218.767C218.863 154.796 218.942 154.718 218.942 154.622V154.074C218.942 153.978 218.863 153.9 218.767 153.9H217.615C217.519 153.9 217.44 153.978 217.44 154.074V154.622C217.44 154.718 217.519 154.796 217.615 154.796Z" fill="#3F3D56"/>
<path d="M214.613 154.796H215.764C215.861 154.796 215.939 154.718 215.939 154.622V154.074C215.939 153.978 215.861 153.9 215.764 153.9H214.613C214.517 153.9 214.438 153.978 214.438 154.074V154.622C214.438 154.718 214.517 154.796 214.613 154.796Z" fill="#3F3D56"/>
<path d="M211.611 154.796H212.762C212.859 154.796 212.937 154.718 212.937 154.622V154.074C212.937 153.978 212.859 153.9 212.762 153.9H211.611C211.514 153.9 211.436 153.978 211.436 154.074V154.622C211.436 154.718 211.514 154.796 211.611 154.796Z" fill="#3F3D56"/>
<path d="M208.608 154.796H209.76C209.856 154.796 209.935 154.718 209.935 154.622V154.074C209.935 153.978 209.856 153.9 209.76 153.9H208.608C208.512 153.9 208.433 153.978 208.433 154.074V154.622C208.433 154.718 208.512 154.796 208.608 154.796Z" fill="#3F3D56"/>
<path d="M205.606 154.796H206.757C206.854 154.796 206.932 154.718 206.932 154.622V154.074C206.932 153.978 206.854 153.9 206.757 153.9H205.606C205.51 153.9 205.431 153.978 205.431 154.074V154.622C205.431 154.718 205.51 154.796 205.606 154.796Z" fill="#3F3D56"/>
<path d="M202.604 154.796H203.755C203.852 154.796 203.93 154.718 203.93 154.622V154.074C203.93 153.978 203.852 153.9 203.755 153.9H202.604C202.507 153.9 202.429 153.978 202.429 154.074V154.622C202.429 154.718 202.507 154.796 202.604 154.796Z" fill="#3F3D56"/>
<path d="M199.601 154.796H200.753C200.849 154.796 200.927 154.718 200.927 154.622V154.074C200.927 153.978 200.849 153.9 200.753 153.9H199.601C199.505 153.9 199.426 153.978 199.426 154.074V154.622C199.426 154.718 199.505 154.796 199.601 154.796Z" fill="#3F3D56"/>
<path d="M196.599 154.796H197.75C197.847 154.796 197.925 154.718 197.925 154.622V154.074C197.925 153.978 197.847 153.9 197.75 153.9H196.599C196.502 153.9 196.424 153.978 196.424 154.074V154.622C196.424 154.718 196.502 154.796 196.599 154.796Z" fill="#3F3D56"/>
<path d="M193.597 154.796H194.748C194.845 154.796 194.923 154.718 194.923 154.622V154.074C194.923 153.978 194.845 153.9 194.748 153.9H193.597C193.5 153.9 193.422 153.978 193.422 154.074V154.622C193.422 154.718 193.5 154.796 193.597 154.796Z" fill="#3F3D56"/>
<path d="M190.594 154.796H191.745C191.842 154.796 191.92 154.718 191.92 154.622V154.074C191.92 153.978 191.842 153.9 191.745 153.9H190.594C190.498 153.9 190.419 153.978 190.419 154.074V154.622C190.419 154.718 190.498 154.796 190.594 154.796Z" fill="#3F3D56"/>
<path d="M187.592 154.796H188.743C188.84 154.796 188.918 154.718 188.918 154.622V154.074C188.918 153.978 188.84 153.9 188.743 153.9H187.592C187.495 153.9 187.417 153.978 187.417 154.074V154.622C187.417 154.718 187.495 154.796 187.592 154.796Z" fill="#3F3D56"/>
<path d="M184.59 154.796H185.741C185.837 154.796 185.916 154.718 185.916 154.622V154.074C185.916 153.978 185.837 153.9 185.741 153.9H184.59C184.493 153.9 184.415 153.978 184.415 154.074V154.622C184.415 154.718 184.493 154.796 184.59 154.796Z" fill="#3F3D56"/>
<path d="M181.587 154.796H182.739C182.835 154.796 182.914 154.718 182.914 154.622V154.074C182.914 153.978 182.835 153.9 182.739 153.9H181.587C181.491 153.9 181.412 153.978 181.412 154.074V154.622C181.412 154.718 181.491 154.796 181.587 154.796Z" fill="#3F3D56"/>
<path d="M178.585 154.796H179.736C179.833 154.796 179.911 154.718 179.911 154.622V154.074C179.911 153.978 179.833 153.9 179.736 153.9H178.585C178.488 153.9 178.41 153.978 178.41 154.074V154.622C178.41 154.718 178.488 154.796 178.585 154.796Z" fill="#3F3D56"/>
<path d="M223.656 156.289H224.807C224.904 156.289 224.982 156.211 224.982 156.115V155.567C224.982 155.471 224.904 155.393 224.807 155.393H223.656C223.559 155.393 223.481 155.471 223.481 155.567V156.115C223.481 156.211 223.559 156.289 223.656 156.289Z" fill="#3F3D56"/>
<path d="M220.653 156.289H221.805C221.901 156.289 221.979 156.211 221.979 156.115V155.567C221.979 155.471 221.901 155.393 221.805 155.393H220.653C220.557 155.393 220.478 155.471 220.478 155.567V156.115C220.478 156.211 220.557 156.289 220.653 156.289Z" fill="#3F3D56"/>
<path d="M217.651 156.289H218.802C218.899 156.289 218.977 156.211 218.977 156.115V155.567C218.977 155.471 218.899 155.393 218.802 155.393H217.651C217.554 155.393 217.476 155.471 217.476 155.567V156.115C217.476 156.211 217.554 156.289 217.651 156.289Z" fill="#3F3D56"/>
<path d="M214.649 156.289H215.8C215.897 156.289 215.975 156.211 215.975 156.115V155.567C215.975 155.471 215.897 155.393 215.8 155.393H214.649C214.552 155.393 214.474 155.471 214.474 155.567V156.115C214.474 156.211 214.552 156.289 214.649 156.289Z" fill="#3F3D56"/>
<path d="M211.646 156.289H212.797C212.894 156.289 212.972 156.211 212.972 156.115V155.567C212.972 155.471 212.894 155.393 212.797 155.393H211.646C211.55 155.393 211.471 155.471 211.471 155.567V156.115C211.471 156.211 211.55 156.289 211.646 156.289Z" fill="#3F3D56"/>
<path d="M208.644 156.289H209.795C209.892 156.289 209.97 156.211 209.97 156.115V155.567C209.97 155.471 209.892 155.393 209.795 155.393H208.644C208.547 155.393 208.469 155.471 208.469 155.567V156.115C208.469 156.211 208.547 156.289 208.644 156.289Z" fill="#3F3D56"/>
<path d="M205.642 156.289H206.793C206.889 156.289 206.968 156.211 206.968 156.115V155.567C206.968 155.471 206.889 155.393 206.793 155.393H205.642C205.545 155.393 205.467 155.471 205.467 155.567V156.115C205.467 156.211 205.545 156.289 205.642 156.289Z" fill="#3F3D56"/>
<path d="M202.639 156.289H203.79C203.887 156.289 203.965 156.211 203.965 156.115V155.567C203.965 155.471 203.887 155.393 203.79 155.393H202.639C202.542 155.393 202.464 155.471 202.464 155.567V156.115C202.464 156.211 202.542 156.289 202.639 156.289Z" fill="#3F3D56"/>
<path d="M199.637 156.289H200.788C200.885 156.289 200.963 156.211 200.963 156.115V155.567C200.963 155.471 200.885 155.393 200.788 155.393H199.637C199.54 155.393 199.462 155.471 199.462 155.567V156.115C199.462 156.211 199.54 156.289 199.637 156.289Z" fill="#3F3D56"/>
<path d="M196.634 156.289H197.786C197.882 156.289 197.961 156.211 197.961 156.115V155.567C197.961 155.471 197.882 155.393 197.786 155.393H196.634C196.538 155.393 196.46 155.471 196.46 155.567V156.115C196.46 156.211 196.538 156.289 196.634 156.289Z" fill="#3F3D56"/>
<path d="M193.632 156.289H194.783C194.88 156.289 194.958 156.211 194.958 156.115V155.567C194.958 155.471 194.88 155.393 194.783 155.393H193.632C193.535 155.393 193.457 155.471 193.457 155.567V156.115C193.457 156.211 193.535 156.289 193.632 156.289Z" fill="#3F3D56"/>
<path d="M190.63 156.289H191.781C191.878 156.289 191.956 156.211 191.956 156.115V155.567C191.956 155.471 191.878 155.393 191.781 155.393H190.63C190.533 155.393 190.455 155.471 190.455 155.567V156.115C190.455 156.211 190.533 156.289 190.63 156.289Z" fill="#3F3D56"/>
<path d="M187.627 156.289H188.779C188.875 156.289 188.954 156.211 188.954 156.115V155.567C188.954 155.471 188.875 155.393 188.779 155.393H187.627C187.531 155.393 187.452 155.471 187.452 155.567V156.115C187.452 156.211 187.531 156.289 187.627 156.289Z" fill="#3F3D56"/>
<path d="M184.625 156.289H185.776C185.873 156.289 185.951 156.211 185.951 156.115V155.567C185.951 155.471 185.873 155.393 185.776 155.393H184.625C184.529 155.393 184.45 155.471 184.45 155.567V156.115C184.45 156.211 184.529 156.289 184.625 156.289Z" fill="#3F3D56"/>
<path d="M181.623 156.289H182.774C182.871 156.289 182.949 156.211 182.949 156.115V155.567C182.949 155.471 182.871 155.393 182.774 155.393H181.623C181.526 155.393 181.448 155.471 181.448 155.567V156.115C181.448 156.211 181.526 156.289 181.623 156.289Z" fill="#3F3D56"/>
<path d="M178.62 156.289H179.772C179.868 156.289 179.947 156.211 179.947 156.115V155.567C179.947 155.471 179.868 155.393 179.772 155.393H178.62C178.524 155.393 178.445 155.471 178.445 155.567V156.115C178.445 156.211 178.524 156.289 178.62 156.289Z" fill="#3F3D56"/>
<path d="M198.736 158.081H210.396C210.492 158.081 210.571 158.003 210.571 157.906V157.359C210.571 157.263 210.492 157.185 210.396 157.185H198.736C198.64 157.185 198.561 157.263 198.561 157.359V157.906C198.561 158.003 198.64 158.081 198.736 158.081Z" fill="#3F3D56"/>
<path d="M186.383 127.884H185.364C185.055 127.884 184.805 128.133 184.805 128.44C184.805 128.747 185.055 128.997 185.364 128.997H186.383C186.692 128.997 186.943 128.747 186.943 128.44C186.943 128.133 186.692 127.884 186.383 127.884Z" fill="white"/>
<path d="M198.04 127.884H197.02C196.711 127.884 196.461 128.133 196.461 128.44C196.461 128.747 196.711 128.997 197.02 128.997H198.04C198.349 128.997 198.599 128.747 198.599 128.44C198.599 128.133 198.349 127.884 198.04 127.884Z" fill="white"/>
<path d="M201.342 127.884H200.323C200.014 127.884 199.764 128.133 199.764 128.44C199.764 128.747 200.014 128.997 200.323 128.997H201.342C201.651 128.997 201.902 128.747 201.902 128.44C201.902 128.133 201.651 127.884 201.342 127.884Z" fill="white"/>
<path d="M194.869 127.791H188.535C188.226 127.791 187.975 128.04 187.975 128.347C187.975 128.655 188.226 128.904 188.535 128.904H194.869C195.178 128.904 195.429 128.655 195.429 128.347C195.429 128.04 195.178 127.791 194.869 127.791Z" fill="white"/>
<path d="M210.411 127.791H204.077C203.768 127.791 203.517 128.04 203.517 128.347C203.517 128.655 203.768 128.904 204.077 128.904H210.411C210.72 128.904 210.971 128.655 210.971 128.347C210.971 128.04 210.72 127.791 210.411 127.791Z" fill="white"/>
<path d="M189.492 130.396H188.473C188.164 130.396 187.913 130.645 187.913 130.952C187.913 131.259 188.164 131.509 188.473 131.509H189.492C189.801 131.509 190.051 131.259 190.051 130.952C190.051 130.645 189.801 130.396 189.492 130.396Z" fill="white"/>
<path d="M201.148 130.396H200.129C199.82 130.396 199.569 130.645 199.569 130.952C199.569 131.259 199.82 131.509 200.129 131.509H201.148C201.457 131.509 201.708 131.259 201.708 130.952C201.708 130.645 201.457 130.396 201.148 130.396Z" fill="white"/>
<path d="M204.451 130.396H203.432C203.123 130.396 202.872 130.645 202.872 130.952C202.872 131.259 203.123 131.509 203.432 131.509H204.451C204.76 131.509 205.01 131.259 205.01 130.952C205.01 130.645 204.76 130.396 204.451 130.396Z" fill="white"/>
<path d="M197.977 130.303H191.643C191.334 130.303 191.083 130.552 191.083 130.859C191.083 131.167 191.334 131.416 191.643 131.416H197.977C198.286 131.416 198.537 131.167 198.537 130.859C198.537 130.552 198.286 130.303 197.977 130.303Z" fill="white"/>
<path d="M213.519 130.303H207.185C206.876 130.303 206.625 130.552 206.625 130.859C206.625 131.167 206.876 131.416 207.185 131.416H213.519C213.828 131.416 214.079 131.167 214.079 130.859C214.079 130.552 213.828 130.303 213.519 130.303Z" fill="white"/>
<path d="M192.6 132.908H191.581C191.272 132.908 191.021 133.157 191.021 133.464C191.021 133.771 191.272 134.021 191.581 134.021H192.6C192.909 134.021 193.16 133.771 193.16 133.464C193.16 133.157 192.909 132.908 192.6 132.908Z" fill="white"/>
<path d="M204.256 132.908H203.237C202.928 132.908 202.678 133.157 202.678 133.464C202.678 133.771 202.928 134.021 203.237 134.021H204.256C204.565 134.021 204.816 133.771 204.816 133.464C204.816 133.157 204.565 132.908 204.256 132.908Z" fill="white"/>
<path d="M207.559 132.908H206.54C206.231 132.908 205.98 133.157 205.98 133.464C205.98 133.771 206.231 134.021 206.54 134.021H207.559C207.868 134.021 208.119 133.771 208.119 133.464C208.119 133.157 207.868 132.908 207.559 132.908Z" fill="white"/>
<path d="M201.086 132.815H194.751C194.442 132.815 194.192 133.064 194.192 133.371C194.192 133.679 194.442 133.928 194.751 133.928H201.086C201.395 133.928 201.645 133.679 201.645 133.371C201.645 133.064 201.395 132.815 201.086 132.815Z" fill="white"/>
<path d="M216.628 132.815H210.293C209.984 132.815 209.734 133.064 209.734 133.371C209.734 133.679 209.984 133.928 210.293 133.928H216.628C216.937 133.928 217.187 133.679 217.187 133.371C217.187 133.064 216.937 132.815 216.628 132.815Z" fill="white"/>
<path d="M195.708 135.42H194.689C194.38 135.42 194.13 135.669 194.13 135.976C194.13 136.283 194.38 136.533 194.689 136.533H195.708C196.017 136.533 196.268 136.283 196.268 135.976C196.268 135.669 196.017 135.42 195.708 135.42Z" fill="white"/>
<path d="M207.365 135.42H206.346C206.037 135.42 205.786 135.669 205.786 135.976C205.786 136.283 206.037 136.533 206.346 136.533H207.365C207.674 136.533 207.924 136.283 207.924 135.976C207.924 135.669 207.674 135.42 207.365 135.42Z" fill="white"/>
<path d="M210.668 135.42H209.648C209.339 135.42 209.089 135.669 209.089 135.976C209.089 136.283 209.339 136.533 209.648 136.533H210.668C210.977 136.533 211.227 136.283 211.227 135.976C211.227 135.669 210.977 135.42 210.668 135.42Z" fill="white"/>
<path d="M204.194 135.327H197.86C197.551 135.327 197.3 135.576 197.3 135.883C197.3 136.191 197.551 136.44 197.86 136.44H204.194C204.503 136.44 204.754 136.191 204.754 135.883C204.754 135.576 204.503 135.327 204.194 135.327Z" fill="white"/>
<path d="M198.04 145.408H197.02C196.711 145.408 196.461 145.658 196.461 145.965C196.461 146.272 196.711 146.521 197.02 146.521H198.04C198.349 146.521 198.599 146.272 198.599 145.965C198.599 145.658 198.349 145.408 198.04 145.408Z" fill="white"/>
<path d="M201.342 145.408H200.323C200.014 145.408 199.764 145.658 199.764 145.965C199.764 146.272 200.014 146.521 200.323 146.521H201.342C201.651 146.521 201.902 146.272 201.902 145.965C201.902 145.658 201.651 145.408 201.342 145.408Z" fill="white"/>
<path d="M210.411 145.501H204.077C203.768 145.501 203.517 145.75 203.517 146.058C203.517 146.365 203.768 146.614 204.077 146.614H210.411C210.72 146.614 210.971 146.365 210.971 146.058C210.971 145.75 210.72 145.501 210.411 145.501Z" fill="white"/>
<path d="M186.383 145.408H185.364C185.055 145.408 184.805 145.658 184.805 145.965C184.805 146.272 185.055 146.521 185.364 146.521H186.383C186.692 146.521 186.943 146.272 186.943 145.965C186.943 145.658 186.692 145.408 186.383 145.408Z" fill="white"/>
<path d="M194.869 145.501H188.535C188.226 145.501 187.975 145.75 187.975 146.058C187.975 146.365 188.226 146.614 188.535 146.614H194.869C195.178 146.614 195.429 146.365 195.429 146.058C195.429 145.75 195.178 145.501 194.869 145.501Z" fill="white"/>
<path d="M189.492 142.896H188.473C188.164 142.896 187.913 143.146 187.913 143.453C187.913 143.76 188.164 144.009 188.473 144.009H189.492C189.801 144.009 190.051 143.76 190.051 143.453C190.051 143.146 189.801 142.896 189.492 142.896Z" fill="white"/>
<path d="M201.148 142.896H200.129C199.82 142.896 199.569 143.146 199.569 143.453C199.569 143.76 199.82 144.009 200.129 144.009H201.148C201.457 144.009 201.708 143.76 201.708 143.453C201.708 143.146 201.457 142.896 201.148 142.896Z" fill="white"/>
<path d="M204.451 142.896H203.432C203.123 142.896 202.872 143.146 202.872 143.453C202.872 143.76 203.123 144.009 203.432 144.009H204.451C204.76 144.009 205.01 143.76 205.01 143.453C205.01 143.146 204.76 142.896 204.451 142.896Z" fill="white"/>
<path d="M197.977 142.989H191.643C191.334 142.989 191.083 143.238 191.083 143.546C191.083 143.853 191.334 144.102 191.643 144.102H197.977C198.286 144.102 198.537 143.853 198.537 143.546C198.537 143.238 198.286 142.989 197.977 142.989Z" fill="white"/>
<path d="M192.6 140.384H191.581C191.272 140.384 191.021 140.634 191.021 140.941C191.021 141.248 191.272 141.497 191.581 141.497H192.6C192.909 141.497 193.16 141.248 193.16 140.941C193.16 140.634 192.909 140.384 192.6 140.384Z" fill="white"/>
<path d="M204.256 140.384H203.237C202.928 140.384 202.678 140.634 202.678 140.941C202.678 141.248 202.928 141.497 203.237 141.497H204.256C204.565 141.497 204.816 141.248 204.816 140.941C204.816 140.634 204.565 140.384 204.256 140.384Z" fill="white"/>
<path d="M207.559 140.384H206.54C206.231 140.384 205.98 140.634 205.98 140.941C205.98 141.248 206.231 141.497 206.54 141.497H207.559C207.868 141.497 208.119 141.248 208.119 140.941C208.119 140.634 207.868 140.384 207.559 140.384Z" fill="white"/>
<path d="M201.086 140.477H194.751C194.442 140.477 194.192 140.726 194.192 141.034C194.192 141.341 194.442 141.59 194.751 141.59H201.086C201.395 141.59 201.645 141.341 201.645 141.034C201.645 140.726 201.395 140.477 201.086 140.477Z" fill="white"/>
<path d="M195.708 137.872H194.689C194.38 137.872 194.13 138.122 194.13 138.429C194.13 138.736 194.38 138.985 194.689 138.985H195.708C196.017 138.985 196.268 138.736 196.268 138.429C196.268 138.122 196.017 137.872 195.708 137.872Z" fill="white"/>
<path d="M207.365 137.872H206.346C206.037 137.872 205.786 138.122 205.786 138.429C205.786 138.736 206.037 138.985 206.346 138.985H207.365C207.674 138.985 207.924 138.736 207.924 138.429C207.924 138.122 207.674 137.872 207.365 137.872Z" fill="white"/>
<path d="M210.668 137.872H209.648C209.339 137.872 209.089 138.122 209.089 138.429C209.089 138.736 209.339 138.985 209.648 138.985H210.668C210.977 138.985 211.227 138.736 211.227 138.429C211.227 138.122 210.977 137.872 210.668 137.872Z" fill="white"/>
<path d="M204.194 137.965H197.86C197.551 137.965 197.3 138.214 197.3 138.522C197.3 138.829 197.551 139.078 197.86 139.078H204.194C204.503 139.078 204.754 138.829 204.754 138.522C204.754 138.214 204.503 137.965 204.194 137.965Z" fill="white"/>
<path d="M180.965 174.848L176.18 167.326L191.198 155.418L197.397 148.588C198.202 147.7 199.228 147.039 200.37 146.669C201.513 146.299 202.734 146.234 203.91 146.481C205.086 146.727 206.177 147.276 207.073 148.073C207.969 148.87 208.639 149.887 209.016 151.022C209.574 152.704 209.454 154.536 208.68 156.132C207.907 157.727 206.54 158.962 204.869 159.574L195.067 163.166L180.965 174.848Z" fill="#FFB6B6"/>
<path d="M68.7026 120.306V156.867H94.454V120.306C94.4545 120.043 94.3701 119.787 94.2133 119.575C94.0566 119.363 93.8357 119.207 93.5831 119.13C93.464 119.091 93.3393 119.071 93.2139 119.073H69.9463C69.7832 119.072 69.6216 119.104 69.4708 119.166C69.32 119.228 69.183 119.318 69.0675 119.433C68.952 119.548 68.8603 119.684 68.7977 119.833C68.7351 119.983 68.7028 120.144 68.7026 120.306ZM78.7523 132.869C78.759 132.148 79.0516 131.459 79.5664 130.951C80.0812 130.444 80.7766 130.16 81.5013 130.16C82.226 130.16 82.9213 130.444 83.4361 130.951C83.9509 131.459 84.2435 132.148 84.2502 132.869V137.111C84.2465 137.833 83.9553 138.525 83.4401 139.035C82.925 139.545 82.2279 139.831 81.5013 139.831C80.7746 139.831 80.0775 139.545 79.5624 139.035C79.0473 138.525 78.756 137.833 78.7523 137.111V132.869Z" fill="#2F2E41"/>
<path d="M68.6238 155.698V159.223C68.6244 159.406 68.6973 159.581 68.8268 159.71C68.9563 159.84 69.1319 159.913 69.3155 159.915H93.8411C94.0249 159.914 94.2009 159.841 94.3305 159.711C94.4601 159.581 94.5329 159.406 94.5329 159.223V155.698H68.6238Z" fill="#3F3D56"/>
<path d="M28.1921 65.2224V131.977C28.1928 132.828 28.5329 133.644 29.1377 134.245C29.7424 134.847 30.5625 135.185 31.4178 135.186H130.875C131.73 135.185 132.55 134.847 133.155 134.245C133.76 133.644 134.1 132.828 134.101 131.977V65.2224C134.099 64.3725 133.758 63.5579 133.153 62.9573C132.549 62.3566 131.73 62.0187 130.875 62.0176H31.4178C30.5632 62.0187 29.744 62.3566 29.1394 62.9573C28.5348 63.558 28.1942 64.3725 28.1921 65.2224Z" fill="#3F3D56"/>
<path d="M30.5253 66.053V131.154C30.5261 131.608 30.7079 132.044 31.0311 132.365C31.3542 132.687 31.7922 132.868 32.2492 132.869H130.047C130.504 132.868 130.942 132.687 131.265 132.365C131.588 132.044 131.77 131.608 131.771 131.154V66.053C131.771 65.5979 131.589 65.1614 131.266 64.8393C130.943 64.5172 130.505 64.3357 130.047 64.3347H32.2492C31.7917 64.3357 31.3532 64.5172 31.03 64.8393C30.7068 65.1614 30.5253 65.5979 30.5253 66.053Z" fill="white"/>
<path d="M48.6749 159.676C48.7745 159.8 48.901 159.9 49.045 159.969C49.189 160.037 49.3468 160.073 49.5064 160.072H107.69C107.849 160.072 108.006 160.036 108.15 159.968C108.293 159.9 108.42 159.801 108.52 159.678C108.62 159.555 108.692 159.411 108.729 159.257C108.767 159.104 108.769 158.943 108.736 158.788L107.833 154.521C107.796 154.347 107.715 154.185 107.599 154.05C107.482 153.915 107.334 153.811 107.167 153.748C107.046 153.701 106.917 153.676 106.787 153.676H50.406C50.276 153.676 50.1471 153.701 50.0261 153.748C49.8589 153.811 49.7104 153.915 49.5939 154.05C49.4775 154.185 49.3969 154.347 49.3595 154.521L48.4563 158.788C48.4242 158.943 48.4271 159.103 48.4649 159.257C48.5027 159.41 48.5745 159.554 48.6749 159.676Z" fill="#2F2E41"/>
<path d="M126.873 73.3026H35.3642C35.2691 73.3005 35.1786 73.2615 35.1121 73.1938C35.0455 73.1262 35.0083 73.0353 35.0083 72.9407C35.0083 72.8461 35.0455 72.7552 35.1121 72.6875C35.1786 72.6199 35.2691 72.5808 35.3642 72.5787H126.873C126.968 72.5808 127.059 72.6199 127.125 72.6875C127.192 72.7552 127.229 72.8461 127.229 72.9407C127.229 73.0353 127.192 73.1262 127.125 73.1938C127.059 73.2615 126.968 73.3005 126.873 73.3026Z" fill="#3F3D56"/>
<path d="M41.5934 70.7307C42.7712 70.7307 43.726 69.7598 43.726 68.5622C43.726 67.3646 42.7712 66.3937 41.5934 66.3937C40.4155 66.3937 39.4607 67.3646 39.4607 68.5622C39.4607 69.7598 40.4155 70.7307 41.5934 70.7307Z" fill="#3F3D56"/>
<path d="M48.9607 70.7307C50.1385 70.7307 51.0933 69.7598 51.0933 68.5622C51.0933 67.3646 50.1385 66.3937 48.9607 66.3937C47.7828 66.3937 46.828 67.3646 46.828 68.5622C46.828 69.7598 47.7828 70.7307 48.9607 70.7307Z" fill="#3F3D56"/>
<path d="M56.3281 70.7307C57.5059 70.7307 58.4608 69.7598 58.4608 68.5622C58.4608 67.3646 57.5059 66.3937 56.3281 66.3937C55.1503 66.3937 54.1954 67.3646 54.1954 68.5622C54.1954 69.7598 55.1503 70.7307 56.3281 70.7307Z" fill="#3F3D56"/>
<path d="M122.437 66.9299H117.204C117.101 66.9323 117.002 66.9749 116.93 67.0485C116.858 67.1221 116.817 67.2209 116.817 67.3238C116.817 67.4267 116.858 67.5256 116.93 67.5992C117.002 67.6728 117.101 67.7154 117.204 67.7178H122.437C122.541 67.7163 122.64 67.6742 122.713 67.6004C122.787 67.5267 122.828 67.4274 122.828 67.3238C122.828 67.2203 122.787 67.121 122.713 67.0473C122.64 66.9735 122.541 66.9314 122.437 66.9299Z" fill="#3F3D56"/>
<path d="M122.437 68.4094H117.204C117.101 68.4116 117.002 68.4541 116.93 68.5278C116.857 68.6014 116.817 68.7003 116.817 68.8033C116.817 68.9063 116.857 69.0052 116.93 69.0788C117.002 69.1524 117.101 69.1949 117.204 69.1972H122.437C122.541 69.1959 122.641 69.1539 122.714 69.0802C122.787 69.0064 122.828 68.9069 122.828 68.8033C122.828 68.6996 122.787 68.6001 122.714 68.5264C122.641 68.4527 122.541 68.4106 122.437 68.4094Z" fill="#3F3D56"/>
<path d="M122.437 69.8887H117.204C117.101 69.8911 117.002 69.9337 116.93 70.0073C116.858 70.0809 116.817 70.1797 116.817 70.2827C116.817 70.3856 116.858 70.4844 116.93 70.558C117.002 70.6316 117.101 70.6742 117.204 70.6766H122.437C122.541 70.6751 122.64 70.633 122.713 70.5592C122.787 70.4855 122.828 70.3862 122.828 70.2827C122.828 70.1791 122.787 70.0798 122.713 70.0061C122.64 69.9323 122.541 69.8902 122.437 69.8887Z" fill="#3F3D56"/>
<path d="M248.588 157.245C248.746 157.702 249.046 158.098 249.444 158.375C249.842 158.653 250.318 158.798 250.804 158.789L260.299 158.546C260.789 158.536 261.262 158.37 261.648 158.07C262.035 157.771 262.313 157.356 262.443 156.886L263.786 142.595C264.263 142.81 264.782 142.916 265.305 142.906C265.76 142.894 266.208 142.794 266.623 142.611C267.039 142.427 267.414 142.164 267.727 141.836C268.041 141.508 268.286 141.123 268.449 140.7C268.613 140.278 268.691 139.828 268.68 139.376C268.668 138.924 268.567 138.479 268.383 138.065C268.198 137.652 267.934 137.279 267.604 136.967C267.275 136.655 266.887 136.411 266.463 136.249C266.038 136.086 265.586 136.008 265.131 136.02C264.922 136.019 264.713 136.041 264.509 136.084C264.287 135.845 264.016 135.654 263.715 135.525C263.414 135.396 263.09 135.331 262.762 135.334L248.157 135.71C248.036 135.714 247.915 135.729 247.797 135.754C247.476 135.813 247.173 135.94 246.906 136.126C246.639 136.312 246.415 136.553 246.25 136.832C246.084 137.111 245.981 137.422 245.946 137.745C245.912 138.067 245.947 138.393 246.05 138.7L248.588 157.245ZM264.062 141.625L265.018 138.22C265.127 137.826 265.129 137.411 265.025 137.017C265.071 137.017 265.112 136.995 265.159 136.995C265.814 136.981 266.449 137.227 266.922 137.678C267.396 138.128 267.671 138.748 267.686 139.4C267.701 140.052 267.456 140.683 267.004 141.156C266.552 141.628 265.93 141.903 265.275 141.92C264.851 141.933 264.432 141.831 264.062 141.625Z" fill="#2F2E41"/>
<path d="M247.797 135.754C248.108 137.524 251.606 138.768 255.813 138.551C259.681 138.374 262.844 137.023 263.423 135.422C263.209 135.359 262.986 135.329 262.762 135.334L248.157 135.71C248.036 135.714 247.915 135.729 247.797 135.754Z" fill="#3F3D56"/>
<path d="M256.584 149.392C256.603 149.387 256.621 149.379 256.638 149.369L258.7 148.026C258.724 148.01 258.745 147.988 258.759 147.962C258.773 147.936 258.781 147.907 258.781 147.877C258.781 147.848 258.773 147.818 258.759 147.792C258.745 147.766 258.725 147.744 258.7 147.728L256.557 146.332C256.537 146.319 256.515 146.31 256.492 146.306C256.468 146.301 256.445 146.301 256.422 146.306C256.398 146.311 256.377 146.32 256.357 146.333C256.338 146.346 256.321 146.363 256.308 146.383C256.295 146.402 256.286 146.424 256.282 146.447C256.277 146.47 256.278 146.494 256.282 146.517C256.287 146.54 256.297 146.562 256.31 146.581C256.323 146.601 256.34 146.617 256.36 146.63L258.274 147.877L256.441 149.07C256.406 149.093 256.38 149.128 256.368 149.169C256.356 149.209 256.358 149.253 256.375 149.291C256.392 149.33 256.423 149.361 256.461 149.38C256.499 149.398 256.542 149.403 256.584 149.392Z" fill="#08A882"/>
<path d="M253.327 149.542C253.361 149.533 253.393 149.514 253.416 149.488C253.44 149.461 253.455 149.428 253.46 149.393C253.465 149.358 253.459 149.322 253.444 149.29C253.428 149.258 253.403 149.232 253.372 149.214L251.471 148.13L253.308 146.773C253.327 146.759 253.343 146.742 253.355 146.722C253.367 146.702 253.375 146.679 253.379 146.656C253.382 146.633 253.381 146.61 253.375 146.587C253.369 146.564 253.359 146.543 253.345 146.524C253.331 146.505 253.314 146.489 253.293 146.477C253.273 146.465 253.251 146.457 253.228 146.454C253.204 146.451 253.181 146.452 253.158 146.458C253.135 146.463 253.114 146.473 253.095 146.487L251.038 148.007C251.014 148.024 250.995 148.048 250.982 148.075C250.97 148.101 250.964 148.131 250.966 148.16C250.968 148.19 250.977 148.219 250.992 148.244C251.008 148.269 251.03 148.29 251.056 148.304L253.194 149.523C253.234 149.547 253.282 149.553 253.327 149.542Z" fill="#08A882"/>
<path d="M256.379 150.569C256.396 150.564 256.412 150.557 256.428 150.548C256.448 150.536 256.465 150.52 256.479 150.501C256.493 150.482 256.503 150.461 256.509 150.438C256.514 150.415 256.515 150.392 256.512 150.368C256.508 150.345 256.5 150.323 256.488 150.303L253.565 145.523C253.54 145.483 253.5 145.454 253.454 145.443C253.408 145.432 253.359 145.439 253.318 145.464C253.278 145.489 253.249 145.528 253.238 145.574C253.226 145.62 253.234 145.668 253.258 145.709L256.181 150.489C256.201 150.521 256.231 150.547 256.267 150.561C256.302 150.575 256.341 150.578 256.379 150.569Z" fill="#08A882"/>
<path d="M92.0525 92.9803H76.2143C75.5682 92.9803 75.0444 93.5013 75.0444 94.144V95.683C75.0444 96.3257 75.5682 96.8467 76.2143 96.8467H92.0525C92.6986 96.8467 93.2224 96.3257 93.2224 95.683V94.144C93.2224 93.5013 92.6986 92.9803 92.0525 92.9803Z" fill="#08A882"/>
<path d="M101.284 100.713H66.9823C66.3362 100.713 65.8124 101.234 65.8124 101.877V103.416C65.8124 104.058 66.3362 104.579 66.9823 104.579H101.284C101.931 104.579 102.454 104.058 102.454 103.416V101.877C102.454 101.234 101.931 100.713 101.284 100.713Z" fill="#E6E6E6"/>
<path d="M101.284 108.446H66.9823C66.3362 108.446 65.8124 108.967 65.8124 109.609V111.148C65.8124 111.791 66.3362 112.312 66.9823 112.312H101.284C101.931 112.312 102.454 111.791 102.454 111.148V109.609C102.454 108.967 101.931 108.446 101.284 108.446Z" fill="#E6E6E6"/>
<path d="M104.192 134.339L104.27 134.583L104.274 134.591L106.613 141.663L109.303 149.813L114.365 165.128L114.414 167.507V167.515L114.79 186.652L113.747 189.247L114.921 193.5C114.921 193.5 114.381 187.071 111.486 190.763C109.847 192.861 107.929 195.009 106.355 197.022C108.649 197.945 110.979 198.78 113.347 199.527C113.858 199.689 114.373 199.844 114.888 199.998C114.998 200.031 115.109 200.064 115.219 200.096C123.066 202.404 131.179 203.701 139.358 203.955C139.783 203.967 140.2 203.976 140.605 203.984C140.748 203.988 140.887 203.992 141.026 203.992C141.484 203.996 141.938 204 142.396 204C143.32 204 144.24 203.986 145.156 203.959C151.934 203.769 158.673 202.863 165.259 201.255C165.214 198.551 165.092 195.391 164.916 192.016C164.834 190.361 162.998 188.567 162.888 186.835C162.81 185.533 164.458 184.309 164.372 182.988C163.816 174.85 163.121 177.974 162.606 172.212C162.553 171.646 162.503 171.106 162.458 170.589C162.127 166.888 161.898 164.574 161.898 164.574L164.098 150.785L167.553 129.134L167.287 128.699L166.989 128.552L148.766 119.581L147.776 117.06C147.488 116.334 146.988 115.71 146.34 115.268C145.693 114.827 144.927 114.588 144.142 114.583L132.138 114.535C131.515 114.532 130.9 114.677 130.345 114.958C129.789 115.238 129.309 115.647 128.945 116.149L125.694 120.626L104.192 134.339Z" fill="#3F3D56"/>
<path d="M117.133 161.72L114.414 167.507L112.558 171.459L109.364 188.088L107.766 189.775L106.396 183.801L92.0607 186.967C91.5905 184.368 91.9348 187.055 91.6445 184.204C91.7263 184.123 91.8122 184.041 91.898 183.96C92.127 183.749 92.3191 183.549 92.3151 183.358C92.1515 173.525 92.6421 156.791 96.7389 146.653C97.3805 144.998 98.2265 143.428 99.2574 141.98C99.3392 141.87 99.4169 141.761 99.4946 141.651C101.383 139.02 102.577 136.429 104.27 134.587V134.583C104.281 134.575 104.29 134.565 104.299 134.555C104.305 134.552 104.31 134.547 104.315 134.542L115.943 128.41L116.442 142.35L116.797 152.371L117.133 161.72Z" fill="#3F3D56"/>
<path d="M159.061 163.363L162.457 170.591L163.642 173.108L166.834 189.735L168.428 191.419L169.801 185.446L170.446 185.314L182.079 182.918L185.47 193.629C186.234 192.362 186.535 190.872 186.322 189.41C186.109 187.948 185.395 186.604 184.301 185.606C184.069 185.397 183.876 185.194 183.882 185.003C184.075 173.437 183.364 152.319 176.94 143.627C174.901 140.869 173.677 138.121 171.896 136.202C171.89 136.196 171.89 136.191 171.885 136.191L167.551 129.133L167.287 128.7L166.989 128.552L159.061 163.363Z" fill="#3F3D56"/>
<path d="M138.486 111.137C147.306 111.137 154.456 104.025 154.456 95.2524C154.456 86.4797 147.306 79.3681 138.486 79.3681C129.666 79.3681 122.516 86.4797 122.516 95.2524C122.516 104.025 129.666 111.137 138.486 111.137Z" fill="#FFB6B6"/>
<path d="M160.071 84.1573C159.948 84.0258 159.799 83.9204 159.633 83.8475C159.467 83.7746 159.288 83.7357 159.107 83.7331L159.347 83.07C159.426 82.8612 159.447 82.6353 159.409 82.4157C159.371 82.196 159.274 81.9904 159.13 81.82C158.985 81.6495 158.798 81.5202 158.587 81.4455C158.376 81.3707 158.148 81.3532 157.928 81.3946L157.054 81.5621L157.136 80.981C157.168 80.7646 157.142 80.5438 157.062 80.3401C156.982 80.1365 156.85 79.9572 156.679 79.8198C156.507 79.6824 156.303 79.5917 156.086 79.5565C155.869 79.5213 155.647 79.543 155.441 79.6193C155.253 79.6926 155.052 79.7234 154.851 79.7092C154.65 79.695 154.455 79.6363 154.28 79.5373C154.104 79.4413 153.951 79.3083 153.832 79.1476C153.713 78.9869 153.631 78.8024 153.592 78.6068L153.287 77.1453L153.255 77.0668C151.771 74.6071 148.918 72.8176 145.427 72.1616C142.32 71.5734 139.133 71.8729 136.062 72.1545C134.843 72.2686 133.467 72.3969 132.32 73.0956C131.345 73.6945 130.521 74.8923 130.689 76.1008C127.661 75.1775 124.414 77.0205 122.805 79.3448C120.898 82.1111 120.586 85.5761 120.536 88.2853C120.4 94.6949 121.729 99.9388 124.478 103.874C124.679 104.16 124.729 104.755 125.127 104.954L125.045 104.823C125.489 105.044 125.941 105.4 125.772 105.782C125.288 106.879 128.503 109.307 130.768 110.109C134.901 111.574 140.395 111.45 144.259 110.922L144.395 110.013C145.789 109.824 146.771 109.464 147.047 108.901C147.534 108.487 147.95 108.116 148.312 107.774L148.316 107.771C148.323 107.764 148.337 107.753 148.344 107.746C150.09 106.081 150.495 105.133 150.678 103.689C150.853 102.274 150.542 100.837 150.223 99.5431C156.939 100.577 147.577 92.4277 153.835 90.852C153.907 90.83 153.98 90.8122 154.054 90.7986C154.237 90.7558 154.419 90.713 154.595 90.6631C155.442 90.4345 156.252 90.0902 157.004 89.64C158.753 88.5812 159.33 87.1767 160.233 85.5939C160.363 85.3686 160.418 85.1077 160.389 84.8493C160.36 84.5909 160.249 84.3485 160.071 84.1573Z" fill="#2F2E41"/>
<path d="M194.969 164.494C194.966 165.118 194.959 165.991 194.93 167.072C194.926 167.221 194.923 167.375 194.919 167.531C194.873 169.517 194.826 171.182 194.751 173.032C194.747 173.16 194.744 173.285 194.736 173.413C194.636 175.994 194.478 179 194.206 183.759C193.701 192.549 192.819 184.967 191.934 188.051C191.891 188.204 191.844 188.386 191.801 188.6C191.667 189.376 191.441 190.133 191.127 190.856C190.658 191.134 190.174 191.402 189.697 191.669C188.339 192.421 186.959 193.145 185.569 193.833C184.787 194.218 184.002 194.596 183.214 194.959C183.088 195.016 182.966 195.073 182.845 195.127C178.807 196.984 174.646 198.564 170.39 199.854C169.559 200.103 168.731 200.346 167.892 200.57C167.017 200.813 166.143 201.041 165.258 201.255C158.672 202.863 151.933 203.77 145.155 203.96C144.241 203.989 143.32 204 142.395 204C141.936 204 141.485 203.996 141.026 203.993C140.886 203.993 140.746 203.989 140.607 203.985C140.202 203.975 139.782 203.968 139.359 203.957C131.18 203.703 123.068 202.406 115.221 200.096L114.888 200C114.371 199.843 113.859 199.69 113.346 199.526C110.981 198.781 108.65 197.947 106.354 197.023C104.601 196.321 102.869 195.568 101.157 194.763C101.141 194.759 101.127 194.752 101.114 194.742C100.756 194.578 100.394 194.407 100.035 194.232C99.9886 194.207 99.9385 194.182 99.8883 194.157C98.5514 193.508 97.2289 192.829 95.9207 192.118C94.8204 189.605 93.2721 189.124 92.3116 186.913C92.032 186.257 91.83 185.57 91.7095 184.867C91.7095 184.86 91.7059 184.853 91.7059 184.842C91.8062 186.168 91.2794 182.489 91.7023 184.828C91.6987 184.785 91.6951 184.739 91.6916 184.685C91.6808 184.557 91.6665 184.4 91.645 184.204C90.4157 172.266 90.4945 158.612 89.9605 147.362C89.9246 146.634 89.8876 145.938 89.8494 145.273C89.8386 145.052 89.8243 144.834 89.8099 144.62C89.835 144.556 89.8637 144.488 89.896 144.424C89.9028 144.406 89.9112 144.388 89.921 144.371C89.9316 144.349 89.9436 144.327 89.9569 144.307C89.9641 144.296 89.9748 144.282 89.982 144.271C89.9872 144.259 89.9932 144.247 89.9999 144.235C90.0321 144.185 90.068 144.132 90.1074 144.082C90.1253 144.061 90.1397 144.043 90.1576 144.025C90.17 144.007 90.1844 143.99 90.2006 143.975C90.2116 143.958 90.2249 143.942 90.24 143.929C90.2544 143.915 90.2687 143.897 90.2866 143.879C90.2943 143.868 90.304 143.858 90.3153 143.85C90.3436 143.818 90.3748 143.788 90.4085 143.761C90.5363 143.644 90.6729 143.537 90.8171 143.44C90.8672 143.408 90.921 143.376 90.9712 143.341C91.3324 143.126 91.7127 142.944 92.1073 142.799C92.2435 142.749 92.3797 142.702 92.5266 142.653C92.5804 142.638 92.6306 142.62 92.6843 142.603C92.7632 142.578 92.842 142.553 92.9245 142.535C93.3331 142.414 93.7739 142.31 94.2506 142.214C94.3079 142.203 94.3688 142.193 94.4298 142.178C94.5158 142.161 94.6054 142.146 94.695 142.132C94.8169 142.111 94.9423 142.089 95.0677 142.068C96.1322 141.9 97.34 141.776 98.6733 141.694C98.7987 141.687 98.9242 141.679 99.0496 141.672C99.1966 141.665 99.3435 141.658 99.494 141.651C99.6195 141.644 99.7485 141.64 99.8775 141.637C100.003 141.629 100.132 141.626 100.265 141.622C100.627 141.612 100.999 141.601 101.379 141.594C102.462 141.572 103.601 141.58 104.798 141.605C105.354 141.619 105.92 141.633 106.501 141.658C106.54 141.658 106.576 141.662 106.612 141.662C107.117 141.679 107.626 141.701 108.15 141.729C108.515 141.747 108.884 141.765 109.253 141.786C109.601 141.808 109.952 141.829 110.307 141.854C110.583 141.868 110.859 141.89 111.139 141.908C111.375 141.925 111.612 141.943 111.848 141.957L112.171 141.979C112.346 141.993 112.522 142.004 112.701 142.022C113.095 142.054 113.49 142.086 113.891 142.118C114.289 142.153 114.694 142.189 115.099 142.225C115.504 142.26 115.913 142.3 116.321 142.339C116.364 142.342 116.404 142.346 116.443 142.35C116.816 142.389 117.188 142.424 117.565 142.464C117.651 142.471 117.74 142.478 117.826 142.489C118.185 142.524 118.551 142.566 118.913 142.605C119.024 142.617 119.135 142.628 119.246 142.64C119.53 142.671 119.809 142.698 120.095 142.731C120.471 142.774 120.855 142.813 121.228 142.863C121.518 142.895 121.808 142.927 122.099 142.963C122.554 143.016 123.016 143.073 123.478 143.134C123.654 143.155 123.83 143.177 124.005 143.202C125.324 143.366 126.657 143.547 128.012 143.736C130.066 144.025 132.152 144.339 134.252 144.677C136.356 145.016 138.472 145.374 140.599 145.75C141.137 145.847 141.675 145.943 142.216 146.043C142.46 146.089 142.703 146.135 142.947 146.182C143.363 146.257 143.778 146.335 144.194 146.413C144.61 146.492 145.026 146.57 145.441 146.652C145.936 146.749 146.434 146.845 146.929 146.941C150.187 147.583 153.427 148.267 156.588 148.984C157.108 149.101 157.627 149.223 158.143 149.34C159.176 149.579 160.198 149.821 161.211 150.067C161.491 150.132 161.767 150.199 162.043 150.267C162.731 150.438 163.419 150.609 164.096 150.784L164.215 150.816C164.713 150.937 165.2 151.062 165.688 151.19C166.838 151.49 167.97 151.793 169.082 152.099C169.82 152.303 170.55 152.508 171.272 152.716C172.351 153.026 173.408 153.34 174.436 153.657C174.691 153.736 174.945 153.814 175.196 153.889C175.949 154.121 176.691 154.356 177.411 154.591C177.985 154.777 178.544 154.965 179.096 155.154C179.648 155.343 180.189 155.532 180.719 155.721C181.06 155.842 181.397 155.971 181.734 156.092C182.217 156.27 182.694 156.448 183.16 156.627C183.303 156.68 183.443 156.737 183.583 156.791C183.673 156.83 183.759 156.862 183.845 156.898C184.013 156.965 184.185 157.029 184.35 157.097C184.518 157.161 184.683 157.229 184.848 157.3C185.009 157.365 185.174 157.432 185.332 157.5C185.493 157.564 185.651 157.632 185.809 157.703C185.941 157.757 186.07 157.814 186.196 157.871C186.45 157.981 186.705 158.092 186.952 158.206C187.074 158.263 187.196 158.316 187.317 158.373L187.597 158.502C187.636 158.523 187.676 158.541 187.715 158.559C187.805 158.602 187.898 158.648 187.988 158.691C188.196 158.787 188.4 158.89 188.601 158.987C188.869 159.122 189.131 159.258 189.382 159.389C189.636 159.525 189.884 159.66 190.12 159.792C190.16 159.814 190.195 159.835 190.235 159.856C190.289 159.885 190.342 159.917 190.396 159.946C190.579 160.049 190.755 160.156 190.93 160.259C191.274 160.47 191.6 160.676 191.905 160.883C191.973 160.929 192.038 160.976 192.106 161.019C192.332 161.179 192.547 161.336 192.747 161.496C192.747 161.5 192.747 161.5 192.751 161.5C192.819 161.55 192.884 161.603 192.948 161.653C193.002 161.703 193.059 161.746 193.113 161.796C193.299 161.956 193.471 162.109 193.629 162.266C193.682 162.315 193.732 162.366 193.78 162.42C193.8 162.437 193.82 162.456 193.837 162.477C193.909 162.548 193.973 162.619 194.034 162.69C194.043 162.7 194.052 162.711 194.059 162.723C194.145 162.822 194.224 162.922 194.299 163.022C194.335 163.072 194.374 163.122 194.407 163.172C194.45 163.232 194.493 163.296 194.529 163.357C194.561 163.407 194.59 163.46 194.618 163.51C194.694 163.639 194.759 163.774 194.812 163.913C194.852 164.008 194.884 164.106 194.908 164.205C194.936 164.3 194.956 164.397 194.969 164.494Z" fill="#2F2E41"/>
<path opacity="0.2" d="M194.969 164.494C194.966 165.118 194.959 165.991 194.93 167.072C194.926 167.221 194.919 167.375 194.916 167.531C194.88 169.046 194.826 170.918 194.751 173.032C194.747 173.16 194.744 173.285 194.736 173.413C194.636 175.994 194.478 179 194.206 183.759C193.701 192.549 192.819 184.967 191.934 188.051C189.475 186.546 186.78 184.971 183.898 183.352C183.379 183.06 182.854 182.766 182.325 182.472C176.562 179.274 170.125 175.923 163.405 172.604C163.139 172.472 162.871 172.34 162.605 172.212C147.212 164.644 130.41 157.283 116.798 152.37C114.171 151.422 111.662 150.566 109.303 149.814C104.336 148.235 100.042 147.13 96.7378 146.652C93.2971 146.153 90.9209 146.331 89.9604 147.362C89.9245 146.634 89.8875 145.938 89.8493 145.273C89.8349 145.052 89.8206 144.834 89.8063 144.62C89.8284 144.562 89.8571 144.506 89.885 144.449C89.8889 144.441 89.8918 144.432 89.8959 144.424C89.9027 144.406 89.9111 144.388 89.921 144.371C89.9315 144.349 89.9435 144.327 89.9568 144.307C89.9685 144.281 89.9829 144.257 89.9998 144.235C90.0321 144.185 90.0679 144.132 90.1073 144.082C90.1363 144.045 90.1674 144.009 90.2005 143.975C90.2115 143.958 90.2248 143.942 90.24 143.929C90.2543 143.914 90.2686 143.897 90.2865 143.879C90.2942 143.868 90.3039 143.858 90.3152 143.85C90.3436 143.818 90.3747 143.788 90.4084 143.761C90.5363 143.644 90.6729 143.537 90.817 143.44C90.8671 143.408 90.9209 143.376 90.9711 143.341C91.3323 143.126 91.7126 142.944 92.1072 142.799C92.2434 142.749 92.3796 142.702 92.5266 142.653C92.5803 142.638 92.6305 142.62 92.6843 142.603C92.7631 142.578 92.842 142.553 92.9244 142.535C93.333 142.414 93.7738 142.31 94.2505 142.214C94.3939 142.186 94.5444 142.157 94.6949 142.132C94.8168 142.111 94.9422 142.089 95.0677 142.068C96.1321 141.9 97.3399 141.776 98.6732 141.694C98.7987 141.686 98.9241 141.679 99.0495 141.672C99.1965 141.665 99.3434 141.658 99.494 141.651C99.6194 141.644 99.7484 141.64 99.8774 141.637C100.003 141.629 100.132 141.626 100.265 141.622C100.627 141.612 100.999 141.601 101.379 141.594C102.462 141.576 103.601 141.583 104.798 141.608C105.354 141.619 105.92 141.637 106.501 141.661C106.537 141.661 106.576 141.665 106.612 141.665C107.117 141.679 107.63 141.704 108.149 141.729C108.515 141.747 108.884 141.765 109.253 141.786C109.601 141.808 109.952 141.829 110.307 141.854C110.583 141.868 110.859 141.89 111.139 141.907C111.375 141.925 111.612 141.943 111.848 141.957C112.131 141.979 112.414 142 112.701 142.022C113.095 142.054 113.49 142.086 113.891 142.118C114.289 142.153 114.694 142.189 115.099 142.225C115.504 142.26 115.912 142.3 116.321 142.339C116.364 142.342 116.403 142.346 116.443 142.35C116.816 142.389 117.188 142.424 117.565 142.464C119.651 142.674 121.797 142.92 124.005 143.202C125.324 143.369 126.66 143.548 128.012 143.74C130.066 144.029 132.152 144.342 134.252 144.677C136.356 145.016 138.472 145.374 140.599 145.75C141.137 145.847 141.675 145.943 142.216 146.043C142.875 146.164 143.535 146.287 144.194 146.413C144.61 146.492 145.026 146.57 145.441 146.652C145.936 146.749 146.434 146.845 146.929 146.941C150.187 147.583 153.427 148.267 156.588 148.984C157.108 149.101 157.627 149.222 158.143 149.34C159.175 149.579 160.198 149.821 161.211 150.067C161.491 150.135 161.767 150.203 162.043 150.271C162.734 150.442 163.419 150.613 164.096 150.784V150.787C164.136 150.795 164.175 150.805 164.215 150.816C164.709 150.941 165.2 151.066 165.688 151.194C166.838 151.493 167.97 151.795 169.082 152.099C169.82 152.306 170.551 152.509 171.272 152.716C172.35 153.03 173.408 153.343 174.436 153.657C174.691 153.736 174.945 153.814 175.196 153.889C175.949 154.124 176.687 154.358 177.411 154.591C177.985 154.776 178.544 154.965 179.096 155.154C179.648 155.343 180.189 155.532 180.719 155.721C181.063 155.842 181.4 155.967 181.733 156.088C182.221 156.267 182.694 156.445 183.16 156.627C183.303 156.68 183.443 156.737 183.583 156.791C183.844 156.89 184.099 156.994 184.35 157.097C184.518 157.161 184.683 157.229 184.848 157.3C185.009 157.365 185.174 157.432 185.332 157.5C185.493 157.564 185.651 157.632 185.809 157.703C185.941 157.757 186.07 157.814 186.196 157.871C186.45 157.981 186.705 158.092 186.952 158.206C187.074 158.263 187.196 158.316 187.317 158.373L187.597 158.502C187.636 158.523 187.676 158.541 187.715 158.559C188.02 158.701 188.314 158.844 188.601 158.987C188.869 159.122 189.131 159.257 189.382 159.389C189.679 159.546 189.962 159.7 190.235 159.856C190.289 159.885 190.342 159.917 190.396 159.945C190.579 160.049 190.755 160.156 190.93 160.259C191.274 160.469 191.6 160.676 191.905 160.883C192.206 161.09 192.486 161.293 192.747 161.496C192.747 161.5 192.747 161.5 192.751 161.5C192.876 161.6 192.998 161.699 193.113 161.796C193.299 161.956 193.471 162.109 193.629 162.266C193.682 162.315 193.732 162.366 193.779 162.419C193.8 162.437 193.82 162.456 193.837 162.477C193.912 162.558 193.987 162.64 194.059 162.722C194.145 162.822 194.224 162.922 194.299 163.022C194.335 163.072 194.374 163.122 194.407 163.172C194.45 163.232 194.493 163.296 194.529 163.357C194.561 163.407 194.59 163.46 194.618 163.51C194.694 163.639 194.759 163.774 194.812 163.913C194.851 164.008 194.883 164.106 194.908 164.205C194.936 164.3 194.956 164.397 194.969 164.494Z" fill="black"/>
</g>
<defs>
<clipPath id="clip0_493_339">
<rect width="282" height="204" fill="white"/>
</clipPath>
</defs>
</svg>
