<svg width="554" height="547" viewBox="0 0 554 547" fill="none" xmlns="http://www.w3.org/2000/svg">
<rect x="1.00476" y="0.995239" width="552.415" height="545.623" rx="20" fill="#D9D9D9"/>
<rect width="552.415" height="422.708" rx="20" fill="url(#paint0_linear_119_41)"/>
<rect x="45.0337" y="94.9344" width="201.151" height="40.9717" rx="10" fill="#303030"/>
<rect x="81.0608" y="108.925" width="129.097" height="11.9917" rx="5.99586" fill="#D9D9D9"/>
<ellipse cx="91.0684" cy="198.363" rx="36.0271" ry="30.4789" fill="#575757" fill-opacity="0.52"/>
<ellipse cx="181.137" cy="198.368" rx="36.0271" ry="30.4789" fill="#575757" fill-opacity="0.33"/>
<ellipse cx="91.0685" cy="274.311" rx="36.0271" ry="30.4789" fill="#D9D9D9"/>
<ellipse cx="181.137" cy="274.315" rx="36.0271" ry="30.4789" fill="#121212"/>
<rect x="319.241" y="113.926" width="165.124" height="165.885" rx="20" fill="#D9D9D9"/>
<path d="M395.041 234.907L391.009 222.139H368.641L364.609 234.907H353.185L374.977 169.627H385.153L407.041 234.907H395.041ZM374.881 202.171L371.905 211.579H387.649L384.673 202.171L379.873 185.659L374.881 202.171ZM453.369 235.387C450.105 235.387 447.481 234.715 445.497 233.371C443.577 232.027 442.169 230.363 441.273 228.379C438.521 230.939 435.865 232.827 433.305 234.043C430.745 235.259 427.993 235.867 425.049 235.867C420.761 235.867 417.593 234.491 415.545 231.739C413.561 228.987 412.569 225.499 412.569 221.275C412.569 218.459 413.081 215.995 414.105 213.883C415.193 211.707 416.953 210.011 419.385 208.795C421.817 207.579 425.145 206.971 429.369 206.971C431.033 206.971 432.761 207.099 434.553 207.355C436.345 207.547 438.137 207.803 439.929 208.123V202.459C439.929 199.771 439.193 197.947 437.721 196.987C436.249 195.963 434.265 195.451 431.769 195.451C429.849 195.451 427.737 195.707 425.433 196.219C423.193 196.731 420.761 197.531 418.137 198.619L414.969 189.211C421.433 186.587 427.289 185.275 432.537 185.275C437.273 185.275 440.921 186.075 443.481 187.675C446.105 189.275 447.929 191.387 448.953 194.011C449.977 196.635 450.489 199.451 450.489 202.459V221.179C450.489 222.139 450.745 223.067 451.257 223.963C451.833 224.795 452.921 225.211 454.521 225.211H455.577V235.387H453.369ZM423.225 221.083C423.225 222.811 423.609 224.187 424.377 225.211C425.145 226.171 426.265 226.651 427.737 226.651C429.209 226.651 430.873 226.267 432.729 225.499C434.585 224.731 436.985 222.939 439.929 220.123V215.995C436.601 215.419 433.337 215.131 430.137 215.131C427.641 215.131 425.849 215.643 424.761 216.667C423.737 217.691 423.225 219.163 423.225 221.083Z" fill="#08A882"/>
<path d="M409.585 442.713H407.185V429.113H409.585V442.713ZM415.338 435.693V442.713H413.038V432.573H415.218V433.913C415.844 433.366 416.424 432.973 416.958 432.733C417.491 432.493 418.038 432.373 418.598 432.373C419.838 432.373 420.684 432.919 421.138 434.013C421.804 433.426 422.424 433.006 422.998 432.753C423.571 432.499 424.151 432.373 424.738 432.373C425.671 432.373 426.384 432.686 426.878 433.313C427.371 433.926 427.618 434.793 427.618 435.913V442.713H425.318V436.193C425.318 435.073 424.891 434.513 424.038 434.513C423.704 434.513 423.338 434.593 422.938 434.753C422.538 434.913 422.051 435.226 421.478 435.693V442.713H419.178V436.193C419.178 435.073 418.751 434.513 417.898 434.513C417.564 434.513 417.198 434.593 416.798 434.753C416.398 434.913 415.911 435.226 415.338 435.693ZM434.995 442.913C434.661 442.913 434.321 442.879 433.975 442.813C433.641 442.746 433.301 442.653 432.955 442.533V446.973H430.655V432.573H432.835V433.953C433.461 433.326 433.995 432.906 434.435 432.693C434.875 432.479 435.335 432.373 435.815 432.373C436.921 432.373 437.775 432.786 438.375 433.613C438.975 434.439 439.275 435.599 439.275 437.093V438.173C439.275 439.626 438.908 440.779 438.175 441.633C437.441 442.486 436.381 442.913 434.995 442.913ZM435.195 434.513C434.888 434.513 434.561 434.606 434.215 434.793C433.881 434.966 433.461 435.306 432.955 435.813V440.453C433.608 440.719 434.208 440.853 434.755 440.853C435.528 440.853 436.081 440.613 436.415 440.133C436.748 439.653 436.915 438.999 436.915 438.173V437.093C436.915 436.199 436.761 435.546 436.455 435.133C436.161 434.719 435.741 434.513 435.195 434.513ZM441.884 439.853V427.913H444.184V439.853C444.184 440.053 444.231 440.246 444.324 440.433C444.431 440.606 444.631 440.693 444.924 440.693H445.244V442.813H444.684C443.924 442.813 443.344 442.666 442.944 442.373C442.544 442.079 442.264 441.706 442.104 441.253C441.957 440.799 441.884 440.333 441.884 439.853ZM455.171 442.133C454.478 442.413 453.825 442.613 453.211 442.733C452.598 442.853 452.018 442.913 451.471 442.913C449.965 442.913 448.825 442.486 448.051 441.633C447.278 440.779 446.891 439.646 446.891 438.233V437.033C446.891 436.086 447.065 435.266 447.411 434.573C447.758 433.879 448.251 433.339 448.891 432.953C449.531 432.566 450.285 432.373 451.151 432.373C451.858 432.373 452.518 432.519 453.131 432.813C453.758 433.093 454.265 433.539 454.651 434.153C455.051 434.753 455.251 435.526 455.251 436.473C455.251 436.753 455.231 437.053 455.191 437.373C455.151 437.679 455.085 438.006 454.991 438.353H449.111C449.138 439.179 449.345 439.799 449.731 440.213C450.118 440.626 450.738 440.833 451.591 440.833C452.045 440.833 452.511 440.779 452.991 440.673C453.485 440.566 453.991 440.406 454.511 440.193L455.171 442.133ZM451.151 434.313C450.538 434.313 450.058 434.513 449.711 434.913C449.378 435.299 449.185 435.859 449.131 436.593H452.971C452.985 436.526 452.991 436.466 452.991 436.413C452.991 436.346 452.991 436.286 452.991 436.233C452.991 435.593 452.811 435.113 452.451 434.793C452.091 434.473 451.658 434.313 451.151 434.313ZM460.201 435.693V442.713H457.901V432.573H460.081V433.913C460.708 433.366 461.288 432.973 461.821 432.733C462.354 432.493 462.901 432.373 463.461 432.373C464.701 432.373 465.548 432.919 466.001 434.013C466.668 433.426 467.288 433.006 467.861 432.753C468.434 432.499 469.014 432.373 469.601 432.373C470.534 432.373 471.248 432.686 471.741 433.313C472.234 433.926 472.481 434.793 472.481 435.913V442.713H470.181V436.193C470.181 435.073 469.754 434.513 468.901 434.513C468.568 434.513 468.201 434.593 467.801 434.753C467.401 434.913 466.914 435.226 466.341 435.693V442.713H464.041V436.193C464.041 435.073 463.614 434.513 462.761 434.513C462.428 434.513 462.061 434.593 461.661 434.753C461.261 434.913 460.774 435.226 460.201 435.693ZM483.218 442.133C482.525 442.413 481.871 442.613 481.258 442.733C480.645 442.853 480.065 442.913 479.518 442.913C478.011 442.913 476.871 442.486 476.098 441.633C475.325 440.779 474.938 439.646 474.938 438.233V437.033C474.938 436.086 475.111 435.266 475.458 434.573C475.805 433.879 476.298 433.339 476.938 432.953C477.578 432.566 478.331 432.373 479.198 432.373C479.905 432.373 480.565 432.519 481.178 432.813C481.805 433.093 482.311 433.539 482.698 434.153C483.098 434.753 483.298 435.526 483.298 436.473C483.298 436.753 483.278 437.053 483.238 437.373C483.198 437.679 483.131 438.006 483.038 438.353H477.158C477.185 439.179 477.391 439.799 477.778 440.213C478.165 440.626 478.785 440.833 479.638 440.833C480.091 440.833 480.558 440.779 481.038 440.673C481.531 440.566 482.038 440.406 482.558 440.193L483.218 442.133ZM479.198 434.313C478.585 434.313 478.105 434.513 477.758 434.913C477.425 435.299 477.231 435.859 477.178 436.593H481.018C481.031 436.526 481.038 436.466 481.038 436.413C481.038 436.346 481.038 436.286 481.038 436.233C481.038 435.593 480.858 435.113 480.498 434.793C480.138 434.473 479.705 434.313 479.198 434.313ZM490.908 434.513C490.574 434.513 490.194 434.593 489.768 434.753C489.341 434.913 488.834 435.226 488.248 435.693V442.713H485.948V432.573H488.128V433.933C488.754 433.386 489.348 432.993 489.908 432.753C490.468 432.499 491.034 432.373 491.608 432.373C492.581 432.373 493.321 432.686 493.828 433.313C494.334 433.926 494.588 434.793 494.588 435.913V442.713H492.288V436.193C492.288 435.073 491.828 434.513 490.908 434.513ZM503.727 442.373C503.381 442.533 502.981 442.659 502.527 442.753C502.074 442.859 501.614 442.913 501.147 442.913C500.374 442.913 499.754 442.753 499.287 442.433C498.821 442.113 498.481 441.666 498.267 441.093C498.067 440.519 497.967 439.866 497.967 439.133V434.573H496.327V432.573H497.967V429.933H500.267V432.573H503.427V434.573H500.267V439.133C500.267 439.746 500.381 440.173 500.607 440.413C500.847 440.639 501.187 440.753 501.627 440.753C501.841 440.753 502.067 440.733 502.307 440.693C502.561 440.639 502.841 440.553 503.147 440.433L503.727 442.373Z" fill="#08A882"/>
<path d="M313.186 505.525V485.589H318.338C319.511 485.589 320.492 485.695 321.282 485.909C322.092 486.122 322.775 486.431 323.33 486.837C323.906 487.242 324.418 487.743 324.866 488.341C325.314 488.938 325.687 489.621 325.986 490.389C326.306 491.135 326.551 491.946 326.722 492.821C326.892 493.695 326.978 494.655 326.978 495.701C326.935 497.215 326.732 498.581 326.37 499.797C326.028 500.991 325.495 502.015 324.77 502.869C324.066 503.722 323.148 504.383 322.018 504.853C320.887 505.301 319.532 505.525 317.954 505.525H313.186ZM316.706 502.709H317.858C319.223 502.709 320.311 502.421 321.122 501.845C321.954 501.247 322.551 500.426 322.914 499.381C323.276 498.335 323.447 497.119 323.426 495.733C323.426 494.261 323.266 492.981 322.946 491.893C322.647 490.805 322.114 489.962 321.346 489.365C320.578 488.767 319.532 488.469 318.21 488.469H316.706V502.709ZM336.514 505.877C335.447 505.877 334.455 505.706 333.538 505.365C332.642 505.023 331.852 504.533 331.17 503.893C330.508 503.231 329.996 502.421 329.634 501.461C329.271 500.501 329.09 499.413 329.09 498.197C329.09 496.959 329.271 495.85 329.634 494.869C329.996 493.887 330.487 493.055 331.106 492.373C331.746 491.69 332.492 491.178 333.346 490.837C334.199 490.474 335.116 490.293 336.098 490.293C336.972 490.293 337.794 490.442 338.562 490.741C339.33 491.039 340.002 491.498 340.578 492.117C341.175 492.714 341.644 493.471 341.986 494.389C342.327 495.285 342.498 496.33 342.498 497.525C342.498 497.738 342.487 497.994 342.466 498.293C342.466 498.591 342.455 498.847 342.434 499.061H332.578C332.62 499.765 332.759 500.373 332.994 500.885C333.228 501.375 333.538 501.781 333.922 502.101C334.306 502.421 334.732 502.666 335.202 502.837C335.671 502.986 336.162 503.061 336.674 503.061C337.122 503.061 337.548 503.018 337.954 502.933C338.38 502.847 338.775 502.698 339.138 502.485C339.522 502.271 339.884 501.994 340.226 501.653L342.082 503.445C341.612 503.999 341.079 504.469 340.482 504.853C339.906 505.215 339.276 505.471 338.594 505.621C337.932 505.791 337.239 505.877 336.514 505.877ZM332.642 496.341H338.978C338.978 495.829 338.903 495.37 338.754 494.965C338.626 494.559 338.434 494.218 338.178 493.941C337.922 493.663 337.602 493.461 337.218 493.333C336.855 493.183 336.428 493.109 335.938 493.109C335.532 493.109 335.138 493.173 334.754 493.301C334.391 493.407 334.06 493.599 333.762 493.877C333.463 494.154 333.218 494.495 333.026 494.901C332.834 495.306 332.706 495.786 332.642 496.341ZM352.13 505.877C351.234 505.877 350.37 505.791 349.538 505.621C348.706 505.471 347.938 505.226 347.234 504.885C346.53 504.522 345.879 504.063 345.282 503.509L346.882 500.565L347.01 500.309L347.266 500.469C347.33 500.618 347.394 500.789 347.458 500.981C347.522 501.151 347.682 501.354 347.938 501.589C348.471 502.037 349.079 502.389 349.762 502.645C350.444 502.901 351.255 503.029 352.194 503.029C352.791 503.029 353.292 502.965 353.698 502.837C354.124 502.687 354.444 502.495 354.658 502.261C354.892 502.005 355.01 501.717 355.01 501.397C355.01 501.141 354.946 500.917 354.818 500.725C354.69 500.533 354.487 500.362 354.21 500.213C353.932 500.063 353.57 499.914 353.122 499.765C352.674 499.594 352.14 499.413 351.522 499.221C350.434 498.943 349.484 498.602 348.674 498.197C347.884 497.77 347.276 497.258 346.85 496.661C346.423 496.063 346.21 495.37 346.21 494.581C346.21 493.749 346.444 493.013 346.914 492.373C347.404 491.733 348.087 491.231 348.962 490.869C349.836 490.485 350.871 490.293 352.066 490.293C352.684 490.293 353.271 490.346 353.826 490.453C354.38 490.538 354.903 490.677 355.394 490.869C355.906 491.039 356.375 491.274 356.802 491.573C357.25 491.85 357.666 492.181 358.05 492.565L356.29 495.029L356.066 495.285L355.842 495.093C355.82 494.922 355.767 494.762 355.682 494.613C355.618 494.442 355.458 494.239 355.202 494.005C354.775 493.685 354.284 493.45 353.73 493.301C353.196 493.151 352.663 493.077 352.13 493.077C351.404 493.077 350.775 493.194 350.242 493.429C349.73 493.663 349.474 494.026 349.474 494.517C349.474 494.794 349.591 495.05 349.826 495.285C350.06 495.498 350.444 495.711 350.978 495.925C351.532 496.117 352.258 496.33 353.154 496.565C354.348 496.885 355.319 497.258 356.066 497.685C356.834 498.09 357.388 498.581 357.73 499.157C358.092 499.733 358.274 500.405 358.274 501.173C358.274 502.005 358.039 502.783 357.57 503.509C357.1 504.234 356.407 504.81 355.49 505.237C354.594 505.663 353.474 505.877 352.13 505.877ZM362.53 505.525V502.677H366.178V493.493H362.722V490.645H369.826V502.677H373.154V505.525H362.53ZM367.842 488.181C367.223 488.181 366.69 487.967 366.242 487.541C365.794 487.114 365.57 486.602 365.57 486.005C365.57 485.365 365.783 484.842 366.21 484.437C366.636 484.031 367.18 483.829 367.842 483.829C368.439 483.829 368.962 484.042 369.41 484.469C369.879 484.895 370.114 485.407 370.114 486.005C370.114 486.602 369.879 487.114 369.41 487.541C368.962 487.967 368.439 488.181 367.842 488.181ZM377.602 505.525V490.645H381.218V492.693C381.58 492.223 381.975 491.807 382.402 491.445C382.828 491.082 383.298 490.805 383.81 490.613C384.343 490.399 384.908 490.293 385.506 490.293C386.38 490.293 387.18 490.506 387.906 490.933C388.631 491.338 389.218 491.999 389.666 492.917C390.114 493.834 390.338 495.039 390.338 496.533V505.525H386.722V496.597C386.722 495.765 386.636 495.093 386.466 494.581C386.295 494.069 386.039 493.695 385.698 493.461C385.378 493.205 384.994 493.077 384.546 493.077C384.14 493.077 383.735 493.162 383.33 493.333C382.946 493.482 382.594 493.717 382.274 494.037C381.954 494.357 381.698 494.741 381.506 495.189C381.314 495.615 381.218 496.106 381.218 496.661V505.525H377.602ZM399.49 511.253C398.423 511.253 397.474 511.157 396.642 510.965C395.81 510.773 395.106 510.506 394.53 510.165C393.954 509.823 393.506 509.407 393.186 508.917C392.887 508.447 392.738 507.914 392.738 507.317C392.738 506.805 392.866 506.325 393.122 505.877C393.378 505.429 393.719 505.045 394.146 504.725C394.594 504.383 395.074 504.117 395.586 503.925L397.218 504.597C396.94 504.81 396.663 505.023 396.386 505.237C396.13 505.429 395.916 505.642 395.746 505.877C395.596 506.133 395.522 506.431 395.522 506.773C395.522 507.05 395.628 507.295 395.842 507.509C396.055 507.722 396.354 507.893 396.738 508.021C397.122 508.17 397.57 508.277 398.082 508.341C398.594 508.405 399.159 508.437 399.778 508.437C400.588 508.437 401.271 508.362 401.826 508.213C402.38 508.063 402.807 507.85 403.106 507.573C403.404 507.317 403.554 507.018 403.554 506.677C403.554 506.357 403.468 506.09 403.298 505.877C403.127 505.685 402.818 505.546 402.37 505.461C401.922 505.375 401.292 505.333 400.482 505.333C399.799 505.333 399.127 505.301 398.466 505.237C397.804 505.173 397.175 505.066 396.578 504.917C396.002 504.767 395.49 504.575 395.042 504.341C394.594 504.085 394.242 503.775 393.986 503.413C393.751 503.05 393.634 502.613 393.634 502.101C393.634 501.397 393.836 500.789 394.242 500.277C394.668 499.765 395.18 499.295 395.778 498.869L397.442 499.829C397.228 500.021 397.036 500.181 396.866 500.309C396.716 500.437 396.599 500.565 396.514 500.693C396.428 500.799 396.386 500.959 396.386 501.173C396.386 501.429 396.546 501.642 396.866 501.813C397.207 501.983 397.751 502.111 398.498 502.197C399.266 502.282 400.258 502.325 401.474 502.325C402.434 502.325 403.234 502.431 403.874 502.645C404.514 502.837 405.026 503.125 405.41 503.509C405.794 503.871 406.071 504.298 406.242 504.789C406.434 505.258 406.53 505.759 406.53 506.293C406.53 506.933 406.391 507.541 406.114 508.117C405.836 508.714 405.41 509.247 404.834 509.717C404.258 510.186 403.522 510.559 402.626 510.837C401.751 511.114 400.706 511.253 399.49 511.253ZM399.202 500.501C398.156 500.501 397.207 500.277 396.354 499.829C395.522 499.381 394.86 498.773 394.37 498.005C393.9 497.215 393.666 496.341 393.666 495.381C393.666 494.421 393.9 493.557 394.37 492.789C394.86 491.999 395.522 491.37 396.354 490.901C397.207 490.431 398.156 490.197 399.202 490.197C400.268 490.197 401.207 490.431 402.018 490.901C402.85 491.37 403.5 491.999 403.97 492.789C404.46 493.557 404.706 494.421 404.706 495.381C404.706 496.341 404.46 497.215 403.97 498.005C403.5 498.773 402.85 499.381 402.018 499.829C401.207 500.277 400.268 500.501 399.202 500.501ZM399.17 497.877C399.639 497.877 400.055 497.77 400.418 497.557C400.802 497.343 401.1 497.045 401.314 496.661C401.548 496.277 401.666 495.85 401.666 495.381C401.666 494.911 401.548 494.495 401.314 494.133C401.1 493.77 400.802 493.482 400.418 493.269C400.055 493.055 399.639 492.949 399.17 492.949C398.743 492.949 398.338 493.066 397.954 493.301C397.591 493.514 397.292 493.802 397.058 494.165C396.823 494.527 396.706 494.933 396.706 495.381C396.706 495.829 396.812 496.245 397.026 496.629C397.26 497.013 397.559 497.322 397.922 497.557C398.306 497.77 398.722 497.877 399.17 497.877ZM403.81 493.365L402.434 491.669C403.031 491.178 403.714 490.805 404.482 490.549C405.25 490.293 406.082 490.197 406.978 490.261L407.33 492.757C406.69 492.629 406.06 492.618 405.442 492.725C404.823 492.831 404.279 493.045 403.81 493.365ZM431.842 505.941C429.644 505.941 427.948 505.29 426.754 503.989C425.58 502.666 424.994 500.853 424.994 498.549V485.589H428.578H428.866V485.877C428.759 486.005 428.684 486.143 428.642 486.293C428.62 486.442 428.61 486.698 428.61 487.061V498.581C428.61 499.946 428.844 501.023 429.314 501.813C429.804 502.602 430.658 502.997 431.874 502.997C433.111 502.997 433.975 502.602 434.466 501.813C434.956 501.002 435.202 499.893 435.202 498.485V485.589H438.722V498.453C438.722 500.159 438.434 501.567 437.858 502.677C437.282 503.786 436.471 504.607 435.426 505.141C434.402 505.674 433.207 505.941 431.842 505.941ZM440.77 505.525L445.986 495.349L440.834 485.589H444.546L447.906 492.149L451.17 485.589H454.69L449.89 495.317L455.33 505.525H451.49L447.938 498.645L444.482 505.525H440.77ZM479.842 505.941C477.644 505.941 475.948 505.29 474.754 503.989C473.58 502.666 472.994 500.853 472.994 498.549V485.589H476.578H476.866V485.877C476.759 486.005 476.684 486.143 476.642 486.293C476.62 486.442 476.61 486.698 476.61 487.061V498.581C476.61 499.946 476.844 501.023 477.314 501.813C477.804 502.602 478.658 502.997 479.874 502.997C481.111 502.997 481.975 502.602 482.466 501.813C482.956 501.002 483.202 499.893 483.202 498.485V485.589H486.722V498.453C486.722 500.159 486.434 501.567 485.858 502.677C485.282 503.786 484.471 504.607 483.426 505.141C482.402 505.674 481.207 505.941 479.842 505.941ZM490.082 505.525V502.613H493.986V488.501H490.306V485.589H501.314V488.501H497.41V502.613H501.474V505.525H490.082Z" fill="#303030"/>
<defs>
<linearGradient id="paint0_linear_119_41" x1="276.208" y1="0" x2="276.208" y2="422.708" gradientUnits="userSpaceOnUse">
<stop stop-color="#08A882"/>
<stop offset="0.694595" stop-color="#08A882" stop-opacity="0.487614"/>
<stop offset="1" stop-color="#08A882" stop-opacity="0"/>
</linearGradient>
</defs>
</svg>
