<svg width="558" height="551" viewBox="0 0 558 551" fill="none" xmlns="http://www.w3.org/2000/svg">
<rect x="3.59088" y="2" width="552.415" height="545.623" rx="20" transform="rotate(0.272069 3.59088 2)" fill="#D9D9D9"/>
<rect x="2.58417" y="3.30917" width="552.415" height="422.708" rx="20" fill="url(#paint0_linear_119_2)"/>
<path d="M412.069 446.653L409.67 446.641L409.734 433.041L412.134 433.053L412.069 446.653ZM417.855 439.66L417.822 446.68L415.522 446.669L415.57 436.529L417.75 436.54L417.744 437.88C418.373 437.336 418.955 436.945 419.489 436.708C420.024 436.47 420.571 436.353 421.131 436.356C422.371 436.362 423.215 436.912 423.663 438.008C424.332 437.424 424.954 437.007 425.529 436.757C426.103 436.506 426.684 436.382 427.271 436.385C428.204 436.389 428.916 436.706 429.406 437.335C429.897 437.951 430.139 438.818 430.134 439.938L430.102 446.738L427.802 446.727L427.833 440.207C427.838 439.088 427.414 438.525 426.561 438.521C426.227 438.52 425.86 438.598 425.459 438.756C425.059 438.914 424.571 439.225 423.995 439.689L423.962 446.709L421.662 446.698L421.693 440.178C421.698 439.058 421.274 438.496 420.421 438.492C420.087 438.491 419.72 438.569 419.32 438.727C418.919 438.885 418.431 439.196 417.855 439.66ZM437.478 446.973C437.144 446.972 436.805 446.937 436.458 446.869C436.125 446.8 435.786 446.705 435.44 446.584L435.419 451.024L433.119 451.013L433.187 436.613L435.367 436.623L435.36 438.003C435.99 437.38 436.525 436.962 436.966 436.751C437.407 436.54 437.868 436.435 438.348 436.437C439.454 436.443 440.306 436.86 440.902 437.69C441.498 438.519 441.792 439.68 441.785 441.174L441.78 442.254C441.773 443.707 441.401 444.859 440.664 445.708C439.926 446.558 438.864 446.98 437.478 446.973ZM437.718 438.574C437.411 438.573 437.084 438.665 436.736 438.85C436.402 439.022 435.981 439.36 435.472 439.864L435.449 444.504C436.102 444.773 436.701 444.91 437.248 444.912C438.021 444.916 438.575 444.679 438.911 444.2C439.247 443.722 439.416 443.069 439.42 442.243L439.425 441.163C439.43 440.269 439.279 439.615 438.975 439.2C438.683 438.786 438.264 438.577 437.718 438.574ZM444.381 443.946L444.438 432.006L446.738 432.017L446.681 443.957C446.68 444.157 446.726 444.351 446.819 444.538C446.924 444.712 447.124 444.799 447.417 444.801L447.737 444.802L447.727 446.922L447.167 446.919C446.407 446.916 445.828 446.766 445.429 446.471C445.031 446.176 444.752 445.801 444.595 445.347C444.45 444.893 444.379 444.426 444.381 443.946ZM457.658 446.289C456.963 446.566 456.309 446.763 455.695 446.88C455.081 446.997 454.501 447.054 453.954 447.052C452.447 447.044 451.309 446.612 450.54 445.755C449.771 444.898 449.39 443.763 449.396 442.35L449.402 441.15C449.406 440.203 449.584 439.384 449.934 438.692C450.284 438.001 450.779 437.463 451.421 437.079C452.063 436.696 452.817 436.506 453.684 436.51C454.391 436.514 455.05 436.663 455.662 436.96C456.287 437.243 456.792 437.692 457.176 438.307C457.573 438.909 457.769 439.683 457.765 440.63C457.763 440.91 457.742 441.21 457.7 441.529C457.659 441.836 457.591 442.162 457.496 442.508L451.616 442.48C451.638 443.307 451.842 443.928 452.227 444.343C452.612 444.759 453.231 444.968 454.084 444.972C454.537 444.974 455.004 444.923 455.485 444.819C455.978 444.715 456.486 444.557 457.007 444.346L457.658 446.289ZM453.675 438.45C453.062 438.447 452.581 438.645 452.232 439.043C451.897 439.428 451.701 439.987 451.644 440.721L455.484 440.739C455.498 440.672 455.505 440.612 455.505 440.559C455.505 440.492 455.505 440.432 455.506 440.379C455.509 439.739 455.331 439.258 454.973 438.936C454.614 438.615 454.181 438.453 453.675 438.45ZM462.718 439.873L462.685 446.893L460.385 446.882L460.433 436.742L462.613 436.753L462.606 438.093C463.236 437.549 463.817 437.158 464.352 436.921C464.886 436.683 465.434 436.566 465.994 436.569C467.234 436.575 468.078 437.125 468.526 438.221C469.195 437.637 469.817 437.22 470.392 436.97C470.966 436.719 471.547 436.595 472.134 436.598C473.067 436.602 473.779 436.919 474.269 437.548C474.759 438.164 475.002 439.031 474.997 440.151L474.964 446.951L472.664 446.94L472.695 440.421C472.701 439.301 472.277 438.739 471.423 438.734C471.09 438.733 470.723 438.811 470.322 438.969C469.921 439.127 469.433 439.438 468.858 439.902L468.824 446.922L466.524 446.911L466.555 440.391C466.561 439.271 466.137 438.709 465.283 438.705C464.95 438.704 464.583 438.782 464.182 438.94C463.782 439.098 463.293 439.409 462.718 439.873ZM485.704 446.422C485.01 446.699 484.355 446.896 483.741 447.013C483.127 447.13 482.547 447.187 482.001 447.185C480.494 447.178 479.356 446.746 478.587 445.889C477.817 445.032 477.436 443.896 477.443 442.483L477.449 441.283C477.453 440.336 477.63 439.517 477.98 438.826C478.33 438.134 478.826 437.596 479.468 437.213C480.11 436.829 480.864 436.639 481.731 436.643C482.437 436.647 483.097 436.797 483.708 437.093C484.334 437.376 484.838 437.825 485.222 438.44C485.619 439.042 485.816 439.816 485.811 440.763C485.81 441.043 485.788 441.343 485.747 441.663C485.705 441.969 485.637 442.295 485.542 442.642L479.662 442.614C479.685 443.44 479.889 444.061 480.273 444.477C480.658 444.892 481.277 445.101 482.13 445.105C482.584 445.108 483.051 445.056 483.531 444.952C484.025 444.848 484.532 444.69 485.053 444.479L485.704 446.422ZM481.721 438.583C481.108 438.58 480.627 438.778 480.279 439.177C479.943 439.562 479.747 440.121 479.691 440.854L483.531 440.872C483.544 440.805 483.551 440.745 483.551 440.692C483.552 440.625 483.552 440.565 483.552 440.512C483.555 439.872 483.378 439.391 483.019 439.07C482.661 438.748 482.228 438.586 481.721 438.583ZM493.43 438.839C493.097 438.837 492.716 438.916 492.289 439.074C491.861 439.232 491.353 439.542 490.764 440.006L490.731 447.026L488.431 447.015L488.479 436.875L490.659 436.886L490.653 438.246C491.282 437.702 491.877 437.312 492.438 437.074C493 436.824 493.567 436.7 494.14 436.702C495.113 436.707 495.852 437.024 496.356 437.653C496.859 438.269 497.109 439.136 497.103 440.256L497.071 447.056L494.771 447.045L494.802 440.525C494.807 439.406 494.35 438.843 493.43 438.839ZM506.212 446.76C505.865 446.918 505.464 447.043 505.01 447.134C504.557 447.239 504.096 447.29 503.63 447.287C502.856 447.284 502.237 447.121 501.772 446.799C501.307 446.476 500.969 446.028 500.758 445.454C500.561 444.88 500.464 444.226 500.468 443.492L500.489 438.932L498.849 438.925L498.859 436.925L500.499 436.933L500.511 434.293L502.811 434.303L502.799 436.943L505.959 436.958L505.949 438.958L502.789 438.943L502.768 443.503C502.765 444.117 502.876 444.544 503.102 444.785C503.34 445.013 503.68 445.128 504.12 445.13C504.333 445.131 504.56 445.112 504.8 445.073C505.054 445.021 505.334 444.936 505.641 444.817L506.212 446.76Z" fill="#08A882"/>
<path d="M210.771 508.388C209.448 508.382 208.201 508.184 207.03 507.795C205.88 507.384 204.922 506.771 204.158 505.957L205.932 502.989L206.062 502.734L206.349 502.895C206.391 503.045 206.443 503.205 206.507 503.376C206.591 503.547 206.761 503.751 207.016 503.987C207.547 504.394 208.132 504.728 208.771 504.987C209.431 505.225 210.145 505.356 210.913 505.381C211.404 505.383 211.852 505.332 212.258 505.227C212.685 505.123 213.048 504.965 213.348 504.753C213.648 504.541 213.884 504.275 214.056 503.956C214.228 503.615 214.315 503.232 214.317 502.805C214.319 502.549 214.288 502.304 214.225 502.069C214.162 501.834 214.046 501.609 213.876 501.395C213.728 501.16 213.505 500.935 213.207 500.72C212.91 500.484 212.538 500.237 212.091 499.979C211.644 499.699 211.08 499.408 210.399 499.107C209.036 498.503 207.951 497.89 207.144 497.267C206.357 496.645 205.795 495.981 205.457 495.275C205.119 494.569 204.952 493.769 204.956 492.873C204.961 491.891 205.232 491.018 205.769 490.252C206.327 489.487 207.087 488.883 208.05 488.439C209.012 487.996 210.111 487.777 211.349 487.783C212.181 487.787 212.959 487.887 213.683 488.082C214.408 488.277 215.078 488.569 215.695 488.956C216.312 489.321 216.875 489.793 217.384 490.372L215.261 492.794L215.068 493.017L214.813 492.823C214.792 492.653 214.75 492.492 214.687 492.343C214.645 492.172 214.508 491.958 214.274 491.701C213.871 491.315 213.434 491.057 212.966 490.927C212.518 490.797 211.985 490.73 211.367 490.727C210.919 490.725 210.524 490.776 210.182 490.881C209.84 490.986 209.541 491.134 209.284 491.325C209.048 491.516 208.855 491.739 208.705 491.994C208.576 492.228 208.51 492.474 208.509 492.729C208.508 492.985 208.539 493.231 208.602 493.466C208.665 493.68 208.77 493.893 208.919 494.107C209.088 494.322 209.322 494.547 209.619 494.783C209.938 494.998 210.343 495.234 210.832 495.493C211.321 495.751 211.928 496.042 212.652 496.365C213.652 496.839 214.493 497.302 215.173 497.753C215.854 498.183 216.385 498.644 216.767 499.137C217.17 499.608 217.455 500.132 217.623 500.709C217.791 501.264 217.874 501.894 217.87 502.598C217.866 503.558 217.616 504.485 217.121 505.379C216.626 506.272 215.855 507.005 214.807 507.576C213.759 508.125 212.413 508.396 210.771 508.388ZM225.81 508.492C225.213 508.489 224.648 508.401 224.116 508.228C223.583 508.076 223.104 507.839 222.679 507.517C222.254 507.174 221.883 506.745 221.565 506.232C221.269 505.718 221.037 505.109 220.87 504.404C220.703 503.678 220.621 502.856 220.626 501.939L220.667 493.203L224.315 493.221L224.274 501.956C224.27 502.618 224.321 503.183 224.425 503.653C224.53 504.102 224.688 504.476 224.9 504.775C225.112 505.054 225.357 505.258 225.633 505.387C225.931 505.516 226.24 505.582 226.56 505.583C227.008 505.585 227.414 505.513 227.777 505.365C228.162 505.196 228.483 504.952 228.741 504.634C229.02 504.315 229.235 503.921 229.386 503.453C229.538 502.963 229.616 502.387 229.619 501.726L229.659 493.246L233.275 493.263L233.215 505.775C233.213 506.244 233.222 506.671 233.241 507.055C233.282 507.418 233.377 507.781 233.524 508.144L230.228 508.129C230.123 507.915 230.049 507.701 230.007 507.488C229.966 507.274 229.935 507.061 229.914 506.847C229.915 506.613 229.916 506.399 229.917 506.207C229.681 506.569 229.413 506.898 229.113 507.195C228.813 507.471 228.481 507.705 228.117 507.895C227.775 508.085 227.401 508.233 226.995 508.337C226.611 508.442 226.216 508.494 225.81 508.492ZM236.539 513.503L236.603 493.247L240.187 493.264L240.177 495.344C240.521 494.791 240.896 494.345 241.303 494.005C241.732 493.645 242.202 493.38 242.715 493.212C243.249 493.044 243.804 492.961 244.38 492.964C245.191 492.968 245.948 493.142 246.65 493.487C247.374 493.81 248.001 494.304 248.531 494.968C249.061 495.631 249.473 496.455 249.767 497.437C250.083 498.399 250.237 499.53 250.231 500.832C250.225 502.133 250.06 503.274 249.735 504.253C249.41 505.233 248.958 506.042 248.379 506.679C247.822 507.316 247.179 507.793 246.453 508.11C245.747 508.426 245.01 508.583 244.242 508.579C243.709 508.577 243.187 508.51 242.675 508.38C242.185 508.25 241.727 508.066 241.302 507.829C240.876 507.571 240.526 507.26 240.25 506.896L240.219 513.52L236.539 513.503ZM243.264 505.759C243.733 505.761 244.171 505.678 244.577 505.509C244.983 505.34 245.336 505.065 245.637 504.682C245.959 504.278 246.207 503.746 246.38 503.085C246.554 502.425 246.643 501.604 246.648 500.623C246.653 499.641 246.529 498.798 246.276 498.093C246.024 497.366 245.664 496.81 245.196 496.424C244.729 496.038 244.164 495.832 243.503 495.808C242.991 495.784 242.532 495.867 242.126 496.057C241.741 496.247 241.409 496.555 241.129 496.98C240.85 497.406 240.634 497.949 240.482 498.609C240.329 499.27 240.251 500.07 240.246 501.008C240.264 501.648 240.315 502.225 240.398 502.737C240.481 503.249 240.596 503.698 240.744 504.083C240.913 504.446 241.114 504.756 241.347 505.014C241.581 505.249 241.857 505.432 242.177 505.562C242.496 505.691 242.858 505.757 243.264 505.759ZM258.994 508.585C257.672 508.579 256.468 508.253 255.383 507.608C254.319 506.942 253.481 506.021 252.868 504.844C252.255 503.668 251.952 502.312 251.959 500.776C251.966 499.304 252.282 497.983 252.906 496.812C253.53 495.642 254.378 494.718 255.447 494.04C256.539 493.363 257.746 493.027 259.068 493.034C260.412 493.04 261.616 493.387 262.679 494.075C263.764 494.763 264.613 495.695 265.226 496.871C265.861 498.047 266.174 499.371 266.167 500.843C266.16 502.379 265.834 503.732 265.188 504.903C264.564 506.073 263.706 506.986 262.615 507.643C261.545 508.278 260.338 508.592 258.994 508.585ZM259.008 505.705C259.712 505.709 260.321 505.509 260.835 505.106C261.349 504.682 261.757 504.108 262.059 503.384C262.383 502.639 262.547 501.786 262.551 500.826C262.556 499.824 262.4 498.959 262.084 498.232C261.788 497.505 261.386 496.949 260.876 496.562C260.365 496.154 259.758 495.949 259.054 495.946C258.414 495.943 257.827 496.142 257.292 496.545C256.778 496.927 256.359 497.479 256.036 498.203C255.734 498.927 255.58 499.79 255.575 500.793C255.571 501.753 255.716 502.607 256.011 503.355C256.306 504.082 256.709 504.66 257.219 505.089C257.75 505.497 258.347 505.702 259.008 505.705ZM269.946 493.437L273.69 493.455L273.639 497.615L273.224 497.357C273.312 496.696 273.496 496.11 273.776 495.599C274.077 495.089 274.442 494.643 274.871 494.261C275.32 493.879 275.802 493.593 276.315 493.403C276.849 493.214 277.393 493.121 277.948 493.123C278.78 493.127 279.526 493.269 280.186 493.55C280.867 493.809 281.495 494.239 282.068 494.839L280.518 497.871L280.42 498.127L280.133 497.998C280.07 497.827 280.007 497.656 279.943 497.485C279.88 497.292 279.721 497.078 279.466 496.842C279.169 496.606 278.85 496.424 278.509 496.294C278.19 496.164 277.838 496.099 277.454 496.097C276.942 496.094 276.451 496.177 275.981 496.346C275.511 496.514 275.093 496.779 274.729 497.14C274.386 497.501 274.106 497.969 273.89 498.544C273.696 499.098 273.596 499.759 273.593 500.527L273.556 508.335L269.876 508.317L269.946 493.437ZM292.594 508.745C291.741 508.741 290.995 508.599 290.356 508.318C289.739 508.038 289.218 507.588 288.794 506.967C288.392 506.346 288.097 505.524 287.91 504.499C287.744 503.474 287.697 502.204 287.768 500.69L288.235 490.004L291.981 489.542L292.269 489.511L292.3 489.799C292.214 489.948 292.128 490.097 292.042 490.246C291.956 490.395 291.901 490.651 291.878 491.013L291.505 495.428L291.664 495.652L291.384 500.643C291.314 502.029 291.351 503.107 291.497 503.876C291.664 504.623 291.907 505.136 292.226 505.415C292.566 505.694 292.971 505.835 293.44 505.837C294.123 505.84 294.731 505.704 295.266 505.43C295.822 505.155 296.335 504.837 296.806 504.477L297.562 507.105C296.834 507.634 296.053 508.047 295.22 508.341C294.408 508.615 293.533 508.749 292.594 508.745ZM284.986 493.509L296.442 493.563L296.397 496.411L284.909 496.356L284.986 493.509ZM307.698 508.849C306.631 508.844 305.64 508.668 304.724 508.323C303.83 507.977 303.043 507.483 302.363 506.839C301.705 506.175 301.197 505.362 300.839 504.4C300.481 503.438 300.304 502.349 300.31 501.134C300.316 499.896 300.503 498.788 300.87 497.808C301.237 496.829 301.732 495.999 302.354 495.319C302.997 494.64 303.746 494.131 304.601 493.794C305.456 493.435 306.374 493.258 307.356 493.263C308.23 493.267 309.051 493.42 309.818 493.723C310.584 494.025 311.254 494.487 311.827 495.108C312.421 495.708 312.887 496.468 313.224 497.387C313.561 498.284 313.727 499.331 313.721 500.525C313.72 500.739 313.708 500.994 313.686 501.293C313.684 501.592 313.672 501.848 313.65 502.061L303.794 502.014C303.833 502.718 303.969 503.327 304.201 503.84C304.434 504.332 304.741 504.739 305.124 505.06C305.506 505.382 305.932 505.63 306.4 505.802C306.869 505.954 307.359 506.031 307.871 506.033C308.319 506.036 308.746 505.995 309.152 505.912C309.579 505.828 309.974 505.681 310.338 505.469C310.723 505.258 311.087 504.982 311.43 504.642L313.277 506.443C312.805 506.996 312.27 507.462 311.671 507.844C311.093 508.203 310.462 508.456 309.779 508.603C309.117 508.77 308.423 508.852 307.698 508.849ZM303.871 499.294L310.207 499.324C310.209 498.812 310.137 498.353 309.99 497.947C309.863 497.541 309.673 497.199 309.418 496.921C309.164 496.642 308.845 496.438 308.461 496.308C308.099 496.157 307.673 496.08 307.182 496.078C306.777 496.076 306.382 496.138 305.997 496.264C305.634 496.369 305.303 496.56 305.003 496.836C304.703 497.112 304.456 497.452 304.262 497.856C304.068 498.261 303.938 498.74 303.871 499.294ZM338.257 508.994C337.425 508.99 336.637 508.826 335.892 508.503C335.168 508.179 334.52 507.685 333.947 507.021C333.374 506.357 332.919 505.534 332.582 504.551C332.267 503.568 332.113 502.415 332.119 501.093C332.125 499.813 332.29 498.693 332.615 497.735C332.939 496.755 333.381 495.946 333.938 495.309C334.517 494.651 335.181 494.163 335.929 493.847C336.677 493.53 337.489 493.374 338.364 493.378C338.854 493.38 339.323 493.447 339.771 493.577C340.239 493.707 340.654 493.901 341.016 494.159C341.399 494.395 341.706 494.727 341.939 495.155L341.977 487.187L345.529 487.204L345.849 487.206L345.848 487.494C345.719 487.621 345.633 487.759 345.59 487.908C345.568 488.058 345.556 488.314 345.554 488.676L345.436 506.692C345.435 507.033 345.455 507.364 345.496 507.684C345.537 508.004 345.631 508.335 345.779 508.678L342.227 508.661C342.121 508.425 342.048 508.233 342.006 508.084C341.964 507.934 341.932 507.785 341.912 507.635C341.913 507.464 341.914 507.262 341.915 507.027C341.657 507.474 341.335 507.846 340.949 508.143C340.564 508.439 340.147 508.651 339.698 508.777C339.25 508.924 338.769 508.996 338.257 508.994ZM338.879 506.085C339.37 506.087 339.797 505.993 340.161 505.803C340.546 505.591 340.856 505.283 341.093 504.879C341.351 504.475 341.535 503.964 341.644 503.346C341.775 502.706 341.843 501.981 341.847 501.171C341.852 500.061 341.75 499.144 341.54 498.417C341.33 497.67 341.002 497.113 340.556 496.749C340.109 496.384 339.534 496.2 338.83 496.196C338.339 496.194 337.891 496.309 337.484 496.542C337.078 496.753 336.746 497.072 336.488 497.497C336.23 497.923 336.025 498.434 335.873 499.03C335.742 499.627 335.675 500.299 335.671 501.045C335.666 502.091 335.801 502.987 336.074 503.735C336.369 504.483 336.761 505.061 337.25 505.469C337.739 505.877 338.282 506.082 338.879 506.085ZM355.697 509.077C354.631 509.072 353.639 508.896 352.724 508.55C351.829 508.205 351.042 507.71 350.363 507.067C349.704 506.403 349.196 505.59 348.838 504.628C348.48 503.666 348.304 502.577 348.31 501.361C348.316 500.124 348.502 499.016 348.87 498.036C349.237 497.056 349.731 496.227 350.353 495.547C350.997 494.867 351.746 494.359 352.601 494.022C353.456 493.663 354.374 493.486 355.355 493.491C356.23 493.495 357.05 493.648 357.817 493.95C358.584 494.253 359.253 494.715 359.826 495.336C360.421 495.936 360.887 496.696 361.224 497.615C361.561 498.512 361.726 499.558 361.721 500.753C361.72 500.966 361.708 501.222 361.685 501.521C361.684 501.82 361.672 502.076 361.649 502.289L351.794 502.242C351.833 502.946 351.969 503.555 352.201 504.068C352.433 504.56 352.741 504.967 353.123 505.288C353.506 505.61 353.931 505.858 354.4 506.03C354.868 506.182 355.359 506.259 355.871 506.261C356.319 506.264 356.745 506.223 357.151 506.139C357.578 506.056 357.974 505.909 358.337 505.697C358.722 505.486 359.086 505.21 359.429 504.87L361.277 506.671C360.805 507.224 360.269 507.69 359.67 508.071C359.092 508.431 358.462 508.684 357.778 508.83C357.116 508.998 356.422 509.08 355.697 509.077ZM351.87 499.522L358.206 499.552C358.209 499.04 358.136 498.581 357.989 498.175C357.863 497.769 357.673 497.427 357.418 497.149C357.163 496.87 356.844 496.666 356.461 496.536C356.099 496.385 355.672 496.308 355.182 496.306C354.776 496.304 354.382 496.366 353.997 496.492C353.634 496.597 353.302 496.788 353.002 497.064C352.702 497.34 352.455 497.68 352.261 498.084C352.067 498.489 351.937 498.968 351.87 499.522ZM386.769 509.224C385.446 509.218 384.199 509.02 383.028 508.63C381.878 508.22 380.92 507.607 380.156 506.793L381.93 503.825L382.06 503.57L382.347 503.731C382.389 503.881 382.441 504.041 382.505 504.212C382.589 504.383 382.759 504.586 383.014 504.822C383.545 505.23 384.13 505.564 384.769 505.823C385.429 506.06 386.143 506.192 386.911 506.217C387.402 506.219 387.85 506.168 388.256 506.063C388.683 505.959 389.046 505.8 389.346 505.588C389.646 505.376 389.882 505.111 390.054 504.792C390.226 504.451 390.313 504.068 390.315 503.641C390.317 503.385 390.286 503.139 390.223 502.904C390.16 502.67 390.044 502.445 389.874 502.231C389.726 501.995 389.503 501.77 389.205 501.556C388.908 501.32 388.536 501.072 388.089 500.814C387.642 500.535 387.078 500.244 386.397 499.942C385.034 499.338 383.949 498.725 383.142 498.103C382.355 497.48 381.793 496.816 381.455 496.111C381.117 495.405 380.95 494.604 380.954 493.708C380.959 492.727 381.23 491.854 381.767 491.088C382.325 490.323 383.085 489.718 384.048 489.275C385.01 488.832 386.109 488.613 387.347 488.619C388.179 488.623 388.957 488.722 389.681 488.918C390.406 489.113 391.076 489.404 391.693 489.791C392.31 490.157 392.873 490.629 393.382 491.207L391.259 493.629L391.066 493.852L390.811 493.659C390.79 493.488 390.748 493.328 390.685 493.179C390.643 493.008 390.506 492.794 390.272 492.537C389.869 492.151 389.432 491.893 388.964 491.762C388.516 491.632 387.983 491.566 387.365 491.563C386.917 491.561 386.522 491.612 386.18 491.717C385.838 491.822 385.539 491.97 385.282 492.161C385.046 492.352 384.853 492.575 384.703 492.83C384.574 493.064 384.508 493.309 384.507 493.565C384.506 493.821 384.537 494.067 384.6 494.302C384.663 494.515 384.768 494.729 384.917 494.943C385.086 495.157 385.32 495.382 385.617 495.619C385.936 495.833 386.341 496.07 386.83 496.328C387.32 496.587 387.926 496.878 388.65 497.201C389.65 497.675 390.491 498.138 391.171 498.589C391.852 499.019 392.383 499.48 392.765 499.973C393.168 500.444 393.453 500.968 393.621 501.545C393.789 502.1 393.872 502.73 393.868 503.434C393.864 504.394 393.614 505.321 393.119 506.214C392.624 507.108 391.853 507.84 390.805 508.411C389.757 508.961 388.411 509.232 386.769 509.224ZM397.714 508.924L397.728 506.076L401.376 506.093L401.419 496.91L397.964 496.893L397.977 494.045L405.081 494.079L405.024 506.111L408.352 506.127L408.338 508.975L397.714 508.924ZM403.109 491.606C402.49 491.603 401.958 491.387 401.512 490.958C401.066 490.529 400.844 490.016 400.847 489.419C400.85 488.779 401.066 488.257 401.494 487.854C401.923 487.451 402.468 487.25 403.129 487.254C403.727 487.256 404.248 487.472 404.694 487.901C405.162 488.33 405.394 488.843 405.391 489.44C405.388 490.038 405.151 490.549 404.68 490.973C404.23 491.398 403.706 491.608 403.109 491.606ZM419.312 509.379C418.416 509.374 417.553 509.285 416.722 509.11C415.89 508.957 415.124 508.708 414.421 508.363C413.719 507.997 413.07 507.536 412.476 506.978L414.09 504.042L414.219 503.786L414.474 503.948C414.537 504.097 414.601 504.268 414.664 504.461C414.727 504.632 414.886 504.835 415.141 505.071C415.672 505.521 416.278 505.876 416.96 506.135C417.641 506.395 418.451 506.527 419.39 506.531C419.987 506.534 420.489 506.472 420.895 506.346C421.322 506.199 421.643 506.008 421.858 505.775C422.093 505.52 422.212 505.232 422.214 504.912C422.215 504.656 422.152 504.432 422.025 504.24C421.898 504.047 421.696 503.875 421.419 503.725C421.143 503.574 420.781 503.423 420.333 503.271C419.886 503.099 419.354 502.915 418.736 502.72C417.649 502.437 416.702 502.092 415.893 501.682C415.106 501.252 414.5 500.737 414.076 500.138C413.652 499.538 413.442 498.844 413.446 498.055C413.45 497.223 413.688 496.488 414.161 495.85C414.654 495.212 415.339 494.714 416.216 494.356C417.092 493.976 418.128 493.789 419.322 493.795C419.941 493.797 420.528 493.854 421.082 493.963C421.636 494.051 422.158 494.192 422.648 494.386C423.159 494.559 423.627 494.796 424.052 495.097C424.499 495.376 424.913 495.709 425.296 496.095L423.524 498.551L423.299 498.805L423.076 498.612C423.055 498.442 423.003 498.281 422.918 498.132C422.855 497.961 422.696 497.757 422.441 497.521C422.016 497.199 421.526 496.962 420.972 496.81C420.44 496.659 419.907 496.581 419.373 496.579C418.648 496.575 418.018 496.69 417.484 496.922C416.97 497.154 416.713 497.516 416.71 498.006C416.709 498.284 416.825 498.54 417.059 498.776C417.292 498.99 417.675 499.205 418.208 499.421C418.761 499.616 419.486 499.833 420.381 500.072C421.574 500.397 422.543 500.775 423.287 501.205C424.053 501.614 424.606 502.108 424.944 502.685C425.304 503.263 425.482 503.936 425.479 504.704C425.475 505.536 425.236 506.313 424.764 507.037C424.291 507.76 423.595 508.332 422.675 508.755C421.777 509.177 420.656 509.385 419.312 509.379ZM436.592 509.429C435.739 509.425 434.993 509.282 434.354 509.002C433.737 508.722 433.217 508.271 432.793 507.651C432.39 507.03 432.096 506.207 431.909 505.182C431.743 504.158 431.695 502.888 431.767 501.374L432.233 490.688L435.98 490.226L436.268 490.195L436.298 490.483C436.212 490.632 436.126 490.781 436.04 490.93C435.954 491.079 435.9 491.335 435.877 491.697L435.504 496.111L435.663 496.336L435.383 501.327C435.312 502.713 435.35 503.791 435.496 504.559C435.663 505.307 435.906 505.82 436.224 506.099C436.564 506.378 436.969 506.518 437.438 506.521C438.121 506.524 438.73 506.388 439.264 506.113C439.82 505.839 440.334 505.521 440.805 505.161L441.56 507.788C440.832 508.318 440.052 508.73 439.218 509.025C438.406 509.299 437.531 509.433 436.592 509.429ZM428.985 494.192L440.441 494.247L440.395 497.095L428.907 497.04L428.985 494.192ZM451.696 509.532C450.629 509.527 449.638 509.352 448.723 509.006C447.828 508.661 447.041 508.166 446.362 507.523C445.703 506.859 445.195 506.046 444.837 505.084C444.479 504.122 444.303 503.033 444.309 501.817C444.315 500.58 444.501 499.472 444.868 498.492C445.236 497.512 445.73 496.683 446.352 496.003C446.996 495.323 447.745 494.815 448.6 494.478C449.455 494.119 450.373 493.942 451.354 493.947C452.229 493.951 453.049 494.104 453.816 494.406C454.583 494.709 455.252 495.171 455.825 495.792C456.42 496.392 456.886 497.152 457.223 498.071C457.56 498.968 457.725 500.014 457.72 501.209C457.719 501.422 457.707 501.678 457.684 501.977C457.683 502.275 457.671 502.531 457.648 502.745L447.793 502.698C447.832 503.402 447.968 504.011 448.2 504.524C448.432 505.016 448.74 505.422 449.122 505.744C449.505 506.066 449.93 506.313 450.399 506.486C450.867 506.638 451.357 506.715 451.869 506.717C452.317 506.719 452.744 506.679 453.15 506.595C453.577 506.512 453.972 506.365 454.336 506.153C454.721 505.941 455.085 505.666 455.428 505.326L457.276 507.127C456.804 507.679 456.268 508.146 455.669 508.527C455.091 508.887 454.461 509.14 453.777 509.286C453.115 509.454 452.421 509.536 451.696 509.532ZM447.869 499.978L454.205 500.008C454.208 499.496 454.135 499.037 453.988 498.631C453.862 498.225 453.671 497.883 453.417 497.604C453.162 497.326 452.843 497.122 452.46 496.992C452.098 496.841 451.671 496.764 451.181 496.762C450.775 496.76 450.38 496.822 449.996 496.948C449.633 497.053 449.301 497.244 449.001 497.52C448.701 497.795 448.454 498.136 448.26 498.54C448.066 498.944 447.936 499.424 447.869 499.978ZM459.986 509.22L460.056 494.34L463.096 494.354L463.091 495.442C463.349 495.102 463.617 494.826 463.895 494.614C464.173 494.402 464.462 494.254 464.761 494.17C465.082 494.065 465.391 494.013 465.69 494.015C466.053 494.016 466.394 494.082 466.713 494.212C467.033 494.32 467.32 494.513 467.574 494.792C467.85 495.049 468.062 495.391 468.209 495.819C468.446 495.415 468.714 495.085 469.014 494.831C469.314 494.555 469.656 494.354 470.041 494.227C470.447 494.101 470.885 494.039 471.354 494.042C471.909 494.044 472.377 494.142 472.76 494.336C473.144 494.53 473.452 494.809 473.685 495.173C473.939 495.537 474.118 495.985 474.222 496.519C474.326 497.053 474.377 497.651 474.374 498.312L474.322 509.288L471.186 509.273L471.234 499.065C471.237 498.425 471.207 497.934 471.145 497.593C471.083 497.23 470.988 496.984 470.861 496.855C470.733 496.705 470.563 496.63 470.35 496.629C470.072 496.628 469.805 496.765 469.548 497.041C469.29 497.296 469.075 497.658 468.902 498.126C468.751 498.573 468.674 499.106 468.671 499.725L468.626 509.261L465.682 509.247L465.73 499.135C465.734 498.111 465.663 497.428 465.515 497.086C465.368 496.744 465.091 496.572 464.686 496.57C464.494 496.569 464.301 496.632 464.109 496.759C463.938 496.886 463.777 497.078 463.626 497.333C463.497 497.567 463.389 497.876 463.302 498.259C463.215 498.622 463.17 499.037 463.168 499.507L463.122 509.235L459.986 509.22ZM481.36 509.705C479.717 509.698 478.439 509.307 477.525 508.535C476.633 507.742 476.19 506.726 476.196 505.489C476.199 504.699 476.373 503.975 476.718 503.315C477.084 502.634 477.62 502.05 478.326 501.563C479.033 501.076 479.909 500.706 480.956 500.455C482.002 500.183 483.197 500.05 484.541 500.056C484.712 500.057 484.925 500.058 485.181 500.059C485.437 500.061 485.715 500.073 486.013 500.095C486.312 500.097 486.589 500.119 486.845 500.163L486.929 502.66C486.716 502.637 486.46 502.625 486.161 502.624C485.863 502.601 485.553 502.589 485.233 502.588C484.935 502.565 484.679 502.553 484.466 502.552C483.612 502.548 482.887 502.608 482.289 502.734C481.712 502.859 481.242 503.038 480.878 503.271C480.514 503.483 480.247 503.748 480.074 504.067C479.902 504.365 479.815 504.695 479.814 505.058C479.812 505.399 479.864 505.688 479.97 505.923C480.096 506.158 480.256 506.351 480.447 506.501C480.66 506.63 480.904 506.727 481.181 506.792C481.458 506.858 481.757 506.891 482.077 506.893C482.717 506.896 483.272 506.802 483.742 506.613C484.234 506.402 484.641 506.073 484.963 505.626C485.306 505.18 485.554 504.627 485.707 503.966C485.881 503.284 485.97 502.484 485.974 501.567C485.98 500.33 485.857 499.38 485.604 498.717C485.351 498.055 484.98 497.594 484.49 497.336C484.001 497.056 483.383 496.915 482.636 496.911C481.954 496.908 481.302 497.022 480.683 497.254C480.084 497.464 479.496 497.867 478.917 498.462L476.943 496.276C477.779 495.491 478.71 494.93 479.735 494.593C480.761 494.257 481.786 494.091 482.81 494.096C483.748 494.1 484.623 494.211 485.432 494.428C486.242 494.646 486.944 495.012 487.539 495.526C488.155 496.02 488.632 496.705 488.969 497.581C489.328 498.436 489.504 499.504 489.498 500.784L489.457 509.36L485.713 509.342L485.721 507.742C485.442 508.103 485.142 508.411 484.821 508.666C484.499 508.92 484.157 509.121 483.794 509.269C483.43 509.416 483.046 509.521 482.64 509.583C482.234 509.667 481.808 509.707 481.36 509.705ZM499.312 509.759C498.416 509.754 497.552 509.665 496.721 509.49C495.89 509.337 495.123 509.088 494.42 508.743C493.718 508.377 493.07 507.916 492.475 507.358L494.089 504.422L494.218 504.166L494.473 504.328C494.537 504.477 494.6 504.648 494.663 504.84C494.726 505.011 494.885 505.215 495.14 505.451C495.671 505.901 496.277 506.256 496.959 506.515C497.64 506.775 498.45 506.906 499.389 506.911C499.986 506.914 500.488 506.852 500.894 506.726C501.321 506.579 501.642 506.388 501.857 506.155C502.093 505.9 502.211 505.612 502.213 505.292C502.214 505.036 502.151 504.812 502.024 504.619C501.897 504.427 501.695 504.255 501.418 504.105C501.142 503.954 500.78 503.803 500.333 503.651C499.885 503.479 499.353 503.295 498.735 503.1C497.648 502.817 496.701 502.471 495.892 502.062C495.105 501.632 494.499 501.117 494.075 500.518C493.652 499.918 493.442 499.224 493.445 498.435C493.449 497.603 493.687 496.868 494.16 496.23C494.653 495.592 495.338 495.094 496.215 494.736C497.091 494.356 498.127 494.169 499.322 494.174C499.94 494.177 500.527 494.233 501.081 494.343C501.635 494.431 502.157 494.572 502.647 494.766C503.158 494.939 503.626 495.176 504.051 495.477C504.498 495.756 504.913 496.089 505.295 496.475L503.523 498.93L503.298 499.185L503.075 498.992C503.054 498.822 503.002 498.661 502.917 498.512C502.854 498.341 502.695 498.137 502.44 497.901C502.015 497.579 501.525 497.342 500.971 497.19C500.439 497.038 499.906 496.961 499.372 496.959C498.647 496.955 498.017 497.07 497.483 497.302C496.97 497.534 496.712 497.895 496.71 498.386C496.708 498.663 496.824 498.92 497.058 499.156C497.292 499.37 497.675 499.585 498.207 499.801C498.761 499.996 499.485 500.213 500.38 500.452C501.573 500.777 502.542 501.155 503.286 501.585C504.052 501.994 504.605 502.488 504.943 503.065C505.303 503.643 505.481 504.316 505.478 505.084C505.474 505.916 505.236 506.693 504.763 507.416C504.29 508.14 503.594 508.712 502.675 509.135C501.777 509.557 500.656 509.765 499.312 509.759Z" fill="#303030"/>
<g clip-path="url(#clip0_119_2)">
<path d="M366.304 211.064H103.775C96.4225 211.064 90.4416 206.12 90.4416 200.04V148.035L78 136.31L90.4443 122.719V115.585C90.4443 109.507 96.4279 104.563 103.778 104.563H366.304C373.662 104.563 379.654 109.507 379.654 115.585V200.04C379.649 206.12 373.654 211.064 366.304 211.064ZM91.9536 135.897L101.296 144.701V200.038C101.296 201.188 102.433 202.158 103.778 202.158H366.304C367.654 202.158 368.797 201.188 368.797 200.038L368.803 115.583C368.803 114.433 367.66 113.464 366.307 113.464H103.778C102.433 113.464 101.296 114.435 101.296 115.583V125.689L91.9536 135.897ZM397.233 290.439H136.3C128.941 290.439 122.952 285.498 122.952 279.42L122.95 238.371C122.95 232.296 128.939 227.354 136.297 227.354H397.233C404.591 227.354 410.583 232.296 410.583 238.371V245.513L423 259.103L410.585 270.824V279.42C410.585 285.498 404.594 290.439 397.233 290.439ZM136.297 236.256C134.947 236.256 133.804 237.224 133.804 238.369V279.417C133.804 280.563 134.947 281.533 136.3 281.533H397.236C398.589 281.533 399.731 280.565 399.731 279.417V267.492L409.06 258.688L399.729 248.478V238.369C399.729 237.224 398.586 236.256 397.233 236.256H136.297Z" fill="#282D33"/>
<path d="M120.67 131.322H202.405V140.226H120.67V131.322ZM215.48 131.322H293.946V140.226H215.48V131.322Z" fill="#282D33"/>
<path d="M263.699 131.322H332.357V140.226H263.699V131.322ZM120.67 152.346H155.814V161.249H120.67V152.346ZM170.525 152.346H290.676V161.249H170.525V152.346ZM303.749 152.346H344.618V161.249H303.749V152.346ZM120.67 173.37H202.405V182.273H120.67V173.37ZM215.48 173.37H270.238V182.273H215.48V173.37ZM151.728 254.078H226.921V262.981H151.728V254.078ZM243.263 254.078H338.895V262.981H243.263V254.078ZM353.065 254.078H375.676V262.981H353.065V254.078Z" fill="#282D33"/>
</g>
<path d="M450 292C441.729 292 435 285.271 435 277C435 268.729 441.729 262 450 262C458.271 262 465 268.729 465 277C465 285.271 458.271 292 450 292ZM450 264C442.832 264 437 269.832 437 277C437 284.168 442.832 290 450 290C457.168 290 463 284.168 463 277C463 269.832 457.168 264 450 264Z" fill="black"/>
<path d="M450 275.736C451.86 275.736 453.368 274.228 453.368 272.368C453.368 270.508 451.86 269 450 269C448.14 269 446.632 270.508 446.632 272.368C446.632 274.228 448.14 275.736 450 275.736Z" fill="black"/>
<path d="M454.673 285H445.327C444.497 285 443.825 284.328 443.825 283.498V282.511C443.825 281.078 444.395 279.704 445.408 278.691C446.421 277.678 447.795 277.108 449.228 277.108H450.772C452.205 277.108 453.579 277.678 454.592 278.691C455.605 279.704 456.175 281.078 456.175 282.511V283.498C456.175 284.328 455.503 285 454.673 285Z" fill="black"/>
<path d="M52 137C43.729 137 37 130.271 37 122C37 113.729 43.729 107 52 107C60.271 107 67 113.729 67 122C67 130.271 60.271 137 52 137ZM52 109C44.832 109 39 114.832 39 122C39 129.168 44.832 135 52 135C59.168 135 65 129.168 65 122C65 114.832 59.168 109 52 109Z" fill="black"/>
<path d="M52 120.736C53.8601 120.736 55.368 119.228 55.368 117.368C55.368 115.508 53.8601 114 52 114C50.1399 114 48.632 115.508 48.632 117.368C48.632 119.228 50.1399 120.736 52 120.736Z" fill="black"/>
<path d="M56.673 130H47.327C46.497 130 45.825 129.328 45.825 128.498V127.511C45.8253 126.078 46.3946 124.704 47.4078 123.691C48.421 122.678 49.7951 122.108 51.228 122.108H52.772C54.2049 122.108 55.579 122.678 56.5922 123.691C57.6054 124.704 58.1747 126.078 58.175 127.511V128.498C58.175 129.328 57.503 130 56.673 130Z" fill="black"/>
<defs>
<linearGradient id="paint0_linear_119_2" x1="278.792" y1="3.30917" x2="278.792" y2="426.017" gradientUnits="userSpaceOnUse">
<stop stop-color="#08A882"/>
<stop offset="0.694595" stop-color="#08A882" stop-opacity="0.487614"/>
<stop offset="1" stop-color="#08A882" stop-opacity="0"/>
</linearGradient>
<clipPath id="clip0_119_2">
<rect width="345" height="283" fill="white" transform="translate(78 56)"/>
</clipPath>
</defs>
</svg>
