<svg width="563" height="558" viewBox="0 0 563 558" fill="none" xmlns="http://www.w3.org/2000/svg">
<g filter="url(#filter0_d_287_54)">
<rect x="6.59088" y="1" width="552.415" height="545.623" rx="20" transform="rotate(0.272069 6.59088 1)" fill="#D9D9D9"/>
</g>
<rect x="5.59088" width="552.415" height="422.708" rx="20" transform="rotate(0.272069 5.59088 0)" fill="url(#paint0_linear_287_54)"/>
<rect x="50.1733" y="95.1472" width="201.151" height="40.9717" rx="10" transform="rotate(0.272069 50.1733 95.1472)" fill="#303030"/>
<rect x="86.1335" y="109.309" width="129.097" height="11.9917" rx="5.99586" transform="rotate(0.272069 86.1335 109.309)" fill="#D9D9D9"/>
<ellipse cx="95.7163" cy="198.793" rx="36.0271" ry="30.4789" transform="rotate(0.272069 95.7163 198.793)" fill="#575757" fill-opacity="0.52"/>
<ellipse cx="186.784" cy="199.226" rx="36.0271" ry="30.4789" transform="rotate(0.272069 186.784 199.226)" fill="#575757" fill-opacity="0.33"/>
<ellipse cx="95.3557" cy="274.74" rx="36.0271" ry="30.4789" transform="rotate(0.272069 95.3557 274.74)" fill="#D9D9D9"/>
<ellipse cx="186.423" cy="275.172" rx="36.0271" ry="30.4789" transform="rotate(0.272069 186.423 275.172)" fill="#121212"/>
<rect x="325.287" y="115.441" width="165.124" height="165.885" rx="20" transform="rotate(0.272069 325.287 115.441)" fill="#D9D9D9"/>
<path d="M400.512 236.781L396.54 223.994L374.173 223.887L370.08 236.636L358.656 236.582L380.758 171.406L390.934 171.454L412.511 236.838L400.512 236.781ZM380.507 203.949L377.487 213.343L393.23 213.418L390.299 203.996L385.578 187.461L380.507 203.949ZM458.837 237.538C455.573 237.522 452.952 236.838 450.975 235.484C449.061 234.131 447.661 232.46 446.774 230.472C444.01 233.019 441.345 234.895 438.78 236.098C436.214 237.302 433.459 237.897 430.515 237.883C426.227 237.863 423.066 236.472 421.031 233.71C419.06 230.949 418.084 227.456 418.104 223.232C418.118 220.416 418.641 217.955 419.675 215.847C420.774 213.677 422.542 211.989 424.98 210.785C427.417 209.58 430.748 208.988 434.972 209.008C436.636 209.016 438.363 209.152 440.154 209.417C441.945 209.617 443.736 209.882 445.527 210.21L445.553 204.546C445.566 201.858 444.839 200.031 443.371 199.064C441.904 198.033 439.923 197.511 437.427 197.499C435.507 197.49 433.394 197.736 431.087 198.237C428.845 198.739 426.409 199.527 423.78 200.603L420.657 191.18C427.133 188.586 432.995 187.302 438.243 187.327C442.979 187.35 446.623 188.167 449.176 189.779C451.792 191.392 453.606 193.512 454.617 196.141C455.629 198.77 456.128 201.588 456.113 204.596L456.024 223.316C456.02 224.276 456.271 225.205 456.779 226.104C457.351 226.938 458.437 227.36 460.037 227.367L461.093 227.372L461.045 237.548L458.837 237.538ZM428.761 223.091C428.753 224.819 429.13 226.196 429.894 227.224C430.657 228.188 431.775 228.673 433.247 228.68C434.719 228.687 436.384 228.311 438.244 227.552C440.104 226.793 442.512 225.012 445.47 222.21L445.489 218.082C442.164 217.49 438.901 217.187 435.701 217.172C433.205 217.16 431.411 217.663 430.318 218.682C429.289 219.701 428.77 221.171 428.761 223.091Z" fill="#08A882"/>
<path d="M414.069 444.653L411.669 444.641L411.734 431.041L414.134 431.053L414.069 444.653ZM419.855 437.66L419.822 444.68L417.522 444.669L417.57 434.529L419.75 434.54L419.743 435.88C420.373 435.336 420.955 434.945 421.489 434.708C422.023 434.47 422.571 434.353 423.131 434.356C424.371 434.362 425.215 434.912 425.663 436.008C426.332 435.424 426.954 435.007 427.529 434.757C428.103 434.506 428.684 434.382 429.271 434.385C430.204 434.389 430.916 434.706 431.406 435.335C431.897 435.951 432.139 436.818 432.134 437.938L432.102 444.738L429.802 444.727L429.833 438.208C429.838 437.088 429.414 436.526 428.561 436.521C428.227 436.52 427.86 436.598 427.459 436.756C427.059 436.914 426.57 437.225 425.995 437.689L425.962 444.709L423.662 444.698L423.693 438.178C423.698 437.058 423.274 436.496 422.421 436.492C422.087 436.491 421.72 436.569 421.319 436.727C420.919 436.885 420.431 437.196 419.855 437.66ZM439.478 444.973C439.144 444.972 438.805 444.937 438.458 444.869C438.125 444.8 437.786 444.705 437.44 444.584L437.418 449.024L435.118 449.013L435.187 434.613L437.367 434.623L437.36 436.003C437.99 435.38 438.525 434.962 438.966 434.751C439.407 434.54 439.868 434.435 440.348 434.437C441.454 434.443 442.306 434.86 442.902 435.69C443.498 436.519 443.792 437.68 443.785 439.174L443.78 440.254C443.773 441.707 443.401 442.859 442.664 443.709C441.926 444.558 440.864 444.98 439.478 444.973ZM439.718 436.574C439.411 436.573 439.084 436.665 438.736 436.85C438.402 437.022 437.98 437.36 437.471 437.864L437.449 442.504C438.101 442.774 438.701 442.91 439.247 442.912C440.021 442.916 440.575 442.679 440.911 442.2C441.246 441.722 441.416 441.069 441.42 440.243L441.425 439.163C441.43 438.269 441.279 437.615 440.975 437.2C440.683 436.786 440.264 436.577 439.718 436.574ZM446.381 441.946L446.438 430.006L448.738 430.017L448.681 441.957C448.68 442.157 448.726 442.351 448.818 442.538C448.924 442.712 449.124 442.799 449.417 442.801L449.737 442.802L449.727 444.922L449.167 444.919C448.407 444.916 447.828 444.766 447.429 444.471C447.031 444.176 446.752 443.801 446.595 443.347C446.45 442.893 446.379 442.426 446.381 441.946ZM459.658 444.289C458.963 444.566 458.309 444.763 457.695 444.88C457.081 444.997 456.501 445.054 455.954 445.052C454.447 445.044 453.309 444.612 452.54 443.755C451.771 442.898 451.389 441.763 451.396 440.35L451.402 439.15C451.406 438.203 451.584 437.384 451.934 436.692C452.284 436.001 452.779 435.463 453.421 435.079C454.063 434.696 454.817 434.506 455.684 434.51C456.391 434.514 457.05 434.663 457.662 434.96C458.287 435.243 458.792 435.692 459.175 436.307C459.573 436.909 459.769 437.683 459.764 438.63C459.763 438.91 459.742 439.21 459.7 439.529C459.659 439.836 459.59 440.162 459.496 440.508L453.616 440.48C453.638 441.307 453.842 441.928 454.227 442.343C454.611 442.759 455.23 442.968 456.084 442.972C456.537 442.974 457.004 442.923 457.485 442.819C457.978 442.715 458.486 442.557 459.007 442.346L459.658 444.289ZM455.675 436.45C455.061 436.447 454.58 436.645 454.232 437.043C453.897 437.428 453.701 437.988 453.644 438.721L457.484 438.739C457.498 438.672 457.504 438.612 457.505 438.559C457.505 438.492 457.505 438.432 457.506 438.379C457.509 437.739 457.331 437.258 456.972 436.936C456.614 436.615 456.181 436.453 455.675 436.45ZM464.718 437.873L464.684 444.893L462.384 444.882L462.433 434.742L464.613 434.753L464.606 436.093C465.235 435.549 465.817 435.158 466.352 434.921C466.886 434.683 467.434 434.566 467.993 434.569C469.233 434.575 470.078 435.125 470.526 436.221C471.195 435.637 471.817 435.22 472.392 434.97C472.966 434.719 473.547 434.595 474.133 434.598C475.067 434.602 475.779 434.919 476.269 435.548C476.759 436.164 477.002 437.031 476.997 438.151L476.964 444.951L474.664 444.94L474.695 438.421C474.701 437.301 474.277 436.739 473.423 436.734C473.09 436.733 472.723 436.811 472.322 436.969C471.921 437.127 471.433 437.438 470.858 437.902L470.824 444.922L468.524 444.911L468.555 438.391C468.561 437.271 468.137 436.709 467.283 436.705C466.95 436.704 466.583 436.782 466.182 436.94C465.781 437.098 465.293 437.409 464.718 437.873ZM487.704 444.422C487.009 444.699 486.355 444.896 485.741 445.013C485.127 445.13 484.547 445.187 484 445.185C482.494 445.178 481.356 444.746 480.587 443.889C479.817 443.032 479.436 441.896 479.443 440.483L479.448 439.283C479.453 438.336 479.63 437.517 479.98 436.826C480.33 436.134 480.826 435.596 481.468 435.213C482.11 434.829 482.864 434.639 483.731 434.643C484.437 434.647 485.096 434.797 485.708 435.093C486.334 435.376 486.838 435.825 487.222 436.44C487.619 437.042 487.815 437.816 487.811 438.763C487.81 439.043 487.788 439.343 487.747 439.663C487.705 439.969 487.637 440.295 487.542 440.642L481.662 440.614C481.685 441.44 481.889 442.061 482.273 442.477C482.658 442.892 483.277 443.101 484.13 443.105C484.584 443.108 485.051 443.056 485.531 442.952C486.025 442.848 486.532 442.69 487.053 442.479L487.704 444.422ZM483.721 436.583C483.108 436.58 482.627 436.778 482.278 437.177C481.943 437.562 481.747 438.121 481.69 438.854L485.53 438.872C485.544 438.805 485.551 438.745 485.551 438.692C485.552 438.625 485.552 438.565 485.552 438.512C485.555 437.872 485.377 437.391 485.019 437.07C484.661 436.748 484.228 436.586 483.721 436.583ZM495.43 436.839C495.097 436.837 494.716 436.916 494.289 437.074C493.861 437.232 493.353 437.542 492.764 438.006L492.731 445.026L490.431 445.015L490.479 434.875L492.659 434.886L492.653 436.246C493.282 435.702 493.877 435.312 494.438 435.074C494.999 434.824 495.567 434.7 496.14 434.702C497.113 434.707 497.852 435.024 498.356 435.653C498.859 436.269 499.109 437.136 499.103 438.256L499.071 445.056L496.771 445.045L496.802 438.526C496.807 437.406 496.35 436.843 495.43 436.839ZM508.212 444.76C507.865 444.918 507.464 445.043 507.01 445.134C506.556 445.239 506.096 445.29 505.63 445.288C504.856 445.284 504.237 445.121 503.772 444.799C503.307 444.476 502.969 444.028 502.758 443.454C502.561 442.88 502.464 442.226 502.468 441.492L502.489 436.933L500.849 436.925L500.859 434.925L502.499 434.933L502.511 432.293L504.811 432.303L504.799 434.943L507.959 434.958L507.949 436.958L504.789 436.943L504.768 441.503C504.765 442.117 504.876 442.544 505.101 442.785C505.34 443.013 505.68 443.128 506.12 443.13C506.333 443.131 506.56 443.112 506.8 443.073C507.054 443.021 507.334 442.936 507.641 442.817L508.212 444.76Z" fill="#08A882"/>
<path d="M317.372 507.006L317.467 487.07L322.619 487.095C323.792 487.1 324.773 487.212 325.562 487.429C326.371 487.646 327.052 487.958 327.605 488.366C328.179 488.775 328.689 489.278 329.134 489.878C329.579 490.477 329.949 491.162 330.244 491.931C330.561 492.679 330.802 493.491 330.969 494.366C331.135 495.242 331.216 496.202 331.211 497.248C331.161 498.762 330.952 500.126 330.584 501.341C330.237 502.534 329.698 503.555 328.969 504.405C328.261 505.255 327.34 505.912 326.208 506.376C325.075 506.819 323.719 507.036 322.14 507.029L317.372 507.006ZM320.906 504.207L322.058 504.212C323.423 504.219 324.512 503.936 325.326 503.364C326.161 502.77 326.762 501.952 327.13 500.908C327.497 499.865 327.674 498.65 327.659 497.263C327.666 495.791 327.512 494.51 327.197 493.421C326.904 492.331 326.374 491.486 325.609 490.885C324.844 490.284 323.8 489.98 322.477 489.974L320.973 489.967L320.906 504.207ZM340.699 507.469C339.632 507.464 338.641 507.288 337.725 506.943C336.831 506.597 336.044 506.103 335.364 505.459C334.706 504.795 334.198 503.982 333.84 503.02C333.481 502.059 333.305 500.97 333.311 499.754C333.317 498.516 333.504 497.408 333.871 496.428C334.238 495.449 334.733 494.619 335.355 493.939C335.998 493.26 336.747 492.751 337.602 492.414C338.457 492.055 339.375 491.878 340.357 491.883C341.231 491.887 342.052 492.04 342.818 492.343C343.585 492.645 344.255 493.107 344.828 493.728C345.422 494.328 345.888 495.088 346.225 496.007C346.562 496.905 346.728 497.951 346.722 499.145C346.721 499.359 346.709 499.615 346.686 499.913C346.685 500.212 346.673 500.468 346.651 500.681L336.795 500.634C336.834 501.338 336.97 501.947 337.202 502.46C337.435 502.952 337.742 503.359 338.124 503.681C338.507 504.002 338.932 504.25 339.401 504.423C339.87 504.574 340.36 504.651 340.872 504.654C341.32 504.656 341.747 504.615 342.152 504.532C342.58 504.448 342.975 504.301 343.339 504.089C343.724 503.878 344.088 503.602 344.431 503.263L346.278 505.063C345.806 505.616 345.27 506.083 344.671 506.464C344.094 506.824 343.463 507.077 342.78 507.223C342.118 507.39 341.424 507.472 340.699 507.469ZM336.872 497.915L343.208 497.945C343.21 497.433 343.138 496.974 342.99 496.568C342.864 496.162 342.674 495.819 342.419 495.541C342.165 495.262 341.845 495.058 341.462 494.928C341.1 494.777 340.674 494.701 340.183 494.698C339.778 494.696 339.383 494.758 338.998 494.885C338.635 494.99 338.304 495.18 338.004 495.456C337.704 495.732 337.457 496.072 337.263 496.476C337.069 496.881 336.938 497.36 336.872 497.915ZM356.314 507.543C355.418 507.539 354.555 507.449 353.724 507.275C352.892 507.121 352.125 506.872 351.423 506.528C350.721 506.162 350.072 505.7 349.478 505.143L351.092 502.206L351.221 501.951L351.476 502.112C351.539 502.262 351.603 502.433 351.666 502.625C351.729 502.796 351.888 502.999 352.143 503.235C352.674 503.686 353.28 504.041 353.962 504.3C354.643 504.559 355.453 504.691 356.392 504.695C356.989 504.698 357.491 504.637 357.897 504.51C358.324 504.363 358.645 504.173 358.859 503.939C359.095 503.684 359.214 503.397 359.216 503.077C359.217 502.821 359.154 502.596 359.027 502.404C358.9 502.211 358.698 502.04 358.421 501.889C358.145 501.738 357.783 501.587 357.335 501.436C356.888 501.263 356.356 501.079 355.738 500.884C354.651 500.602 353.704 500.256 352.895 499.847C352.108 499.416 351.502 498.901 351.078 498.302C350.654 497.703 350.444 497.008 350.448 496.219C350.452 495.387 350.69 494.652 351.163 494.014C351.656 493.377 352.341 492.879 353.218 492.52C354.094 492.14 355.13 491.953 356.324 491.959C356.943 491.962 357.529 492.018 358.084 492.127C358.638 492.215 359.16 492.356 359.65 492.551C360.161 492.724 360.629 492.961 361.054 493.261C361.501 493.541 361.915 493.873 362.298 494.259L360.526 496.715L360.301 496.97L360.078 496.777C360.057 496.606 360.004 496.446 359.92 496.296C359.857 496.125 359.698 495.922 359.443 495.686C359.018 495.364 358.528 495.127 357.974 494.975C357.441 494.823 356.908 494.746 356.375 494.743C355.65 494.74 355.02 494.854 354.485 495.086C353.972 495.318 353.715 495.68 353.712 496.171C353.711 496.448 353.827 496.704 354.061 496.94C354.294 497.155 354.677 497.37 355.21 497.586C355.763 497.78 356.488 497.997 357.383 498.236C358.576 498.562 359.545 498.94 360.289 499.37C361.055 499.779 361.608 500.272 361.946 500.85C362.306 501.427 362.484 502.1 362.481 502.868C362.477 503.7 362.238 504.478 361.766 505.201C361.293 505.924 360.597 506.497 359.677 506.919C358.779 507.341 357.658 507.549 356.314 507.543ZM366.716 507.24L366.729 504.392L370.377 504.41L370.421 495.226L366.965 495.209L366.979 492.361L374.082 492.395L374.025 504.427L377.353 504.443L377.34 507.291L366.716 507.24ZM372.11 489.922C371.492 489.919 370.959 489.703 370.513 489.274C370.067 488.845 369.846 488.332 369.849 487.735C369.852 487.095 370.067 486.573 370.496 486.17C370.925 485.767 371.47 485.567 372.131 485.57C372.728 485.573 373.25 485.788 373.696 486.217C374.163 486.646 374.395 487.159 374.393 487.757C374.39 488.354 374.153 488.865 373.681 489.289C373.231 489.714 372.708 489.925 372.11 489.922ZM381.788 507.312L381.858 492.432L385.474 492.449L385.465 494.497C385.83 494.03 386.226 493.616 386.655 493.255C387.083 492.894 387.554 492.619 388.066 492.43C388.601 492.219 389.167 492.115 389.764 492.118C390.639 492.122 391.438 492.339 392.161 492.769C392.884 493.178 393.468 493.842 393.911 494.761C394.355 495.681 394.573 496.887 394.566 498.381L394.524 507.372L390.908 507.355L390.95 498.427C390.954 497.595 390.872 496.923 390.704 496.41C390.535 495.897 390.281 495.523 389.941 495.287C389.622 495.029 389.239 494.899 388.791 494.897C388.385 494.895 387.98 494.979 387.574 495.147C387.189 495.295 386.836 495.528 386.514 495.846C386.193 496.165 385.935 496.548 385.741 496.995C385.547 497.42 385.448 497.911 385.446 498.465L385.404 507.329L381.788 507.312ZM403.648 513.144C402.582 513.139 401.633 513.038 400.802 512.842C399.971 512.646 399.268 512.376 398.694 512.032C398.119 511.688 397.673 511.27 397.355 510.778C397.059 510.307 396.912 509.773 396.915 509.176C396.917 508.664 397.048 508.184 397.306 507.738C397.564 507.291 397.907 506.908 398.335 506.591C398.785 506.251 399.266 505.987 399.779 505.797L401.408 506.477C401.13 506.689 400.851 506.901 400.573 507.113C400.316 507.304 400.102 507.516 399.93 507.75C399.779 508.005 399.703 508.304 399.702 508.645C399.7 508.922 399.806 509.168 400.018 509.383C400.23 509.597 400.528 509.769 400.912 509.899C401.295 510.05 401.742 510.159 402.254 510.225C402.766 510.292 403.331 510.326 403.95 510.329C404.76 510.333 405.443 510.262 405.999 510.115C406.554 509.968 406.982 509.757 407.282 509.481C407.582 509.226 407.732 508.929 407.734 508.587C407.735 508.267 407.651 508 407.482 507.786C407.312 507.593 407.003 507.453 406.556 507.366C406.108 507.278 405.479 507.232 404.668 507.229C403.986 507.225 403.314 507.19 402.653 507.123C401.992 507.056 401.363 506.946 400.766 506.794C400.191 506.642 399.68 506.448 399.233 506.211C398.786 505.953 398.436 505.642 398.182 505.278C397.949 504.914 397.833 504.476 397.836 503.964C397.839 503.26 398.045 502.653 398.452 502.143C398.882 501.633 399.396 501.166 399.995 500.742L401.655 501.71C401.44 501.901 401.248 502.06 401.076 502.187C400.926 502.315 400.808 502.442 400.722 502.57C400.637 502.676 400.593 502.836 400.592 503.049C400.591 503.305 400.75 503.519 401.069 503.691C401.41 503.864 401.953 503.994 402.699 504.083C403.467 504.172 404.459 504.22 405.675 504.225C406.635 504.23 407.434 504.34 408.073 504.557C408.712 504.752 409.223 505.042 409.605 505.428C409.987 505.793 410.263 506.22 410.431 506.712C410.621 507.182 410.714 507.684 410.712 508.217C410.709 508.857 410.567 509.465 410.287 510.039C410.007 510.635 409.578 511.167 409 511.633C408.421 512.1 407.684 512.47 406.786 512.743C405.91 513.016 404.864 513.15 403.648 513.144ZM403.411 502.391C402.366 502.386 401.418 502.157 400.567 501.705C399.737 501.253 399.078 500.642 398.591 499.872C398.126 499.08 397.895 498.204 397.9 497.244C397.904 496.284 398.143 495.421 398.616 494.656C399.11 493.869 399.775 493.243 400.609 492.777C401.465 492.312 402.415 492.082 403.46 492.087C404.527 492.092 405.464 492.331 406.273 492.804C407.103 493.277 407.75 493.91 408.216 494.701C408.703 495.472 408.944 496.337 408.94 497.297C408.935 498.257 408.686 499.13 408.191 499.917C407.718 500.683 407.065 501.288 406.231 501.732C405.418 502.176 404.478 502.396 403.411 502.391ZM403.392 499.766C403.861 499.769 404.278 499.664 404.641 499.452C405.026 499.241 405.326 498.944 405.542 498.561C405.778 498.178 405.897 497.752 405.9 497.282C405.902 496.813 405.787 496.396 405.554 496.033C405.342 495.669 405.045 495.38 404.662 495.164C404.3 494.949 403.885 494.841 403.415 494.839C402.989 494.836 402.583 494.952 402.198 495.185C401.834 495.396 401.534 495.683 401.297 496.044C401.061 496.406 400.942 496.811 400.94 497.259C400.938 497.707 401.042 498.123 401.254 498.508C401.487 498.893 401.784 499.204 402.145 499.441C402.528 499.656 402.944 499.764 403.392 499.766ZM408.053 495.277L406.685 493.574C407.285 493.086 407.969 492.716 408.739 492.464C409.508 492.211 410.34 492.119 411.236 492.188L411.576 494.685C410.937 494.554 410.307 494.541 409.688 494.644C409.069 494.748 408.524 494.959 408.053 495.277ZM436.025 507.986C433.828 507.975 432.135 507.316 430.946 506.009C429.779 504.681 429.201 502.865 429.212 500.561L429.274 487.601L432.858 487.618L433.146 487.62L433.144 487.908C433.037 488.035 432.962 488.173 432.918 488.323C432.896 488.472 432.885 488.728 432.883 489.09L432.828 500.61C432.822 501.976 433.051 503.054 433.517 503.846C434.004 504.637 434.855 505.036 436.071 505.042C437.308 505.048 438.174 504.657 438.669 503.87C439.163 503.062 439.414 501.954 439.421 500.546L439.482 487.65L443.002 487.666L442.941 500.53C442.933 502.237 442.638 503.644 442.057 504.75C441.475 505.857 440.661 506.674 439.613 507.203C438.586 507.731 437.39 507.992 436.025 507.986ZM444.955 507.612L450.219 497.461L445.114 487.676L448.826 487.694L452.154 494.27L455.45 487.726L458.97 487.742L454.123 497.447L459.515 507.681L455.675 507.663L452.156 500.766L448.667 507.63L444.955 507.612ZM484.025 508.213C481.827 508.203 480.134 507.544 478.946 506.237C477.779 504.909 477.201 503.093 477.212 500.789L477.273 487.829L480.857 487.846L481.145 487.848L481.144 488.136C481.037 488.263 480.961 488.401 480.918 488.55C480.896 488.7 480.884 488.956 480.882 489.318L480.828 500.838C480.821 502.203 481.051 503.282 481.516 504.073C482.003 504.865 482.855 505.264 484.071 505.27C485.308 505.275 486.174 504.885 486.668 504.098C487.163 503.29 487.413 502.181 487.42 500.773L487.481 487.878L491.001 487.894L490.94 500.758C490.932 502.465 490.637 503.871 490.056 504.978C489.475 506.085 488.66 506.902 487.612 507.43C486.586 507.959 485.39 508.22 484.025 508.213ZM494.266 507.846L494.28 504.934L498.184 504.953L498.251 490.841L494.571 490.823L494.585 487.911L505.593 487.964L505.579 490.876L501.675 490.857L501.608 504.969L505.672 504.988L505.658 507.9L494.266 507.846Z" fill="#303030"/>
<defs>
<filter id="filter0_d_287_54" x="0.094738" y="1.09473" width="562.81" height="556.051" filterUnits="userSpaceOnUse" color-interpolation-filters="sRGB">
<feFlood flood-opacity="0" result="BackgroundImageFix"/>
<feColorMatrix in="SourceAlpha" type="matrix" values="0 0 0 0 0 0 0 0 0 0 0 0 0 0 0 0 0 0 127 0" result="hardAlpha"/>
<feOffset dy="4"/>
<feGaussianBlur stdDeviation="2"/>
<feComposite in2="hardAlpha" operator="out"/>
<feColorMatrix type="matrix" values="0 0 0 0 0 0 0 0 0 0 0 0 0 0 0 0 0 0 0.4 0"/>
<feBlend mode="normal" in2="BackgroundImageFix" result="effect1_dropShadow_287_54"/>
<feBlend mode="normal" in="SourceGraphic" in2="effect1_dropShadow_287_54" result="shape"/>
</filter>
<linearGradient id="paint0_linear_287_54" x1="281.798" y1="0" x2="281.798" y2="422.708" gradientUnits="userSpaceOnUse">
<stop stop-color="#08A882"/>
<stop offset="0.694595" stop-color="#08A882" stop-opacity="0.487614"/>
<stop offset="1" stop-color="#08A882" stop-opacity="0"/>
</linearGradient>
</defs>
</svg>
