<svg width="555" height="549" viewBox="0 0 555 549" fill="none" xmlns="http://www.w3.org/2000/svg">
<rect x="2.59088" width="552.415" height="545.623" rx="20" transform="rotate(0.272069 2.59088 0)" fill="#D9D9D9"/>
<ellipse cx="92.3557" cy="274.74" rx="36.0271" ry="30.4789" transform="rotate(0.272069 92.3557 274.74)" fill="#D9D9D9"/>
<path d="M2.07104 21.4202C2.07104 10.3745 11.0253 1.42017 22.071 1.42017L534.071 1.42017C545.117 1.42017 554.071 10.3745 554.071 21.4202V396.999C554.071 408.045 545.117 416.999 534.071 416.999H22.071C11.0253 416.999 2.07104 408.045 2.07104 396.999V21.4202Z" fill="url(#paint0_linear_119_20)"/>
<path d="M479.922 234.3L304.938 231.984C301.623 231.94 298.461 230.588 296.148 228.225C293.835 225.861 292.56 222.681 292.603 219.382L294.03 111.6C294.074 108.302 295.432 105.156 297.807 102.855C300.182 100.553 303.379 99.2853 306.694 99.3292L319.193 99.4946L319.083 107.786L306.584 107.62C305.479 107.606 304.413 108.028 303.622 108.795C302.83 109.562 302.377 110.611 302.363 111.71L300.936 219.493C300.921 220.592 301.346 221.652 302.118 222.44C302.889 223.228 303.943 223.679 305.047 223.693L480.032 226.009C481.137 226.024 482.203 225.601 482.994 224.834C483.786 224.067 484.239 223.019 484.253 221.919L485.68 114.137C485.695 113.037 485.27 111.977 484.498 111.189C483.727 110.402 482.674 109.951 481.569 109.936L427.407 109.219L427.516 100.928L481.678 101.645C484.993 101.689 488.155 103.042 490.468 105.405C492.781 107.768 494.056 110.949 494.013 114.247L492.586 222.029C492.542 225.328 491.184 228.474 488.809 230.775C486.434 233.076 483.237 234.344 479.922 234.3Z" fill="#303030"/>
<path d="M354.988 228.501L363.321 228.611L363.101 245.193L354.769 245.082L354.988 228.501Z" fill="#303030"/>
<path d="M346.217 261.554L337.884 261.444L337.994 253.153C338.037 249.854 339.396 246.709 341.771 244.407C344.146 242.106 347.342 240.838 350.657 240.882L392.32 241.433L392.211 249.724L350.548 249.173C349.443 249.158 348.377 249.581 347.585 250.348C346.794 251.115 346.341 252.164 346.326 253.263L346.217 261.554ZM421.649 229.383L429.982 229.493L429.762 246.075L421.43 245.965L421.649 229.383Z" fill="#303030"/>
<path d="M446.208 262.878L437.875 262.767L437.985 254.476C438 253.377 437.575 252.317 436.804 251.529C436.033 250.741 434.979 250.29 433.874 250.276L413.042 250L413.152 241.709L433.983 241.985C437.298 242.029 440.46 243.381 442.773 245.744C445.086 248.108 446.361 251.288 446.318 254.587L446.208 262.878Z" fill="#303030"/>
<path d="M329.606 257.188L454.595 258.842L454.486 267.133L329.497 265.479L329.606 257.188ZM297.154 190.419L351.316 191.136L351.206 199.427L297.044 198.71L297.154 190.419ZM467.972 192.68L488.804 192.956L488.694 201.247L467.862 200.971L467.972 192.68ZM351.645 166.263L326.647 165.932C323.332 165.889 320.17 164.536 317.857 162.173C315.544 159.81 314.269 156.629 314.313 153.331L315.301 78.7121C315.344 75.4138 316.703 72.268 319.078 69.9667C321.453 67.6655 324.649 66.3973 327.964 66.4412L419.623 67.6544C422.938 67.6983 426.099 69.0506 428.413 71.4139C430.726 73.7772 432.001 76.9579 431.957 80.2562L431.353 125.856L423.021 125.746L423.624 80.146C423.639 79.0465 423.214 77.9863 422.443 77.1985C421.672 76.4107 420.618 75.96 419.513 75.9453L327.854 74.7321C326.749 74.7175 325.684 75.1402 324.892 75.9073C324.101 76.6744 323.648 77.723 323.633 78.8224L322.645 153.441C322.631 154.54 323.056 155.601 323.827 156.388C324.598 157.176 325.652 157.627 326.757 157.642L351.755 157.972L351.645 166.263Z" fill="#303030"/>
<path d="M459.365 213.297L359.374 211.974C356.059 211.93 352.897 210.578 350.584 208.214C348.271 205.851 346.996 202.67 347.04 199.372L347.918 133.044C347.961 129.746 349.32 126.6 351.695 124.299C354.07 121.998 357.266 120.73 360.581 120.773L460.572 122.097C463.887 122.141 467.049 123.493 469.362 125.856C471.675 128.22 472.95 131.4 472.907 134.699L472.029 201.026C471.985 204.325 470.626 207.471 468.252 209.772C465.877 212.073 462.68 213.341 459.365 213.297ZM360.471 129.064C359.366 129.05 358.301 129.472 357.509 130.24C356.718 131.007 356.265 132.055 356.25 133.155L355.372 199.482C355.358 200.582 355.783 201.642 356.554 202.43C357.325 203.217 358.379 203.668 359.484 203.683L459.475 205.006C460.58 205.021 461.645 204.598 462.437 203.831C463.229 203.064 463.682 202.016 463.696 200.916L464.574 134.589C464.589 133.489 464.164 132.429 463.393 131.641C462.622 130.853 461.568 130.403 460.463 130.388L360.471 129.064Z" fill="#303030"/>
<path d="M351.919 145.536L468.576 147.08L468.466 155.371L351.81 153.827L351.919 145.536ZM364.583 133.265L372.915 133.375L372.806 141.666L364.473 141.556L364.583 133.265ZM381.248 133.486L389.581 133.596L389.471 141.887L381.138 141.777L381.248 133.486ZM397.913 133.706L406.246 133.816L406.136 142.107L397.804 141.997L397.913 133.706ZM331.966 78.9327L340.298 79.043L340.189 87.334L331.856 87.2237L331.966 78.9327ZM348.631 79.1533L356.964 79.2636L356.854 87.5546L348.521 87.4443L348.631 79.1533ZM365.296 79.3739L373.629 79.4842L373.519 87.7751L365.186 87.6648L365.296 79.3739ZM319.302 91.2037L427.626 92.6375L427.516 100.928L319.193 99.4946L319.302 91.2037ZM364.144 166.429L372.477 166.539L372.367 174.83L364.034 174.72L364.144 166.429ZM380.809 166.649L439.137 167.421L439.028 175.712L380.699 174.94L380.809 166.649ZM388.922 183.342L397.255 183.452L397.145 191.743L388.812 191.632L388.922 183.342ZM363.924 183.011L380.59 183.231L380.48 191.522L363.815 191.302L363.924 183.011ZM405.587 183.562L455.583 184.224L455.473 192.515L405.478 191.853L405.587 183.562ZM447.47 167.532L455.803 167.642L455.693 175.933L447.36 175.823L447.47 167.532ZM339.64 128.789L331.307 128.678L331.527 112.096C331.541 110.997 331.994 109.948 332.786 109.181C333.578 108.414 334.643 107.992 335.748 108.006L352.413 108.227L352.303 116.518L339.805 116.352L339.64 128.789ZM309.433 207.167L317.766 207.277L317.656 215.568L309.324 215.458L309.433 207.167ZM326.098 207.387L334.431 207.497L334.321 215.788L325.989 215.678L326.098 207.387Z" fill="#303030"/>
<path d="M202.057 229.604L231.458 201.545L202.81 172.717L202.65 184.818L171.321 183.146L170.855 218.346L202.217 217.503L202.057 229.604Z" fill="#08A882"/>
<path d="M173.291 211.09C173.285 210.854 173.325 210.619 173.409 210.399C173.494 210.178 173.621 209.977 173.783 209.806C173.945 209.634 174.14 209.497 174.355 209.401C174.571 209.304 174.803 209.252 175.039 209.245L176.745 209.2C177.221 209.187 177.683 209.364 178.029 209.692C178.375 210.02 178.576 210.471 178.589 210.948C178.602 211.424 178.425 211.886 178.097 212.232C177.769 212.578 177.317 212.779 176.841 212.792L175.135 212.838C174.899 212.844 174.665 212.804 174.444 212.72C174.224 212.635 174.022 212.508 173.851 212.346C173.68 212.183 173.542 211.989 173.446 211.773C173.35 211.558 173.297 211.326 173.291 211.09ZM182.182 210.852C182.175 210.616 182.215 210.381 182.3 210.161C182.384 209.94 182.511 209.739 182.674 209.567C182.836 209.396 183.03 209.258 183.246 209.162C183.461 209.066 183.694 209.014 183.93 209.007L199.018 208.602C199.494 208.592 199.954 208.77 200.3 209.097C200.645 209.424 200.847 209.875 200.862 210.351C200.869 210.586 200.828 210.821 200.744 211.042C200.659 211.262 200.532 211.464 200.37 211.635C200.208 211.806 200.013 211.944 199.798 212.04C199.582 212.136 199.35 212.189 199.114 212.195L184.026 212.6C183.79 212.606 183.555 212.566 183.335 212.481C183.114 212.397 182.913 212.27 182.742 212.108C182.57 211.945 182.433 211.751 182.337 211.535C182.241 211.32 182.188 211.087 182.182 210.852ZM207.014 214.938C206.685 214.593 206.507 214.132 206.518 213.655C206.529 213.179 206.729 212.726 207.074 212.397L218.623 201.375L213.955 196.679C213.631 196.338 213.452 195.884 213.459 195.414C213.465 194.944 213.656 194.495 213.989 194.163C214.323 193.832 214.773 193.644 215.243 193.641C215.713 193.637 216.166 193.818 216.505 194.145L222.464 200.142C222.632 200.311 222.765 200.513 222.855 200.734C222.944 200.956 222.989 201.193 222.986 201.432C222.983 201.671 222.932 201.907 222.836 202.126C222.741 202.345 222.603 202.543 222.43 202.708L209.554 214.997C209.21 215.326 208.749 215.505 208.272 215.494C207.796 215.483 207.343 215.283 207.014 214.938ZM208.889 191.58L207.369 190.05C207.044 189.71 206.866 189.256 206.872 188.786C206.879 188.316 207.069 187.867 207.403 187.535C207.736 187.204 208.186 187.016 208.657 187.012C209.127 187.009 209.58 187.19 209.918 187.517L211.438 189.046C211.763 189.387 211.941 189.841 211.935 190.311C211.928 190.781 211.738 191.23 211.404 191.562C211.071 191.893 210.621 192.081 210.15 192.084C209.68 192.088 209.227 191.907 208.889 191.58Z" fill="#76FFBA"/>
<path d="M86.844 295.345L58.1963 266.519L87.597 238.459L87.4368 250.559L118.799 249.717L118.333 284.918L87.0042 283.246L86.844 295.345Z" fill="#FF8600"/>
<path d="M113.838 279.277C113.813 279.277 113.789 279.277 113.764 279.275L112.496 279.207C112.261 279.194 112.03 279.136 111.817 279.034C111.604 278.932 111.413 278.789 111.256 278.614C111.098 278.438 110.976 278.233 110.898 278.011C110.819 277.788 110.785 277.553 110.798 277.317C110.85 276.326 111.712 275.56 112.688 275.618L113.955 275.686C114.425 275.711 114.866 275.919 115.184 276.266C115.502 276.612 115.671 277.069 115.656 277.539C115.64 278.009 115.441 278.455 115.101 278.779C114.761 279.104 114.308 279.283 113.838 279.277ZM105.392 278.827C105.368 278.827 105.344 278.826 105.319 278.824L90.2469 278.02C90.0113 278.008 89.7804 277.949 89.5675 277.847C89.3546 277.745 89.1639 277.603 89.0061 277.427C88.8484 277.252 88.7268 277.047 88.6482 276.824C88.5696 276.602 88.5356 276.366 88.5482 276.13C88.576 275.655 88.7901 275.211 89.1439 274.893C89.4978 274.574 89.9629 274.409 90.4382 274.432L105.51 275.236C105.98 275.261 106.421 275.469 106.739 275.815C107.057 276.162 107.226 276.619 107.211 277.089C107.195 277.559 106.996 278.004 106.656 278.329C106.316 278.654 105.863 278.833 105.392 278.827ZM79.7353 280.545L67.1895 267.92C67.0211 267.75 66.8883 267.549 66.7987 267.327C66.7091 267.106 66.6645 266.869 66.6677 266.63C66.6709 266.391 66.7216 266.155 66.8171 265.936C66.9125 265.716 67.0507 265.519 67.2235 265.354L73.3395 259.516C73.6864 259.199 74.1439 259.03 74.6139 259.046C75.084 259.062 75.529 259.261 75.8537 259.602C76.1783 259.942 76.3567 260.396 76.3506 260.866C76.3445 261.336 76.1543 261.785 75.8209 262.117L71.0306 266.688L82.284 278.012C82.4542 278.179 82.5896 278.377 82.6824 278.596C82.7752 278.816 82.8234 279.051 82.8244 279.289C82.8253 279.527 82.7789 279.763 82.6879 279.983C82.5969 280.203 82.4631 280.403 82.2942 280.571C82.1253 280.739 81.9248 280.871 81.7042 280.961C81.4836 281.051 81.2475 281.096 81.0094 281.093C80.7713 281.091 80.5361 281.041 80.3173 280.947C80.0986 280.853 79.9008 280.716 79.7353 280.545ZM78.4802 257.095C78.1512 256.75 77.9727 256.289 77.9838 255.812C77.995 255.336 78.1949 254.883 78.5397 254.554L80.0998 253.065C80.4467 252.748 80.9042 252.579 81.3742 252.595C81.8442 252.611 82.2893 252.81 82.614 253.151C82.9386 253.491 83.117 253.945 83.1109 254.415C83.1048 254.885 82.9146 255.334 82.5812 255.666L81.0211 257.155C80.6761 257.484 80.2147 257.662 79.7383 257.651C79.2619 257.64 78.8094 257.44 78.4802 257.095Z" fill="#FFCBC2"/>
<path d="M59.1855 191.839C58.1937 191.826 57.3781 192.627 57.365 193.612C57.3587 194.089 57.542 194.548 57.8745 194.889C58.2069 195.231 58.6614 195.426 59.138 195.433L70.292 195.58C70.7685 195.586 71.228 195.403 71.5694 195.071C71.9108 194.738 72.1062 194.284 72.1125 193.807C72.1255 192.823 71.3313 192 70.3395 191.987L66.5593 191.937L66.7569 177.002C66.7747 175.658 65.3608 174.792 64.1765 175.365L58.8952 177.933C58.6823 178.035 58.4916 178.178 58.3342 178.354C58.1768 178.53 58.0557 178.735 57.9779 178.958C57.9001 179.18 57.8672 179.416 57.881 179.652C57.8948 179.888 57.9551 180.118 58.0584 180.33C58.4782 181.198 59.5872 181.587 60.4625 181.167L63.1249 179.873L62.9658 191.889L59.1855 191.839ZM64.3446 223.485C68.4052 223.539 71.7621 220.276 71.8159 216.216L71.8897 210.639C71.9435 206.571 68.6741 203.221 64.6136 203.168C60.5458 203.114 57.1961 206.376 57.1422 210.444L57.0684 216.021C57.0147 220.081 60.2769 223.431 64.3446 223.485ZM60.7357 210.491C60.7633 208.407 62.4818 206.733 64.5661 206.754C66.643 206.788 68.3167 208.507 68.2963 210.591L68.2224 216.168C68.1878 218.245 66.4692 219.919 64.3922 219.891C62.308 219.864 60.6344 218.145 60.6618 216.068L60.7357 210.491ZM87.4836 220.197C86.4918 220.184 85.6761 220.985 85.6631 221.97C85.6568 222.446 85.8401 222.906 86.1725 223.247C86.505 223.589 86.9595 223.784 87.4361 223.79L98.5901 223.938C99.0666 223.944 99.5261 223.761 99.8675 223.429C100.209 223.096 100.404 222.642 100.411 222.165C100.424 221.181 99.6294 220.358 98.6376 220.345L94.8573 220.295L95.0549 205.367C95.0728 204.015 93.661 203.149 92.4746 203.723L87.1934 206.284C86.9805 206.387 86.7899 206.531 86.6326 206.707C86.4753 206.884 86.3543 207.089 86.2766 207.313C86.1989 207.536 86.1659 207.772 86.1796 208.008C86.1933 208.244 86.2534 208.476 86.3565 208.688C86.7763 209.556 87.8853 209.945 88.7607 209.518L91.423 208.231L91.2639 220.247L87.4836 220.197ZM93.6523 175.569C89.5846 175.515 86.2348 178.777 86.1811 182.837L86.1073 188.414C86.0534 192.482 89.3156 195.832 93.3834 195.886C97.4512 195.94 100.801 192.677 100.855 188.61L100.929 183.033C100.982 178.972 97.7201 175.622 93.6523 175.569ZM97.2613 188.562C97.2265 190.646 95.508 192.32 93.431 192.292C91.3468 192.265 89.6731 190.546 89.7007 188.462L89.7745 182.885C89.802 180.808 91.5206 179.134 93.6049 179.155C95.6818 179.189 97.3554 180.908 97.3351 182.985L97.2613 188.562ZM156.998 224.711C157.982 224.724 158.805 223.93 158.818 222.938C158.831 221.954 158.03 221.131 157.045 221.118L153.265 221.068L153.463 206.141C153.48 204.795 152.074 203.924 150.875 204.496L145.594 207.057C145.166 207.267 144.838 207.637 144.683 208.088C144.527 208.539 144.557 209.032 144.764 209.461C145.184 210.33 146.293 210.718 147.168 210.298L149.831 209.004L149.672 221.02L145.891 220.97C144.9 220.957 144.084 221.758 144.071 222.743C144.065 223.22 144.248 223.679 144.58 224.021C144.913 224.362 145.367 224.557 145.844 224.564L156.998 224.711ZM144.589 183.618L144.515 189.188C144.461 193.255 147.723 196.605 151.791 196.659C155.852 196.713 159.209 193.451 159.262 189.383L159.336 183.813C159.39 179.745 156.121 176.395 152.06 176.342C147.992 176.288 144.643 179.55 144.589 183.618ZM155.743 183.765L155.669 189.335C155.634 191.419 153.916 193.093 151.839 193.065C149.754 193.038 148.081 191.319 148.108 189.235L148.182 183.665C148.21 181.581 149.928 179.907 152.013 179.928C154.089 179.963 155.763 181.681 155.743 183.765ZM127.676 192.746L123.896 192.696L124.094 177.768C124.111 176.43 122.708 175.546 121.513 176.124L116.225 178.692C116.013 178.795 115.823 178.938 115.666 179.114C115.509 179.29 115.389 179.496 115.312 179.718C115.235 179.941 115.202 180.177 115.217 180.412C115.231 180.647 115.292 180.878 115.395 181.089C115.815 181.957 116.924 182.346 117.799 181.919L120.462 180.632L120.303 192.648L116.522 192.598C116.045 192.594 115.586 192.778 115.244 193.112C114.903 193.446 114.708 193.901 114.702 194.378C114.689 195.363 115.483 196.178 116.475 196.191L127.629 196.339C128.621 196.352 129.436 195.558 129.449 194.573C129.456 194.096 129.273 193.636 128.94 193.293C128.608 192.951 128.154 192.754 127.676 192.746ZM129.227 211.398C129.28 207.33 126.011 203.98 121.95 203.926C117.883 203.873 114.533 207.135 114.479 211.203L114.405 216.78C114.352 220.84 117.614 224.19 121.681 224.244C125.742 224.297 129.099 221.035 129.153 216.975L129.227 211.398ZM125.559 216.927C125.525 219.004 123.806 220.678 121.729 220.65C119.645 220.623 117.971 218.904 117.999 216.827L118.073 211.25C118.1 209.166 119.819 207.492 121.903 207.513C123.98 207.547 125.654 209.266 125.633 211.35L125.559 216.927ZM169.525 183.049C169.501 183.525 169.666 183.991 169.985 184.346C170.303 184.7 170.749 184.914 171.225 184.941C171.348 184.947 181.273 185.476 181.396 185.478C182.359 185.491 183.16 184.746 183.208 183.777C183.266 182.808 182.508 181.936 181.508 181.892L171.416 181.349C170.432 181.293 169.581 182.058 169.525 183.049ZM201.016 172.691L200.881 182.925L195.867 182.658C194.876 182.594 194.025 183.366 193.976 184.358C193.963 184.593 193.998 184.829 194.076 185.051C194.155 185.273 194.277 185.477 194.435 185.653C194.593 185.828 194.784 185.97 194.997 186.071C195.21 186.172 195.44 186.23 195.676 186.242L202.557 186.613C202.799 186.625 203.04 186.588 203.267 186.505C203.494 186.421 203.702 186.293 203.878 186.128C204.055 185.963 204.196 185.764 204.295 185.543C204.393 185.322 204.445 185.083 204.45 184.841L204.553 177.015L228.891 201.511L203.913 225.354L204.017 217.527C204.019 217.285 203.973 217.046 203.88 216.822C203.788 216.599 203.652 216.396 203.48 216.226C203.308 216.056 203.103 215.923 202.879 215.833C202.654 215.744 202.414 215.701 202.172 215.706L170.806 216.549C170.33 216.563 169.879 216.765 169.551 217.111C169.223 217.457 169.046 217.918 169.057 218.394C169.087 219.387 169.917 220.174 170.903 220.144L200.399 219.348L200.263 229.582C200.243 231.142 202.109 232.014 203.301 230.902L232.698 202.848C233.427 202.152 233.438 200.976 232.732 200.282L204.088 171.452C202.962 170.329 201.037 171.104 201.016 172.691ZM186.8 183.968C186.786 184.21 186.821 184.453 186.903 184.681C186.985 184.909 187.113 185.118 187.279 185.295C187.445 185.472 187.645 185.614 187.867 185.711C188.09 185.808 188.329 185.859 188.572 185.86C189.535 185.873 190.336 185.129 190.384 184.159C190.397 183.924 190.362 183.688 190.284 183.466C190.205 183.244 190.083 183.039 189.925 182.864C189.767 182.689 189.576 182.547 189.363 182.446C189.15 182.345 188.92 182.287 188.684 182.275C187.707 182.212 186.849 182.984 186.8 183.968ZM137.426 243.601L132.145 246.162C131.717 246.372 131.389 246.743 131.234 247.193C131.078 247.644 131.107 248.137 131.315 248.566C131.735 249.435 132.844 249.823 133.712 249.396L136.374 248.109L136.215 260.132L132.435 260.082C131.958 260.076 131.499 260.259 131.158 260.592C130.816 260.924 130.621 261.379 130.614 261.855C130.601 262.84 131.396 263.655 132.388 263.669L143.542 263.816C144.533 263.829 145.349 263.035 145.362 262.05C145.368 261.574 145.185 261.114 144.853 260.773C144.52 260.432 144.066 260.236 143.589 260.23L139.809 260.18L140.006 245.246C140.024 243.882 138.607 243.03 137.426 243.601ZM145.066 284.445L145.139 278.875C145.193 274.807 141.931 271.457 137.863 271.404C133.803 271.35 130.453 274.612 130.392 278.68L130.318 284.25C130.271 288.317 133.534 291.667 137.594 291.721C141.662 291.775 145.012 288.513 145.066 284.445ZM141.472 284.397C141.444 286.481 139.726 288.155 137.642 288.135C135.565 288.1 133.891 286.381 133.911 284.297L133.985 278.727C134.02 276.643 135.739 274.97 137.816 274.99C139.9 275.025 141.573 276.743 141.546 278.827L141.472 284.397ZM173.66 290.401C173.673 289.417 172.879 288.594 171.887 288.581L168.107 288.531L168.304 273.604C168.323 272.239 166.905 271.388 165.724 271.959L160.443 274.527C160.231 274.63 160.041 274.773 159.884 274.949C159.727 275.125 159.607 275.331 159.53 275.553C159.453 275.776 159.42 276.012 159.435 276.247C159.449 276.483 159.51 276.713 159.613 276.924C160.033 277.793 161.135 278.181 162.01 277.761L164.673 276.467L164.513 288.483L160.733 288.433C159.741 288.42 158.926 289.221 158.913 290.206C158.906 290.683 159.089 291.143 159.422 291.486C159.754 291.829 160.208 292.026 160.686 292.034L171.84 292.181C172.831 292.194 173.647 291.393 173.66 290.401ZM159.431 251.074L159.357 256.651C159.303 260.718 162.572 264.068 166.633 264.122C170.701 264.176 174.05 260.914 174.104 256.846L174.178 251.269C174.232 247.208 170.97 243.858 166.902 243.805C162.841 243.751 159.484 247.013 159.431 251.074ZM170.585 251.221L170.511 256.798C170.483 258.882 168.765 260.556 166.68 260.536C164.604 260.501 162.93 258.782 162.95 256.698L163.024 251.121C163.059 249.044 164.777 247.371 166.854 247.398C168.939 247.426 170.612 249.144 170.585 251.221ZM219.141 289.213C218.149 289.2 217.333 289.995 217.32 290.979C217.314 291.456 217.497 291.917 217.829 292.259C218.162 292.602 218.616 292.799 219.093 292.807L230.247 292.954C231.239 292.968 232.055 292.166 232.068 291.174C232.081 290.19 231.287 289.374 230.295 289.361L226.515 289.311L226.712 274.377C226.73 273.026 225.32 272.158 224.132 272.732L218.851 275.293C218.423 275.503 218.095 275.874 217.939 276.324C217.784 276.775 217.813 277.269 218.021 277.698C218.441 278.566 219.543 278.954 220.418 278.534L223.08 277.24L222.921 289.263L219.141 289.213ZM232.586 252.042C232.64 247.981 229.377 244.632 225.31 244.578C221.242 244.524 217.892 247.786 217.838 251.847L217.764 257.431C217.711 261.491 220.973 264.841 225.041 264.895C229.108 264.949 232.458 261.687 232.512 257.626L232.586 252.042ZM228.918 257.578C228.891 259.655 227.172 261.329 225.088 261.302C223.011 261.274 221.338 259.555 221.358 257.478L221.432 251.894C221.451 250.894 221.864 249.941 222.581 249.243C223.298 248.544 224.261 248.157 225.262 248.164C227.346 248.199 229.02 249.917 228.992 251.994L228.918 257.578ZM200.926 260.989L197.146 260.939L197.343 246.005C197.361 244.64 195.944 243.789 194.763 244.36L189.482 246.928C188.619 247.332 188.206 248.404 188.652 249.325C189.072 250.194 190.174 250.582 191.049 250.162L193.711 248.868L193.552 260.891L189.772 260.841C188.78 260.828 187.964 261.622 187.951 262.607C187.945 263.084 188.128 263.544 188.46 263.887C188.793 264.23 189.247 264.426 189.724 264.435L200.878 264.582C201.87 264.595 202.686 263.794 202.699 262.802C202.712 261.818 201.918 261.002 200.926 260.989ZM202.476 279.634C202.53 275.566 199.268 272.216 195.2 272.163C191.139 272.109 187.782 275.371 187.729 279.439L187.655 285.016C187.601 289.076 190.87 292.426 194.931 292.48C198.999 292.534 202.349 289.271 202.402 285.211L202.476 279.634ZM198.809 285.163C198.781 287.24 197.063 288.914 194.979 288.886C192.902 288.859 191.228 287.14 191.248 285.063L191.322 279.486C191.357 277.402 193.075 275.728 195.152 275.756C197.237 275.784 198.91 277.502 198.883 279.586L198.809 285.163ZM99.7659 250.233C99.7891 251.197 100.57 251.969 101.54 251.982C101.561 251.982 101.583 251.975 101.612 251.976C102.587 251.959 103.386 251.125 103.354 250.13C103.349 249.894 103.296 249.661 103.2 249.446C103.105 249.23 102.967 249.035 102.795 248.873C102.623 248.711 102.421 248.585 102.2 248.502C101.979 248.418 101.744 248.379 101.508 248.388C101.272 248.394 101.04 248.446 100.825 248.543C100.609 248.639 100.415 248.777 100.253 248.948C100.091 249.12 99.9649 249.322 99.8813 249.542C99.7976 249.763 99.7584 249.998 99.7659 250.233ZM120.18 285.014C120.223 284.017 119.484 283.181 118.48 283.122L87.1473 281.45C86.9058 281.438 86.6645 281.475 86.4376 281.559C86.2108 281.642 86.0029 281.771 85.8265 281.936C85.65 282.101 85.5085 282.3 85.4103 282.521C85.3122 282.742 85.2593 282.98 85.2549 283.222L85.1513 291.048L60.8131 266.552L85.7911 242.709L85.6875 250.536C85.6741 251.554 86.5129 252.374 87.5324 252.357L94.4211 252.168C95.4226 252.151 96.2016 251.299 96.1706 250.33C96.1665 250.093 96.1153 249.859 96.0199 249.643C95.9246 249.426 95.7869 249.23 95.615 249.067C95.4432 248.904 95.2405 248.777 95.019 248.694C94.7975 248.61 94.5615 248.571 94.3248 248.58L89.3057 248.715L89.4412 238.481C89.4625 236.87 87.5264 236.083 86.4037 237.161L57.0066 265.223C56.2795 265.902 56.2639 267.083 56.9727 267.781L85.6168 296.611C86.749 297.748 88.6673 296.95 88.6881 295.372L88.8236 285.138L118.288 286.714C119.415 286.729 120.128 285.922 120.18 285.014ZM106.949 250.041C106.961 250.504 107.151 250.944 107.481 251.269C107.811 251.594 108.253 251.778 108.716 251.782L108.795 251.783L118.898 251.515C119.134 251.509 119.367 251.456 119.583 251.36C119.799 251.264 119.994 251.127 120.156 250.955C120.319 250.784 120.446 250.582 120.53 250.361C120.615 250.14 120.654 249.905 120.648 249.669C120.642 249.433 120.589 249.2 120.493 248.984C120.397 248.768 120.26 248.573 120.088 248.411C119.917 248.248 119.715 248.121 119.494 248.037C119.273 247.952 119.038 247.912 118.802 247.919L108.699 248.195C108.463 248.201 108.23 248.254 108.014 248.35C107.798 248.446 107.603 248.583 107.441 248.755C107.278 248.926 107.151 249.128 107.067 249.349C106.983 249.57 106.943 249.805 106.949 250.041Z" fill="#303030"/>
<path d="M89.4293 498.016L89.7129 478.082L94.8644 478.156C96.0376 478.172 97.0173 478.293 97.8036 478.517C98.6111 478.742 99.2893 479.061 99.8382 479.475C100.408 479.888 100.913 480.397 101.353 481C101.792 481.604 102.156 482.292 102.443 483.064C102.753 483.815 102.986 484.629 103.145 485.506C103.303 486.383 103.375 487.344 103.36 488.39C103.295 489.903 103.073 491.266 102.693 492.476C102.335 493.666 101.787 494.682 101.05 495.525C100.334 496.369 99.4072 497.017 98.2699 497.47C97.133 497.902 95.7753 498.107 94.1968 498.084L89.4293 498.016ZM92.989 495.251L94.1409 495.267C95.506 495.286 96.598 495.014 97.4168 494.45C98.2572 493.864 98.8662 493.051 99.2437 492.011C99.6212 490.971 99.8092 489.758 99.8076 488.371C99.8285 486.899 99.6867 485.617 99.3822 484.525C99.0991 483.432 98.5778 482.582 97.8184 481.974C97.059 481.366 96.018 481.052 94.6955 481.034L93.1916 481.012L92.989 495.251ZM112.75 498.7C111.683 498.685 110.694 498.5 109.781 498.146C108.89 497.792 108.108 497.29 107.435 496.64C106.783 495.97 106.282 495.152 105.933 494.187C105.584 493.222 105.419 492.131 105.436 490.915C105.454 489.678 105.651 488.571 106.027 487.595C106.404 486.619 106.906 485.794 107.535 485.121C108.184 484.447 108.938 483.946 109.796 483.617C110.655 483.266 111.574 483.098 112.556 483.112C113.43 483.124 114.249 483.285 115.013 483.595C115.777 483.904 116.442 484.373 117.009 484.999C117.598 485.605 118.057 486.369 118.385 487.291C118.713 488.192 118.869 489.24 118.852 490.434C118.849 490.648 118.835 490.903 118.809 491.202C118.805 491.5 118.791 491.756 118.766 491.969L108.911 491.829C108.944 492.533 109.074 493.143 109.301 493.659C109.529 494.153 109.832 494.562 110.212 494.888C110.591 495.213 111.014 495.465 111.481 495.642C111.948 495.798 112.438 495.879 112.95 495.887C113.398 495.893 113.825 495.857 114.232 495.777C114.659 495.698 115.056 495.554 115.422 495.346C115.809 495.138 116.175 494.866 116.522 494.529L118.352 496.348C117.875 496.896 117.335 497.357 116.732 497.733C116.151 498.087 115.518 498.334 114.833 498.474C114.17 498.635 113.475 498.711 112.75 498.7ZM109.014 489.11L115.349 489.2C115.357 488.688 115.288 488.229 115.145 487.821C115.023 487.414 114.836 487.07 114.584 486.789C114.332 486.508 114.014 486.301 113.632 486.167C113.272 486.013 112.846 485.932 112.356 485.925C111.95 485.92 111.555 485.978 111.169 486.1C110.805 486.202 110.472 486.389 110.169 486.662C109.866 486.935 109.616 487.273 109.418 487.676C109.221 488.078 109.086 488.556 109.014 489.11ZM128.364 498.922C127.468 498.91 126.606 498.812 125.776 498.63C124.946 498.468 124.182 498.212 123.483 497.861C122.784 497.488 122.14 497.02 121.551 496.457L123.192 493.536L123.324 493.282L123.578 493.446C123.64 493.596 123.701 493.768 123.762 493.96C123.824 494.132 123.981 494.337 124.234 494.575C124.761 495.031 125.364 495.391 126.043 495.657C126.721 495.923 127.53 496.062 128.469 496.076C129.066 496.084 129.568 496.027 129.975 495.905C130.404 495.762 130.727 495.574 130.944 495.343C131.182 495.09 131.303 494.804 131.308 494.484C131.311 494.228 131.251 494.003 131.125 493.809C131 493.615 130.8 493.442 130.525 493.289C130.25 493.135 129.889 492.981 129.443 492.825C128.998 492.648 128.467 492.459 127.851 492.258C126.767 491.966 125.823 491.611 125.018 491.194C124.235 490.756 123.634 490.236 123.216 489.632C122.798 489.029 122.594 488.333 122.606 487.543C122.617 486.711 122.863 485.979 123.341 485.346C123.841 484.713 124.53 484.221 125.41 483.871C126.29 483.499 127.328 483.322 128.522 483.339C129.141 483.348 129.727 483.41 130.28 483.524C130.833 483.617 131.354 483.763 131.842 483.962C132.351 484.14 132.817 484.382 133.239 484.686C133.683 484.97 134.095 485.307 134.473 485.696L132.678 488.135L132.451 488.388L132.229 488.192C132.21 488.021 132.159 487.861 132.076 487.71C132.015 487.539 131.858 487.334 131.605 487.095C131.183 486.769 130.696 486.528 130.143 486.37C129.612 486.214 129.08 486.131 128.546 486.124C127.821 486.113 127.19 486.222 126.654 486.449C126.138 486.676 125.877 487.035 125.87 487.526C125.866 487.803 125.98 488.061 126.211 488.299C126.443 488.515 126.824 488.734 127.354 488.955C127.906 489.155 128.628 489.379 129.521 489.626C130.711 489.963 131.676 490.35 132.416 490.787C133.179 491.203 133.726 491.702 134.059 492.283C134.414 492.864 134.586 493.538 134.575 494.306C134.563 495.138 134.317 495.913 133.837 496.632C133.358 497.351 132.656 497.917 131.733 498.33C130.831 498.744 129.708 498.942 128.364 498.922ZM144.747 499.156C143.68 499.14 142.691 498.956 141.778 498.601C140.887 498.247 140.105 497.745 139.431 497.096C138.78 496.425 138.279 495.607 137.93 494.642C137.581 493.677 137.415 492.587 137.433 491.371C137.45 490.133 137.647 489.027 138.024 488.051C138.401 487.075 138.903 486.25 139.531 485.576C140.181 484.902 140.935 484.401 141.793 484.072C142.651 483.722 143.571 483.553 144.552 483.567C145.427 483.58 146.246 483.741 147.01 484.05C147.773 484.36 148.439 484.828 149.006 485.455C149.595 486.061 150.053 486.824 150.382 487.747C150.71 488.647 150.866 489.695 150.849 490.89C150.846 491.103 150.832 491.359 150.806 491.657C150.802 491.956 150.787 492.211 150.763 492.424L140.908 492.284C140.941 492.989 141.071 493.599 141.298 494.114C141.526 494.608 141.829 495.018 142.209 495.343C142.588 495.668 143.011 495.92 143.478 496.097C143.945 496.253 144.435 496.335 144.947 496.342C145.395 496.349 145.822 496.312 146.228 496.232C146.656 496.153 147.053 496.009 147.419 495.801C147.806 495.593 148.172 495.321 148.518 494.985L150.349 496.803C149.872 497.351 149.332 497.813 148.729 498.188C148.148 498.543 147.515 498.79 146.83 498.929C146.166 499.09 145.472 499.166 144.747 499.156ZM141.011 489.565L147.346 489.656C147.353 489.144 147.285 488.684 147.142 488.277C147.019 487.869 146.832 487.525 146.58 487.244C146.328 486.964 146.011 486.756 145.629 486.623C145.269 486.468 144.843 486.388 144.352 486.381C143.947 486.375 143.552 486.433 143.166 486.556C142.802 486.657 142.468 486.845 142.166 487.118C141.863 487.391 141.613 487.728 141.415 488.131C141.217 488.534 141.083 489.012 141.011 489.565ZM153.839 498.933L154.05 484.054L157.666 484.106L157.637 486.154C158.006 485.69 158.407 485.279 158.839 484.923C159.27 484.566 159.744 484.295 160.258 484.111C160.795 483.905 161.361 483.806 161.959 483.815C162.833 483.827 163.63 484.052 164.349 484.489C165.069 484.905 165.646 485.574 166.081 486.498C166.516 487.421 166.723 488.63 166.701 490.123L166.573 499.114L162.958 499.063L163.085 490.136C163.097 489.304 163.021 488.631 162.858 488.116C162.694 487.602 162.444 487.225 162.106 486.985C161.789 486.725 161.407 486.591 160.959 486.585C160.554 486.579 160.147 486.659 159.74 486.824C159.354 486.968 158.998 487.197 158.674 487.513C158.349 487.828 158.088 488.208 157.889 488.654C157.691 489.077 157.588 489.567 157.581 490.121L157.454 498.984L153.839 498.933ZM174.605 499.228L169.217 484.27L172.993 484.324L176.649 495.033L176.137 495.026L178.222 490.191C178.641 489.173 178.976 488.175 179.224 487.197C179.494 486.219 179.667 485.294 179.744 484.42L183.136 484.468C183.016 485.405 182.767 486.394 182.389 487.434C182.033 488.474 181.623 489.546 181.159 490.649L177.452 499.269L174.605 499.228ZM192.038 499.797C190.716 499.778 189.515 499.441 188.436 498.785C187.379 498.109 186.55 497.18 185.948 495.998C185.346 494.816 185.056 493.457 185.078 491.921C185.099 490.449 185.427 489.131 186.062 487.966C186.697 486.802 187.553 485.886 188.629 485.219C189.727 484.551 190.937 484.227 192.26 484.246C193.603 484.265 194.804 484.624 195.861 485.322C196.939 486.02 197.779 486.96 198.381 488.142C199.004 489.324 199.305 490.651 199.284 492.123C199.262 493.659 198.923 495.009 198.267 496.173C197.631 497.337 196.765 498.242 195.668 498.888C194.592 499.513 193.382 499.816 192.038 499.797ZM192.079 496.917C192.783 496.927 193.394 496.733 193.912 496.335C194.43 495.916 194.843 495.345 195.152 494.624C195.483 493.882 195.655 493.031 195.669 492.071C195.683 491.069 195.535 490.203 195.226 489.473C194.937 488.743 194.54 488.183 194.033 487.792C193.527 487.379 192.922 487.168 192.218 487.158C191.578 487.149 190.989 487.343 190.45 487.741C189.932 488.117 189.508 488.666 189.178 489.387C188.869 490.108 188.708 490.97 188.693 491.972C188.68 492.932 188.817 493.787 189.105 494.538C189.393 495.268 189.79 495.85 190.296 496.283C190.824 496.696 191.418 496.907 192.079 496.917ZM202.09 499.62L202.13 496.772L206.322 496.832L206.546 481.057L202.547 481L202.587 478.153L210.235 478.261L209.97 496.883L214.129 496.943L214.089 499.79L202.09 499.62ZM222.6 499.911L217.212 484.953L220.988 485.007L224.644 495.716L224.132 495.709L226.217 490.874C226.637 489.856 226.971 488.858 227.219 487.88C227.489 486.902 227.663 485.977 227.739 485.103L231.131 485.151C231.011 486.088 230.762 487.077 230.384 488.117C230.028 489.157 229.618 490.229 229.155 491.332L225.447 499.952L222.6 499.911ZM234.759 500.085L234.799 497.237L238.447 497.289L238.577 488.106L235.122 488.056L235.162 485.209L242.266 485.31L242.094 497.341L245.422 497.388L245.381 500.236L234.759 500.085ZM240.317 482.818C239.698 482.809 239.168 482.588 238.726 482.155C238.284 481.722 238.068 481.207 238.076 480.61C238.085 479.97 238.306 479.45 238.738 479.051C239.171 478.652 239.717 478.457 240.379 478.466C240.976 478.475 241.496 478.696 241.937 479.129C242.401 479.562 242.628 480.077 242.62 480.674C242.611 481.272 242.369 481.78 241.894 482.2C241.44 482.62 240.914 482.826 240.317 482.818ZM249.029 500.288L249.241 485.409L252.281 485.452L252.265 486.54C252.526 486.203 252.796 485.929 253.077 485.72C253.357 485.51 253.647 485.365 253.947 485.284C254.269 485.182 254.579 485.133 254.877 485.137C255.24 485.142 255.58 485.211 255.898 485.344C256.217 485.455 256.502 485.651 256.754 485.932C257.028 486.192 257.236 486.536 257.38 486.965C257.62 486.563 257.891 486.236 258.194 485.985C258.496 485.712 258.84 485.514 259.226 485.391C259.633 485.269 260.071 485.211 260.541 485.218C261.095 485.226 261.563 485.328 261.944 485.526C262.326 485.723 262.631 486.005 262.861 486.371C263.111 486.737 263.286 487.188 263.385 487.723C263.484 488.257 263.529 488.855 263.52 489.517L263.364 500.492L260.228 500.447L260.373 490.24C260.382 489.6 260.357 489.109 260.298 488.767C260.239 488.403 260.147 488.157 260.021 488.027C259.895 487.876 259.725 487.799 259.512 487.796C259.235 487.792 258.966 487.926 258.706 488.2C258.446 488.452 258.228 488.812 258.051 489.279C257.895 489.725 257.813 490.257 257.804 490.876L257.668 500.411L254.725 500.369L254.868 490.258C254.883 489.234 254.818 488.55 254.674 488.207C254.529 487.863 254.254 487.689 253.849 487.683C253.657 487.68 253.464 487.741 253.27 487.867C253.098 487.992 252.935 488.182 252.782 488.436C252.651 488.669 252.54 488.976 252.449 489.359C252.358 489.721 252.31 490.136 252.303 490.605L252.165 500.332L249.029 500.288ZM272.734 500.977C271.667 500.962 270.678 500.777 269.765 500.423C268.874 500.069 268.092 499.567 267.418 498.917C266.767 498.246 266.266 497.429 265.917 496.464C265.568 495.498 265.402 494.408 265.42 493.192C265.437 491.955 265.634 490.848 266.011 489.872C266.388 488.896 266.89 488.071 267.518 487.397C268.168 486.724 268.922 486.223 269.78 485.893C270.638 485.543 271.558 485.375 272.539 485.389C273.414 485.401 274.233 485.562 274.997 485.872C275.761 486.181 276.426 486.649 276.993 487.276C277.582 487.882 278.04 488.646 278.369 489.568C278.697 490.469 278.853 491.516 278.836 492.711C278.833 492.924 278.819 493.18 278.793 493.478C278.789 493.777 278.774 494.033 278.75 494.246L268.895 494.106C268.928 494.81 269.058 495.42 269.285 495.935C269.513 496.429 269.816 496.839 270.196 497.164C270.575 497.49 270.998 497.741 271.465 497.919C271.932 498.075 272.422 498.156 272.934 498.164C273.382 498.17 273.809 498.133 274.215 498.054C274.643 497.975 275.04 497.831 275.406 497.623C275.793 497.415 276.159 497.143 276.505 496.806L278.336 498.624C277.859 499.172 277.319 499.634 276.716 500.01C276.135 500.364 275.502 500.611 274.817 500.751C274.153 500.912 273.459 500.987 272.734 500.977ZM268.998 491.387L275.333 491.477C275.34 490.965 275.272 490.505 275.129 490.098C275.007 489.691 274.819 489.347 274.567 489.066C274.315 488.785 273.998 488.578 273.616 488.444C273.256 488.29 272.83 488.209 272.339 488.202C271.934 488.196 271.539 488.255 271.153 488.377C270.789 488.479 270.455 488.666 270.153 488.939C269.85 489.212 269.6 489.55 269.402 489.952C269.204 490.355 269.07 490.833 268.998 491.387ZM281.826 500.754L282.038 485.876L285.653 485.927L285.624 487.975C285.993 487.511 286.394 487.101 286.826 486.744C287.257 486.388 287.731 486.117 288.245 485.932C288.782 485.726 289.348 485.628 289.946 485.636C290.82 485.649 291.617 485.873 292.336 486.31C293.056 486.726 293.633 487.396 294.068 488.319C294.503 489.243 294.71 490.451 294.688 491.944L294.56 500.936L290.945 500.884L291.072 491.957C291.084 491.125 291.008 490.452 290.845 489.938C290.681 489.423 290.431 489.046 290.093 488.807C289.776 488.546 289.394 488.413 288.946 488.406C288.541 488.401 288.134 488.48 287.727 488.645C287.341 488.789 286.985 489.019 286.661 489.334C286.336 489.649 286.075 490.03 285.876 490.475C285.678 490.899 285.575 491.388 285.568 491.943L285.441 500.806L281.826 500.754ZM305.627 501.413C304.774 501.401 304.029 501.252 303.393 500.965C302.778 500.679 302.262 500.224 301.844 499.599C301.448 498.975 301.161 498.149 300.983 497.123C300.827 496.096 300.792 494.826 300.878 493.313L301.446 482.632L305.196 482.205L305.485 482.177L305.512 482.466C305.425 482.614 305.338 482.762 305.25 482.91C305.163 483.058 305.106 483.313 305.079 483.676L304.664 488.086L304.821 488.312L304.494 493.3C304.41 494.686 304.438 495.764 304.576 496.534C304.736 497.283 304.974 497.798 305.29 498.08C305.628 498.362 306.031 498.507 306.5 498.513C307.183 498.523 307.793 498.393 308.33 498.123C308.888 497.854 309.405 497.541 309.879 497.185L310.61 499.82C309.877 500.343 309.093 500.748 308.256 501.034C307.442 501.3 306.565 501.426 305.627 501.413ZM298.164 486.105L309.619 486.268L309.546 489.116L298.059 488.952L298.164 486.105ZM320.025 501.618C318.703 501.599 317.502 501.262 316.423 500.607C315.366 499.93 314.537 499.001 313.935 497.819C313.333 496.637 313.043 495.278 313.065 493.742C313.086 492.27 313.414 490.952 314.049 489.788C314.684 488.623 315.54 487.707 316.616 487.04C317.714 486.373 318.924 486.049 320.247 486.068C321.591 486.087 322.791 486.445 323.848 487.143C324.926 487.841 325.766 488.781 326.368 489.963C326.991 491.145 327.292 492.472 327.271 493.944C327.249 495.48 326.91 496.83 326.254 497.994C325.618 499.159 324.752 500.064 323.655 500.71C322.579 501.334 321.369 501.637 320.025 501.618ZM320.066 498.738C320.77 498.748 321.381 498.554 321.899 498.156C322.417 497.737 322.83 497.167 323.139 496.446C323.47 495.704 323.642 494.853 323.656 493.893C323.67 492.89 323.522 492.024 323.213 491.294C322.924 490.565 322.527 490.004 322.02 489.613C321.514 489.201 320.909 488.989 320.205 488.979C319.565 488.97 318.976 489.164 318.437 489.562C317.919 489.939 317.495 490.488 317.165 491.208C316.856 491.929 316.695 492.791 316.68 493.794C316.667 494.754 316.804 495.609 317.092 496.36C317.38 497.089 317.777 497.671 318.283 498.105C318.811 498.518 319.405 498.729 320.066 498.738ZM351.286 502.095C350.454 502.083 349.667 501.912 348.925 501.581C348.204 501.251 347.56 500.751 346.994 500.082C346.427 499.412 345.98 498.584 345.653 497.598C345.347 496.612 345.204 495.458 345.222 494.136C345.241 492.856 345.417 491.738 345.75 490.783C346.084 489.806 346.533 489.002 347.097 488.37C347.682 487.717 348.35 487.236 349.101 486.926C349.853 486.617 350.665 486.468 351.54 486.481C352.031 486.488 352.499 486.559 352.945 486.693C353.413 486.828 353.826 487.026 354.185 487.287C354.565 487.527 354.87 487.862 355.099 488.292L355.212 480.325L358.764 480.375L359.084 480.38L359.079 480.668C358.95 480.794 358.862 480.931 358.818 481.08C358.794 481.229 358.78 481.485 358.775 481.847L358.486 499.861C358.481 500.202 358.498 500.533 358.536 500.854C358.574 501.175 358.666 501.507 358.81 501.85L355.258 501.799C355.155 501.563 355.083 501.37 355.043 501.22C355.002 501.07 354.972 500.921 354.953 500.771C354.955 500.6 354.958 500.398 354.962 500.163C354.699 500.607 354.374 500.976 353.986 501.269C353.598 501.562 353.179 501.77 352.729 501.891C352.279 502.034 351.798 502.102 351.286 502.095ZM351.935 499.192C352.426 499.199 352.854 499.109 353.219 498.922C353.606 498.714 353.92 498.409 354.16 498.007C354.422 497.606 354.611 497.096 354.726 496.479C354.863 495.841 354.937 495.117 354.949 494.306C354.965 493.197 354.871 492.278 354.668 491.55C354.465 490.8 354.143 490.241 353.7 489.872C353.257 489.503 352.684 489.313 351.98 489.303C351.489 489.296 351.04 489.407 350.631 489.636C350.223 489.844 349.887 490.159 349.625 490.582C349.363 491.005 349.153 491.514 348.996 492.109C348.859 492.705 348.786 493.376 348.775 494.122C348.76 495.168 348.886 496.065 349.153 496.816C349.441 497.567 349.827 498.148 350.312 498.561C350.797 498.973 351.338 499.183 351.935 499.192ZM368.724 502.343C367.657 502.328 366.668 502.143 365.756 501.789C364.865 501.435 364.082 500.933 363.409 500.283C362.757 499.613 362.256 498.795 361.908 497.83C361.559 496.865 361.393 495.774 361.41 494.558C361.428 493.321 361.625 492.214 362.001 491.238C362.378 490.262 362.88 489.437 363.509 488.763C364.158 488.09 364.912 487.589 365.77 487.259C366.629 486.909 367.549 486.741 368.53 486.755C369.404 486.767 370.223 486.928 370.987 487.238C371.751 487.547 372.416 488.015 372.983 488.642C373.572 489.248 374.031 490.012 374.359 490.934C374.687 491.835 374.843 492.883 374.826 494.077C374.823 494.29 374.809 494.546 374.783 494.845C374.779 495.143 374.765 495.399 374.74 495.612L364.885 495.472C364.918 496.176 365.048 496.786 365.275 497.301C365.503 497.795 365.807 498.205 366.186 498.531C366.565 498.856 366.989 499.107 367.455 499.285C367.923 499.441 368.412 499.522 368.924 499.53C369.372 499.536 369.799 499.499 370.206 499.42C370.634 499.341 371.03 499.197 371.396 498.989C371.783 498.781 372.15 498.509 372.496 498.172L374.326 499.991C373.849 500.538 373.309 501 372.706 501.376C372.125 501.73 371.492 501.977 370.807 502.117C370.144 502.278 369.449 502.353 368.724 502.343ZM364.988 492.753L371.323 492.843C371.331 492.331 371.263 491.871 371.119 491.464C370.997 491.057 370.81 490.713 370.558 490.432C370.306 490.151 369.989 489.944 369.606 489.81C369.246 489.656 368.82 489.575 368.33 489.568C367.924 489.562 367.529 489.621 367.143 489.743C366.779 489.845 366.446 490.032 366.143 490.305C365.84 490.578 365.59 490.916 365.393 491.319C365.195 491.721 365.06 492.199 364.988 492.753ZM399.793 502.785C398.47 502.766 397.225 502.557 396.057 502.156C394.911 501.734 393.96 501.113 393.204 500.291L395.006 497.341L395.137 497.086L395.423 497.25C395.464 497.4 395.515 497.561 395.576 497.733C395.659 497.905 395.827 498.11 396.08 498.348C396.607 498.761 397.189 499.1 397.825 499.365C398.483 499.609 399.196 499.747 399.964 499.779C400.454 499.786 400.903 499.739 401.31 499.638C401.738 499.538 402.103 499.383 402.404 499.174C402.706 498.965 402.945 498.702 403.12 498.384C403.295 498.045 403.386 497.662 403.392 497.236C403.396 496.98 403.367 496.734 403.307 496.499C403.246 496.263 403.132 496.037 402.964 495.822C402.818 495.585 402.597 495.358 402.302 495.14C402.007 494.901 401.637 494.651 401.192 494.388C400.748 494.105 400.187 493.809 399.509 493.5C398.152 492.884 397.073 492.26 396.271 491.63C395.491 491 394.935 490.331 394.604 489.622C394.272 488.913 394.113 488.111 394.126 487.215C394.14 486.234 394.419 485.363 394.963 484.603C395.529 483.843 396.295 483.245 397.261 482.811C398.227 482.377 399.329 482.169 400.566 482.186C401.398 482.198 402.175 482.305 402.898 482.507C403.62 482.71 404.288 483.007 404.901 483.4C405.515 483.771 406.073 484.249 406.577 484.832L404.431 487.234L404.235 487.455L403.982 487.259C403.963 487.088 403.923 486.928 403.861 486.777C403.821 486.606 403.685 486.391 403.454 486.132C403.054 485.742 402.621 485.48 402.153 485.345C401.707 485.211 401.175 485.139 400.556 485.13C400.108 485.124 399.713 485.172 399.37 485.273C399.027 485.375 398.726 485.52 398.468 485.709C398.23 485.897 398.035 486.119 397.882 486.372C397.751 486.605 397.683 486.85 397.68 487.106C397.676 487.362 397.705 487.607 397.765 487.843C397.826 488.057 397.93 488.272 398.076 488.487C398.244 488.703 398.475 488.93 398.77 489.169C399.087 489.387 399.489 489.628 399.976 489.891C400.463 490.153 401.067 490.45 401.788 490.78C402.784 491.264 403.62 491.735 404.296 492.192C404.973 492.629 405.499 493.095 405.876 493.591C406.275 494.066 406.555 494.593 406.718 495.171C406.881 495.728 406.957 496.358 406.947 497.062C406.933 498.022 406.675 498.947 406.171 499.836C405.668 500.725 404.89 501.45 403.836 502.011C402.783 502.55 401.435 502.809 399.793 502.785ZM410.741 502.589L410.781 499.741L414.429 499.793L414.56 490.61L411.104 490.561L411.144 487.713L418.248 487.814L418.077 499.845L421.404 499.892L421.364 502.74L410.741 502.589ZM416.299 485.322C415.68 485.314 415.15 485.093 414.708 484.66C414.266 484.227 414.05 483.711 414.058 483.114C414.067 482.474 414.288 481.955 414.72 481.555C415.153 481.156 415.7 480.961 416.361 480.971C416.958 480.979 417.478 481.2 417.92 481.633C418.383 482.066 418.61 482.582 418.602 483.179C418.593 483.776 418.351 484.285 417.876 484.705C417.422 485.125 416.896 485.331 416.299 485.322ZM432.334 503.248C431.438 503.236 430.575 503.138 429.745 502.955C428.916 502.794 428.151 502.538 427.452 502.187C426.753 501.814 426.109 501.346 425.52 500.783L427.162 497.862L427.293 497.608L427.547 497.772C427.609 497.922 427.67 498.093 427.732 498.286C427.793 498.458 427.95 498.663 428.203 498.901C428.73 499.357 429.333 499.717 430.012 499.983C430.691 500.249 431.499 500.388 432.438 500.401C433.035 500.41 433.538 500.353 433.945 500.231C434.373 500.088 434.696 499.9 434.913 499.669C435.151 499.416 435.272 499.13 435.277 498.81C435.281 498.554 435.22 498.329 435.095 498.135C434.969 497.941 434.769 497.768 434.494 497.614C434.219 497.461 433.858 497.307 433.412 497.151C432.967 496.974 432.436 496.785 431.82 496.584C430.736 496.292 429.792 495.937 428.987 495.52C428.204 495.082 427.603 494.561 427.185 493.958C426.767 493.355 426.564 492.658 426.575 491.869C426.587 491.037 426.832 490.305 427.31 489.671C427.81 489.038 428.5 488.547 429.379 488.197C430.259 487.825 431.297 487.648 432.491 487.665C433.11 487.674 433.696 487.735 434.249 487.85C434.802 487.943 435.323 488.089 435.811 488.288C436.32 488.466 436.786 488.708 437.209 489.012C437.653 489.296 438.064 489.632 438.442 490.022L436.647 492.461L436.42 492.713L436.199 492.518C436.18 492.347 436.129 492.187 436.045 492.036C435.984 491.864 435.827 491.66 435.574 491.421C435.152 491.095 434.665 490.854 434.112 490.696C433.581 490.539 433.049 490.457 432.516 490.45C431.79 490.439 431.159 490.548 430.623 490.775C430.108 491.002 429.846 491.361 429.839 491.852C429.836 492.129 429.949 492.387 430.18 492.625C430.412 492.841 430.793 493.06 431.323 493.281C431.875 493.481 432.597 493.704 433.49 493.952C434.68 494.289 435.645 494.676 436.386 495.113C437.148 495.529 437.695 496.028 438.029 496.609C438.383 497.19 438.555 497.864 438.544 498.632C438.532 499.464 438.286 500.239 437.807 500.958C437.327 501.677 436.626 502.243 435.702 502.656C434.8 503.07 433.677 503.267 432.334 503.248ZM449.612 503.462C448.759 503.45 448.014 503.301 447.378 503.014C446.764 502.728 446.247 502.273 445.83 501.648C445.433 501.024 445.146 500.198 444.969 499.172C444.813 498.145 444.777 496.875 444.863 495.362L445.431 484.681L449.182 484.254L449.47 484.226L449.498 484.515C449.41 484.663 449.323 484.811 449.236 484.959C449.148 485.107 449.091 485.362 449.065 485.725L448.65 490.135L448.807 490.361L448.48 495.349C448.396 496.735 448.423 497.813 448.562 498.583C448.722 499.332 448.96 499.847 449.276 500.129C449.613 500.411 450.016 500.556 450.486 500.562C451.168 500.572 451.778 500.442 452.315 500.172C452.874 499.903 453.39 499.59 453.865 499.234L454.595 501.869C453.863 502.392 453.078 502.797 452.242 503.084C451.427 503.349 450.551 503.476 449.612 503.462ZM442.149 488.154L453.604 488.317L453.532 491.165L442.045 491.001L442.149 488.154ZM464.714 503.709C463.648 503.694 462.658 503.509 461.746 503.155C460.855 502.801 460.073 502.299 459.399 501.649C458.747 500.979 458.247 500.161 457.898 499.196C457.549 498.231 457.383 497.14 457.4 495.924C457.418 494.687 457.615 493.58 457.992 492.604C458.368 491.628 458.871 490.803 459.499 490.13C460.149 489.456 460.902 488.955 461.761 488.626C462.619 488.275 463.539 488.107 464.52 488.121C465.395 488.133 466.214 488.294 466.977 488.604C467.741 488.913 468.407 489.382 468.974 490.008C469.562 490.614 470.021 491.378 470.349 492.3C470.678 493.201 470.834 494.249 470.817 495.443C470.813 495.656 470.799 495.912 470.774 496.211C470.769 496.509 470.755 496.765 470.731 496.978L460.876 496.838C460.908 497.542 461.038 498.152 461.266 498.668C461.493 499.161 461.797 499.571 462.176 499.897C462.556 500.222 462.979 500.473 463.446 500.651C463.913 500.807 464.402 500.888 464.914 500.896C465.362 500.902 465.789 500.865 466.196 500.786C466.624 500.707 467.021 500.563 467.386 500.355C467.773 500.147 468.14 499.875 468.486 499.538L470.316 501.357C469.839 501.905 469.299 502.366 468.696 502.742C468.115 503.096 467.482 503.343 466.798 503.483C466.134 503.644 465.44 503.719 464.714 503.709ZM460.978 494.119L467.314 494.209C467.321 493.697 467.253 493.238 467.109 492.83C466.987 492.423 466.8 492.079 466.548 491.798C466.296 491.517 465.979 491.31 465.597 491.176C465.236 491.022 464.811 490.941 464.32 490.934C463.915 490.928 463.519 490.987 463.133 491.109C462.769 491.211 462.436 491.398 462.133 491.671C461.831 491.944 461.581 492.282 461.383 492.685C461.185 493.087 461.05 493.565 460.978 494.119ZM473.006 503.475L473.218 488.597L476.258 488.64L476.242 489.728C476.503 489.39 476.774 489.117 477.054 488.907C477.334 488.698 477.625 488.553 477.924 488.472C478.246 488.369 478.556 488.321 478.855 488.325C479.217 488.33 479.558 488.399 479.876 488.531C480.194 488.643 480.479 488.839 480.731 489.12C481.005 489.379 481.214 489.724 481.357 490.153C481.597 489.751 481.869 489.424 482.171 489.172C482.473 488.899 482.818 488.701 483.203 488.579C483.611 488.456 484.049 488.399 484.518 488.405C485.073 488.413 485.541 488.516 485.922 488.713C486.303 488.911 486.608 489.193 486.838 489.559C487.089 489.925 487.264 490.375 487.363 490.91C487.462 491.445 487.507 492.043 487.497 492.704L487.341 503.679L484.205 503.634L484.351 493.427C484.36 492.788 484.335 492.296 484.276 491.954C484.217 491.591 484.124 491.344 483.998 491.214C483.872 491.063 483.703 490.986 483.489 490.983C483.212 490.979 482.943 491.114 482.683 491.388C482.424 491.64 482.205 491.999 482.028 492.466C481.872 492.912 481.79 493.444 481.781 494.063L481.646 503.598L478.702 503.556L478.846 493.445C478.86 492.421 478.795 491.738 478.651 491.394C478.506 491.051 478.232 490.876 477.826 490.87C477.634 490.868 477.441 490.929 477.248 491.054C477.075 491.18 476.912 491.369 476.759 491.623C476.628 491.856 476.517 492.164 476.426 492.547C476.336 492.908 476.287 493.323 476.281 493.793L476.142 503.52L473.006 503.475ZM494.375 504.163C492.732 504.14 491.458 503.738 490.552 502.957C489.667 502.155 489.233 501.135 489.251 499.898C489.262 499.109 489.443 498.386 489.794 497.729C490.166 497.052 490.708 496.473 491.419 495.992C492.13 495.512 493.01 495.151 494.058 494.91C495.108 494.647 496.304 494.526 497.648 494.545C497.819 494.547 498.032 494.55 498.288 494.554C498.544 494.558 498.821 494.572 499.119 494.598C499.418 494.602 499.695 494.627 499.95 494.674L500.011 497.171C499.798 497.146 499.542 497.132 499.243 497.128C498.945 497.102 498.636 497.087 498.316 497.083C498.018 497.057 497.762 497.043 497.548 497.04C496.695 497.028 495.969 497.081 495.37 497.201C494.792 497.32 494.32 497.495 493.954 497.725C493.589 497.933 493.318 498.196 493.143 498.513C492.968 498.809 492.878 499.139 492.873 499.501C492.868 499.843 492.917 500.131 493.021 500.368C493.145 500.604 493.303 500.798 493.492 500.95C493.704 501.081 493.948 501.181 494.224 501.249C494.501 501.317 494.799 501.353 495.119 501.358C495.759 501.367 496.315 501.279 496.787 501.093C497.28 500.887 497.69 500.562 498.017 500.119C498.364 499.676 498.618 499.124 498.776 498.465C498.957 497.785 499.053 496.986 499.066 496.069C499.084 494.832 498.97 493.881 498.723 493.216C498.476 492.551 498.11 492.087 497.623 491.824C497.136 491.54 496.519 491.392 495.773 491.382C495.09 491.372 494.438 491.48 493.816 491.706C493.216 491.911 492.623 492.308 492.039 492.897L490.086 490.693C490.929 489.915 491.865 489.363 492.894 489.037C493.923 488.71 494.949 488.554 495.973 488.568C496.911 488.582 497.785 488.701 498.592 488.926C499.4 489.151 500.098 489.523 500.688 490.044C501.3 490.543 501.77 491.232 502.099 492.112C502.45 492.97 502.616 494.039 502.597 495.319L502.475 503.894L498.732 503.841L498.755 502.241C498.472 502.6 498.169 502.905 497.845 503.157C497.522 503.408 497.178 503.606 496.813 503.75C496.448 503.894 496.063 503.995 495.656 504.053C495.25 504.133 494.823 504.17 494.375 504.163Z" fill="#303030"/>
<path d="M399.279 442.059L396.88 442.025L397.073 428.426L399.472 428.46L399.279 442.059ZM405.131 435.121L405.031 442.14L402.731 442.108L402.875 431.969L405.055 432L405.036 433.34C405.67 432.802 406.256 432.417 406.793 432.184C407.329 431.952 407.878 431.84 408.438 431.848C409.678 431.865 410.516 432.424 410.954 433.524C411.629 432.946 412.255 432.535 412.832 432.29C413.409 432.045 413.99 431.926 414.577 431.935C415.51 431.948 416.219 432.271 416.703 432.905C417.188 433.525 417.422 434.395 417.406 435.515L417.31 442.315L415.01 442.282L415.103 435.763C415.119 434.643 414.7 434.077 413.847 434.065C413.513 434.06 413.146 434.135 412.743 434.289C412.341 434.443 411.85 434.75 411.27 435.208L411.171 442.227L408.871 442.195L408.963 435.675C408.979 434.556 408.561 433.99 407.707 433.977C407.374 433.973 407.006 434.048 406.604 434.202C406.202 434.356 405.711 434.663 405.131 435.121ZM424.684 442.619C424.35 442.615 424.011 442.576 423.665 442.505C423.333 442.433 422.994 442.335 422.649 442.21L422.586 446.65L420.286 446.617L420.491 432.219L422.671 432.25L422.651 433.629C423.286 433.012 423.826 432.599 424.269 432.392C424.712 432.185 425.173 432.085 425.653 432.092C426.76 432.108 427.607 432.533 428.195 433.368C428.783 434.203 429.067 435.367 429.046 436.861L429.03 437.94C429.01 439.394 428.627 440.542 427.881 441.384C427.136 442.227 426.07 442.639 424.684 442.619ZM425.003 434.223C424.696 434.219 424.368 434.307 424.019 434.489C423.683 434.658 423.258 434.992 422.745 435.491L422.679 440.131C423.328 440.406 423.926 440.548 424.473 440.556C425.246 440.567 425.803 440.335 426.143 439.86C426.483 439.384 426.659 438.734 426.671 437.907L426.686 436.827C426.699 435.934 426.555 435.278 426.254 434.861C425.966 434.443 425.549 434.231 425.003 434.223ZM431.615 439.657L431.785 427.718L434.085 427.751L433.915 439.69C433.912 439.89 433.956 440.084 434.047 440.272C434.151 440.447 434.35 440.536 434.643 440.54L434.963 440.545L434.933 442.665L434.373 442.657C433.613 442.646 433.035 442.491 432.64 442.192C432.244 441.893 431.969 441.516 431.816 441.06C431.675 440.605 431.609 440.137 431.615 439.657ZM444.869 442.126C444.172 442.396 443.516 442.586 442.901 442.698C442.286 442.809 441.705 442.861 441.158 442.853C439.652 442.832 438.518 442.389 437.757 441.525C436.996 440.66 436.625 439.522 436.645 438.108L436.662 436.909C436.676 435.962 436.861 435.145 437.217 434.456C437.574 433.768 438.075 433.235 438.72 432.857C439.365 432.48 440.121 432.297 440.988 432.31C441.695 432.32 442.352 432.476 442.962 432.778C443.584 433.066 444.084 433.52 444.462 434.139C444.854 434.745 445.043 435.521 445.029 436.467C445.025 436.747 445.001 437.047 444.957 437.366C444.912 437.672 444.841 437.998 444.743 438.343L438.863 438.26C438.878 439.087 439.076 439.71 439.457 440.129C439.838 440.547 440.455 440.763 441.308 440.775C441.761 440.781 442.229 440.735 442.71 440.635C443.205 440.535 443.714 440.382 444.237 440.176L444.869 442.126ZM440.96 434.249C440.347 434.241 439.864 434.434 439.512 434.829C439.173 435.211 438.972 435.768 438.908 436.5L442.748 436.555C442.762 436.488 442.77 436.429 442.77 436.375C442.771 436.309 442.772 436.249 442.773 436.195C442.782 435.555 442.609 435.073 442.253 434.748C441.898 434.423 441.467 434.257 440.96 434.249ZM449.99 435.758L449.89 442.777L447.59 442.744L447.734 432.605L449.914 432.636L449.895 433.976C450.529 433.438 451.115 433.053 451.651 432.821C452.188 432.588 452.736 432.476 453.296 432.484C454.536 432.502 455.375 433.06 455.813 434.16C456.488 433.583 457.114 433.172 457.691 432.927C458.267 432.681 458.849 432.563 459.436 432.571C460.369 432.585 461.078 432.908 461.562 433.542C462.047 434.162 462.281 435.032 462.265 436.152L462.169 442.951L459.869 442.919L459.962 436.399C459.977 435.279 459.559 434.713 458.705 434.701C458.372 434.696 458.004 434.771 457.602 434.926C457.2 435.08 456.709 435.386 456.129 435.845L456.029 442.864L453.73 442.831L453.822 436.312C453.838 435.192 453.419 434.626 452.566 434.614C452.233 434.609 451.865 434.684 451.463 434.838C451.061 434.993 450.57 435.299 449.99 435.758ZM472.913 442.524C472.216 442.794 471.56 442.984 470.945 443.096C470.33 443.207 469.749 443.259 469.202 443.251C467.696 443.23 466.562 442.787 465.801 441.923C465.04 441.058 464.669 439.92 464.689 438.506L464.706 437.307C464.72 436.36 464.905 435.543 465.261 434.854C465.618 434.166 466.119 433.633 466.764 433.255C467.409 432.878 468.165 432.695 469.032 432.707C469.739 432.718 470.396 432.874 471.006 433.176C471.628 433.464 472.128 433.918 472.506 434.537C472.898 435.143 473.087 435.919 473.073 436.865C473.069 437.145 473.045 437.445 473.001 437.764C472.956 438.07 472.885 438.396 472.787 438.741L466.907 438.658C466.922 439.485 467.12 440.108 467.501 440.527C467.882 440.945 468.499 441.161 469.352 441.173C469.805 441.179 470.273 441.133 470.754 441.033C471.249 440.933 471.758 440.78 472.281 440.574L472.913 442.524ZM469.004 434.647C468.391 434.639 467.908 434.832 467.556 435.227C467.217 435.609 467.016 436.166 466.952 436.898L470.792 436.953C470.806 436.886 470.814 436.827 470.814 436.773C470.815 436.707 470.816 436.647 470.817 436.593C470.826 435.953 470.653 435.471 470.298 435.146C469.942 434.821 469.511 434.654 469.004 434.647ZM480.71 435.013C480.377 435.009 479.996 435.083 479.567 435.237C479.138 435.391 478.627 435.697 478.034 436.156L477.934 443.175L475.634 443.142L475.778 433.003L477.958 433.034L477.939 434.394C478.573 433.856 479.172 433.471 479.735 433.239C480.299 432.994 480.867 432.875 481.44 432.884C482.414 432.897 483.149 433.221 483.647 433.855C484.145 434.475 484.386 435.346 484.37 436.465L484.273 443.265L481.974 443.232L482.066 436.713C482.082 435.593 481.63 435.026 480.71 435.013ZM493.417 443.055C493.068 443.21 492.666 443.331 492.212 443.417C491.757 443.518 491.296 443.564 490.83 443.558C490.056 443.547 489.439 443.378 488.977 443.052C488.515 442.725 488.181 442.273 487.976 441.697C487.784 441.121 487.693 440.466 487.704 439.733L487.768 435.174L486.128 435.15L486.157 433.151L487.797 433.174L487.834 430.534L490.134 430.567L490.096 433.206L493.256 433.251L493.228 435.251L490.068 435.206L490.003 439.766C489.995 440.379 490.102 440.807 490.325 441.05C490.562 441.281 490.9 441.399 491.34 441.405C491.554 441.408 491.78 441.391 492.021 441.355C492.275 441.305 492.556 441.222 492.865 441.106L493.417 443.055Z" fill="#F18F22"/>
<defs>
<linearGradient id="paint0_linear_119_20" x1="293.825" y1="18.8439" x2="293.825" y2="434.423" gradientUnits="userSpaceOnUse">
<stop stop-color="#F18F22"/>
<stop offset="0.5" stop-color="#F18F22"/>
<stop offset="0.877083" stop-color="#F18F22" stop-opacity="0"/>
</linearGradient>
</defs>
</svg>
