<svg width="167" height="168" viewBox="0 0 167 168" fill="none" xmlns="http://www.w3.org/2000/svg">
<rect x="1.28699" y="0.440735" width="165.124" height="165.885" rx="20" transform="rotate(0.272069 1.28699 0.440735)" fill="#D9D9D9"/>
<path d="M76.5116 121.781L72.5403 108.994L50.1725 108.887L46.08 121.636L34.6561 121.582L56.7578 56.4061L66.9337 56.4544L88.5115 121.838L76.5116 121.781ZM56.5073 88.9493L53.4866 98.343L69.2305 98.4178L66.2992 88.9958L61.5776 72.4612L56.5073 88.9493ZM134.837 122.538C131.573 122.522 128.952 121.838 126.975 120.484C125.061 119.131 123.661 117.46 122.774 115.472C120.01 118.019 117.345 119.895 114.78 121.098C112.214 122.302 109.459 122.897 106.515 122.883C102.227 122.863 99.0656 121.472 97.0307 118.71C95.0598 115.949 94.0843 112.456 94.1044 108.232C94.1178 105.416 94.6415 102.955 95.6755 100.847C96.7738 98.6766 98.5418 96.989 100.98 95.7845C103.417 94.5801 106.748 93.9879 110.972 94.008C112.636 94.0159 114.363 94.1521 116.154 94.4166C117.945 94.6171 119.736 94.8816 121.527 95.2101L121.553 89.5461C121.566 86.8582 120.839 85.0307 119.371 84.0637C117.904 83.0327 115.923 82.5113 113.427 82.4995C111.507 82.4904 109.394 82.7363 107.087 83.2374C104.845 83.7387 102.409 84.5272 99.7799 85.6027L96.6566 76.1798C103.133 73.5865 108.995 72.3023 114.243 72.3272C118.979 72.3497 122.623 73.167 125.176 74.7792C127.792 76.3916 129.606 78.5123 130.617 81.1411C131.629 83.7699 132.128 86.5883 132.113 89.5963L132.024 108.316C132.02 109.276 132.271 110.205 132.779 111.104C133.351 111.938 134.437 112.36 136.037 112.367L137.093 112.372L137.045 122.548L134.837 122.538ZM104.761 108.091C104.753 109.819 105.13 111.196 105.894 112.224C106.657 113.188 107.775 113.673 109.247 113.68C110.719 113.687 112.384 113.311 114.244 112.552C116.104 111.793 118.512 110.012 121.47 107.21L121.489 103.082C118.164 102.49 114.901 102.187 111.701 102.172C109.205 102.16 107.411 102.663 106.318 103.682C105.289 104.701 104.77 106.171 104.761 108.091Z" fill="#08A882"/>
</svg>
