<svg width="178" height="131" viewBox="0 0 178 131" fill="none" xmlns="http://www.w3.org/2000/svg">
<g id="Layer_1">
<path id="Vector" d="M146.057 60.604L175.458 32.5447L146.81 3.71702L146.65 15.8176L115.321 14.1457L114.855 49.3455L146.217 48.5034L146.057 60.604Z" fill="#08A882"/>
<path id="Vector_2" d="M117.291 42.0897C117.285 41.8539 117.325 41.619 117.409 41.3987C117.494 41.1783 117.621 40.9768 117.783 40.8055C117.945 40.6343 118.14 40.4966 118.355 40.4005C118.571 40.3044 118.803 40.2517 119.039 40.2454L120.745 40.1997C121.221 40.1869 121.683 40.3639 122.029 40.6918C122.375 41.0196 122.576 41.4714 122.589 41.9478C122.602 42.4242 122.425 42.8861 122.097 43.232C121.769 43.5779 121.317 43.7794 120.841 43.7922L119.135 43.8379C118.899 43.8442 118.665 43.804 118.444 43.7195C118.224 43.6351 118.022 43.5081 117.851 43.3458C117.68 43.1834 117.542 42.989 117.446 42.7735C117.35 42.558 117.297 42.3256 117.291 42.0897ZM126.182 41.8516C126.175 41.6157 126.215 41.3809 126.3 41.1605C126.384 40.9402 126.511 40.7386 126.674 40.5674C126.836 40.3961 127.03 40.2585 127.246 40.1624C127.461 40.0663 127.694 40.0136 127.93 40.0073L143.018 39.6025C143.494 39.592 143.954 39.7698 144.3 40.0971C144.645 40.4245 144.847 40.875 144.862 41.3506C144.869 41.5865 144.828 41.8213 144.744 42.0416C144.659 42.262 144.532 42.4635 144.37 42.6348C144.208 42.8061 144.013 42.9437 143.798 43.0398C143.582 43.1359 143.35 43.1886 143.114 43.1949L128.026 43.5997C127.79 43.606 127.555 43.5658 127.335 43.4814C127.114 43.397 126.913 43.27 126.742 43.1076C126.57 42.9453 126.433 42.7508 126.337 42.5353C126.241 42.3198 126.188 42.0875 126.182 41.8516ZM151.014 45.9383C150.685 45.5934 150.507 45.1319 150.518 44.6555C150.529 44.179 150.729 43.7264 151.074 43.3973L162.623 32.3748L157.955 27.6788C157.631 27.3385 157.452 26.8845 157.459 26.4142C157.465 25.944 157.656 25.495 157.989 25.1634C158.323 24.8319 158.773 24.6443 159.243 24.6409C159.713 24.6374 160.166 24.8184 160.505 25.145L166.464 31.1418C166.632 31.3114 166.765 31.5129 166.855 31.7345C166.944 31.956 166.989 32.1932 166.986 32.4322C166.983 32.6712 166.932 32.9071 166.836 33.1262C166.741 33.3453 166.603 33.5432 166.43 33.7083L153.554 45.997C153.21 46.326 152.749 46.5047 152.272 46.4937C151.796 46.4826 151.343 46.2829 151.014 45.9383ZM152.889 22.5801L151.369 21.0505C151.044 20.7101 150.866 20.2561 150.872 19.7859C150.879 19.3156 151.069 18.8666 151.403 18.5351C151.736 18.2035 152.186 18.0159 152.657 18.0125C153.127 18.009 153.58 18.19 153.918 18.5166L155.438 20.0462C155.763 20.3866 155.941 20.8406 155.935 21.3108C155.928 21.7811 155.738 22.2301 155.404 22.5616C155.071 22.8931 154.621 23.0807 154.15 23.0842C153.68 23.0876 153.227 22.9067 152.889 22.5801Z" fill="#76FFBA"/>
<path id="Vector_3" d="M30.844 126.345L2.19633 97.5185L31.597 69.4592L31.4368 81.5591L62.799 80.717L62.3331 115.918L31.0042 114.246L30.844 126.345Z" fill="#FF8600"/>
<path id="Vector_4" d="M57.8375 110.277C57.8131 110.277 57.7886 110.277 57.7642 110.275L56.4964 110.207C56.2608 110.194 56.0299 110.136 55.817 110.034C55.6042 109.932 55.4134 109.789 55.2557 109.614C55.0979 109.438 54.9763 109.233 54.8977 109.011C54.8191 108.788 54.7852 108.553 54.7977 108.317C54.8504 107.326 55.7123 106.56 56.6877 106.618L57.9555 106.686C58.425 106.711 58.8661 106.919 59.184 107.266C59.5018 107.612 59.6712 108.069 59.6558 108.539C59.6404 109.009 59.4413 109.455 59.1014 109.779C58.7614 110.104 58.3077 110.283 57.8375 110.277ZM49.3924 109.827C49.368 109.827 49.3435 109.826 49.3191 109.824L34.2469 109.02C34.0113 109.008 33.7804 108.949 33.5675 108.847C33.3546 108.745 33.1639 108.603 33.0061 108.427C32.8484 108.252 32.7268 108.047 32.6482 107.824C32.5696 107.602 32.5356 107.366 32.5482 107.13C32.576 106.655 32.7901 106.211 33.1439 105.893C33.4978 105.574 33.9629 105.409 34.4382 105.432L49.5104 106.236C49.9799 106.261 50.421 106.469 50.7388 106.815C51.0567 107.162 51.2261 107.619 51.2107 108.089C51.1952 108.559 50.9962 109.004 50.6563 109.329C50.3163 109.654 49.8626 109.833 49.3924 109.827ZM23.7353 111.545L11.1895 98.92C11.0211 98.7504 10.8883 98.5489 10.7987 98.3273C10.7091 98.1058 10.6645 97.8686 10.6677 97.6296C10.6709 97.3906 10.7216 97.1547 10.8171 96.9356C10.9125 96.7165 11.0507 96.5186 11.2235 96.3535L17.3395 90.5165C17.6864 90.199 18.1439 90.0301 18.6139 90.046C19.084 90.0619 19.529 90.2613 19.8537 90.6015C20.1783 90.9418 20.3567 91.3957 20.3506 91.8659C20.3445 92.3362 20.1543 92.7853 19.8209 93.1169L15.0306 97.6877L26.284 109.012C26.4542 109.179 26.5896 109.377 26.6824 109.596C26.7752 109.816 26.8234 110.051 26.8244 110.289C26.8253 110.527 26.7789 110.763 26.6879 110.983C26.5969 111.203 26.4631 111.403 26.2942 111.571C26.1253 111.739 25.9248 111.871 25.7042 111.961C25.4836 112.051 25.2475 112.096 25.0094 112.093C24.7713 112.091 24.5361 112.041 24.3173 111.947C24.0986 111.853 23.9008 111.716 23.7353 111.545ZM22.4802 88.0953C22.1512 87.7504 21.9727 87.289 21.9838 86.8125C21.995 86.336 22.1949 85.8835 22.5397 85.5543L24.0998 84.0655C24.4467 83.748 24.9042 83.5791 25.3742 83.595C25.8442 83.6109 26.2893 83.8103 26.614 84.1505C26.9386 84.4908 27.117 84.9447 27.1109 85.4149C27.1048 85.8852 26.9146 86.3343 26.5812 86.6659L25.0211 88.1548C24.6761 88.4836 24.2147 88.662 23.7383 88.6508C23.2619 88.6397 22.8094 88.4398 22.4802 88.0953Z" fill="#FFCBC2"/>
<path id="Vector_5" d="M3.18552 22.8391C2.19373 22.8259 1.37806 23.6274 1.36502 24.612C1.35872 25.0885 1.54196 25.548 1.87445 25.8894C2.20694 26.2309 2.66144 26.4262 3.13796 26.4325L14.292 26.5801C14.7685 26.5865 15.228 26.4032 15.5694 26.0707C15.9108 25.7382 16.1062 25.2837 16.1125 24.8072C16.1255 23.8226 15.3313 22.9998 14.3395 22.9867L10.5593 22.9367L10.7569 8.00236C10.7747 6.65769 9.36078 5.79222 8.17649 6.36525L2.89517 8.93338C2.68227 9.03518 2.49162 9.1781 2.33419 9.3539C2.17676 9.52969 2.05567 9.7349 1.97789 9.9577C1.90011 10.1805 1.86717 10.4165 1.88099 10.6521C1.8948 10.8876 1.95508 11.1182 2.05837 11.3303C2.47817 12.1985 3.58718 12.5869 4.4625 12.1672L7.12487 10.8727L6.96582 22.8891L3.18552 22.8391ZM8.34464 54.4848C12.4052 54.5386 15.7621 51.2765 15.8159 47.2159L15.8897 41.6389C15.9435 37.5711 12.6741 34.2213 8.61356 34.1675C4.5458 34.1137 1.19608 37.3759 1.14223 41.4437L1.06841 47.0207C1.01467 51.0813 4.27687 54.431 8.34464 54.4848ZM4.73567 41.4912C4.76326 39.407 6.48181 37.7334 8.5661 37.7538C10.643 37.7885 12.3167 39.507 12.2963 41.5913L12.2224 47.1683C12.1878 49.2452 10.4692 50.9189 8.3922 50.8914C6.30801 50.8638 4.63436 49.1452 4.66185 47.0682L4.73567 41.4912ZM31.4836 51.197C30.4918 51.1839 29.6761 51.9854 29.6631 52.97C29.6568 53.4465 29.8401 53.906 30.1725 54.2474C30.505 54.5888 30.9595 54.7842 31.4361 54.7905L42.5901 54.9381C43.0666 54.9444 43.5261 54.7612 43.8675 54.4287C44.2089 54.0962 44.4043 53.6417 44.4106 53.1652C44.4236 52.1806 43.6294 51.3578 42.6376 51.3447L38.8573 51.2946L39.0549 36.3675C39.0728 35.0149 37.661 34.1495 36.4746 34.7232L31.1934 37.2842C30.9805 37.387 30.7899 37.5307 30.6326 37.7072C30.4753 37.8837 30.3543 38.0895 30.2766 38.3128C30.1989 38.536 30.1659 38.7724 30.1796 39.0085C30.1933 39.2445 30.2534 39.4755 30.3565 39.6883C30.7763 40.5564 31.8853 40.9449 32.7607 40.518L35.423 39.2306L35.2639 51.2471L31.4836 51.197ZM37.6523 6.56851C33.5846 6.51466 30.2348 9.77687 30.1811 13.8374L30.1073 19.4145C30.0534 23.4822 33.3156 26.8319 37.3834 26.8858C41.4512 26.9396 44.8009 23.6774 44.8547 19.6097L44.9285 14.0327C44.9823 9.97207 41.7201 6.62235 37.6523 6.56851ZM41.2613 19.5621C41.2265 21.6462 39.508 23.3198 37.431 23.2924C35.3468 23.2648 33.6731 21.5462 33.7007 19.462L33.7745 13.885C33.802 11.808 35.5206 10.1344 37.6049 10.1548C39.6818 10.1894 41.3554 11.908 41.3351 13.9851L41.2613 19.5621ZM100.998 55.7112C101.982 55.7242 102.805 54.9301 102.818 53.9383C102.831 52.9537 102.03 52.1308 101.045 52.1178L97.265 52.0677L97.4626 37.1406C97.4804 35.7952 96.0745 34.9241 94.8751 35.4962L89.5939 38.0572C89.1658 38.2668 88.8382 38.6374 88.6827 39.088C88.5272 39.5386 88.5565 40.0324 88.7642 40.4614C89.184 41.3295 90.293 41.718 91.1683 41.2983L93.8307 40.0037L93.6716 52.0202L89.8913 51.9701C88.8995 51.957 88.0838 52.7585 88.0708 53.7431C88.0645 54.2196 88.2478 54.6791 88.5802 55.0205C88.9127 55.3619 89.3672 55.5573 89.8438 55.5636L100.998 55.7112ZM88.5887 14.6177L88.515 20.1876C88.4611 24.2553 91.7233 27.6051 95.7911 27.6589C99.8517 27.7126 103.209 24.4505 103.262 20.3828L103.336 14.8129C103.39 10.7452 100.121 7.39536 96.06 7.34161C91.9923 7.28777 88.6425 10.55 88.5887 14.6177ZM99.7427 14.7654L99.669 20.3352C99.6342 22.4193 97.9157 24.093 95.8387 24.0655C93.7545 24.0379 92.0808 22.3193 92.1084 20.2351L92.1821 14.6653C92.2097 12.5811 93.9283 10.9075 96.0126 10.9279C98.0895 10.9625 99.7631 12.6811 99.7427 14.7654ZM71.6764 23.7456L67.8961 23.6956L68.0937 8.76847C68.1114 7.43028 66.7078 6.54625 65.5133 7.12418L60.2248 9.69222C60.0125 9.79466 59.8226 9.93805 59.6659 10.1141C59.5092 10.2902 59.3889 10.4955 59.3118 10.7183C59.2347 10.941 59.2024 11.1768 59.2167 11.4121C59.231 11.6474 59.2917 11.8775 59.3952 12.0893C59.815 12.9574 60.924 13.3459 61.7995 12.919L64.4617 11.6316L64.3027 23.648L60.5224 23.598C60.0452 23.5936 59.5857 23.7784 59.2444 24.1121C58.9032 24.4457 58.7081 24.9009 58.7018 25.3781C58.6887 26.3627 59.483 27.1783 60.4748 27.1914L71.6288 27.3391C72.6206 27.3522 73.4362 26.5579 73.4492 25.5733C73.4556 25.0961 73.2726 24.6359 72.9403 24.2933C72.608 23.9508 72.1536 23.7539 71.6764 23.7456ZM73.2265 42.3978C73.2804 38.33 70.011 34.9802 65.9504 34.9265C61.8827 34.8726 58.5329 38.1348 58.4791 42.2026L58.4053 47.7796C58.3515 51.8402 61.6137 55.1899 65.6815 55.2437C69.7421 55.2975 73.099 52.0354 73.1527 47.9748L73.2265 42.3978ZM69.5593 47.9272C69.5246 50.0041 67.8061 51.6778 65.7291 51.6503C63.6449 51.6227 61.9712 49.9042 61.9987 47.8272L62.0725 42.2502C62.1001 40.166 63.8187 38.4923 65.9029 38.5127C67.9799 38.5474 69.6535 40.2659 69.6331 42.3502L69.5593 47.9272ZM113.525 14.0493C113.501 14.5252 113.666 14.9912 113.985 15.3455C114.303 15.6999 114.749 15.9138 115.225 15.9407C115.348 15.9474 125.273 16.4762 125.396 16.4779C126.359 16.4906 127.16 15.7465 127.208 14.7767C127.266 13.8078 126.508 12.9359 125.508 12.8925L115.416 12.3492C114.432 12.293 113.581 13.0581 113.525 14.0493ZM145.016 3.69111L144.881 13.9252L139.867 13.6576C138.876 13.5942 138.025 14.3664 137.976 15.3577C137.963 15.5931 137.998 15.8287 138.076 16.0508C138.155 16.273 138.277 16.4775 138.435 16.6525C138.593 16.8275 138.784 16.9697 138.997 17.0708C139.21 17.172 139.44 17.2301 139.676 17.2419L146.557 17.6134C146.799 17.625 147.04 17.5881 147.267 17.5047C147.494 17.4213 147.702 17.2931 147.878 17.1279C148.055 16.9626 148.196 16.7636 148.295 16.5426C148.393 16.3216 148.445 16.0831 148.45 15.8414L148.553 8.01487L172.891 32.5107L147.913 56.3538L148.017 48.5273C148.019 48.2855 147.973 48.0458 147.88 47.8223C147.788 47.5988 147.652 47.3962 147.48 47.2263C147.308 47.0565 147.103 46.9229 146.879 46.8334C146.654 46.744 146.414 46.7006 146.172 46.7058L114.806 47.5486C114.33 47.5628 113.879 47.7649 113.551 48.1107C113.223 48.4565 113.046 48.918 113.057 49.3943C113.087 50.3867 113.917 51.174 114.903 51.1439L144.399 50.3483L144.263 60.5824C144.243 62.1419 146.109 63.0141 147.301 61.9021L176.698 33.8478C177.427 33.1523 177.438 31.9764 176.732 31.282L148.088 2.45228C146.962 1.32897 145.037 2.10353 145.016 3.69111ZM130.8 14.968C130.786 15.2102 130.821 15.4527 130.903 15.6809C130.985 15.9091 131.113 16.118 131.279 16.2951C131.445 16.4722 131.645 16.6136 131.867 16.7108C132.09 16.808 132.329 16.8589 132.572 16.8604C133.535 16.8731 134.336 16.129 134.384 15.1592C134.397 14.9238 134.362 14.6883 134.284 14.4661C134.205 14.2439 134.083 14.0394 133.925 13.8644C133.767 13.6894 133.576 13.5472 133.363 13.4461C133.15 13.345 132.92 13.2868 132.684 13.275C131.707 13.2117 130.849 13.9839 130.8 14.968ZM81.426 74.6013L76.1448 77.1623C75.7168 77.3719 75.3892 77.7425 75.2337 78.1931C75.0782 78.6437 75.1075 79.1375 75.3151 79.5665C75.7349 80.4346 76.8439 80.8231 77.7121 80.3961L80.3744 79.1087L80.2153 91.1324L76.435 91.0823C75.9585 91.076 75.499 91.2593 75.1575 91.5918C74.8161 91.9243 74.6208 92.3787 74.6145 92.8553C74.6014 93.8399 75.3957 94.6555 76.3875 94.6686L87.5415 94.8162C88.5333 94.8293 89.3489 94.0351 89.3619 93.0505C89.3682 92.5739 89.185 92.1144 88.8525 91.773C88.52 91.4316 88.0655 91.2363 87.589 91.23L83.8087 91.1799L84.0064 76.2456C84.0244 74.8815 82.6067 74.0304 81.426 74.6013ZM89.0655 115.445L89.1392 109.875C89.1931 105.807 85.9309 102.457 81.8631 102.404C77.8025 102.35 74.4528 105.612 74.3918 109.68L74.3181 115.25C74.2714 119.317 77.5336 122.667 81.5942 122.721C85.662 122.775 89.0117 119.513 89.0655 115.445ZM85.4721 115.397C85.4445 117.481 83.7259 119.155 81.6417 119.135C79.5647 119.1 77.8911 117.381 77.9115 115.297L77.9852 109.727C78.02 107.643 79.7385 105.97 81.8156 105.99C83.8997 106.025 85.5734 107.743 85.5458 109.827L85.4721 115.397ZM117.66 121.401C117.673 120.417 116.879 119.594 115.887 119.581L112.107 119.531L112.304 104.604C112.323 103.239 110.905 102.388 109.724 102.959L104.443 105.527C104.231 105.63 104.041 105.773 103.884 105.949C103.727 106.125 103.607 106.331 103.53 106.553C103.453 106.776 103.42 107.012 103.435 107.247C103.449 107.483 103.51 107.713 103.613 107.924C104.033 108.793 105.135 109.181 106.01 108.761L108.673 107.467L108.513 119.483L104.733 119.433C103.741 119.42 102.926 120.221 102.913 121.206C102.906 121.683 103.089 122.143 103.422 122.486C103.754 122.829 104.208 123.026 104.686 123.034L115.84 123.181C116.831 123.194 117.647 122.393 117.66 121.401ZM103.431 82.0735L103.357 87.6505C103.303 91.7183 106.572 95.0681 110.633 95.1219C114.701 95.1757 118.05 91.9135 118.104 87.8457L118.178 82.2687C118.232 78.2081 114.97 74.8584 110.902 74.8046C106.841 74.7508 103.484 78.0129 103.431 82.0735ZM114.585 82.2212L114.511 87.7982C114.483 89.8824 112.765 91.556 110.68 91.5356C108.604 91.5009 106.93 89.7824 106.95 87.6981L107.024 82.1211C107.059 80.0442 108.777 78.3705 110.854 78.398C112.939 78.4256 114.612 80.1442 114.585 82.2212ZM163.141 120.213C162.149 120.2 161.333 120.995 161.32 121.979C161.314 122.456 161.497 122.917 161.829 123.259C162.162 123.602 162.616 123.799 163.093 123.807L174.247 123.954C175.239 123.968 176.055 123.166 176.068 122.174C176.081 121.19 175.287 120.374 174.295 120.361L170.515 120.311L170.712 105.377C170.73 104.026 169.32 103.158 168.132 103.732L162.851 106.293C162.423 106.503 162.095 106.874 161.939 107.324C161.784 107.775 161.813 108.269 162.021 108.698C162.441 109.566 163.543 109.954 164.418 109.534L167.08 108.24L166.921 120.263L163.141 120.213ZM176.586 83.0418C176.64 78.9812 173.377 75.6315 169.31 75.5777C165.242 75.5238 161.892 78.786 161.838 82.8466L161.764 88.4308C161.711 92.4914 164.973 95.8411 169.041 95.895C173.108 95.9488 176.458 92.6866 176.512 88.626L176.586 83.0418ZM172.918 88.5785C172.891 90.6555 171.172 92.3291 169.088 92.3015C167.011 92.274 165.338 90.5555 165.358 88.4784L165.432 82.8942C165.451 81.8935 165.864 80.9408 166.581 80.2425C167.298 79.5443 168.261 79.1567 169.262 79.1639C171.346 79.1987 173.02 80.9173 172.992 82.9943L172.918 88.5785ZM144.926 91.9889L141.146 91.9389L141.343 77.0045C141.361 75.6405 139.944 74.7893 138.763 75.3603L133.482 77.9284C132.619 78.3317 132.206 79.4038 132.652 80.3254C133.072 81.1936 134.174 81.5819 135.049 81.1622L137.711 79.8677L137.552 91.8913L133.772 91.8413C132.78 91.8281 131.964 92.6224 131.951 93.607C131.945 94.0842 132.128 94.5444 132.46 94.887C132.793 95.2295 133.247 95.4265 133.724 95.4347L144.878 95.5823C145.87 95.5955 146.686 94.794 146.699 93.8022C146.712 92.8176 145.918 92.002 144.926 91.9889ZM146.476 110.634C146.53 106.566 143.268 103.216 139.2 103.163C135.139 103.109 131.782 106.371 131.729 110.439L131.655 116.016C131.601 120.076 134.87 123.426 138.931 123.48C142.999 123.534 146.349 120.271 146.402 116.211L146.476 110.634ZM142.809 116.163C142.781 118.24 141.063 119.914 138.979 119.886C136.902 119.859 135.228 118.14 135.248 116.063L135.322 110.486C135.357 108.402 137.075 106.728 139.152 106.756C141.237 106.784 142.91 108.502 142.883 110.586L142.809 116.163ZM43.7659 81.2335C43.7891 82.197 44.5696 82.9693 45.5398 82.9821C45.5614 82.9824 45.583 82.9755 45.6118 82.9759C46.5874 82.9593 47.3855 82.1253 47.3541 81.13C47.3487 80.894 47.2965 80.6614 47.2005 80.4457C47.1045 80.23 46.9667 80.0355 46.795 79.8734C46.6233 79.7114 46.4212 79.585 46.2003 79.5016C45.9795 79.4182 45.7442 79.3795 45.5083 79.3876C45.2725 79.3937 45.0402 79.4464 44.8248 79.5426C44.6094 79.6388 44.4152 79.7766 44.2532 79.9482C44.0913 80.1197 43.9649 80.3216 43.8813 80.5422C43.7976 80.7627 43.7584 80.9977 43.7659 81.2335ZM64.1799 116.014C64.2225 115.017 63.4839 114.181 62.4798 114.122L31.1473 112.45C30.9058 112.438 30.6645 112.475 30.4376 112.559C30.2108 112.642 30.0029 112.771 29.8265 112.936C29.65 113.101 29.5085 113.3 29.4103 113.521C29.3122 113.742 29.2593 113.98 29.2549 114.222L29.1513 122.048L4.81307 97.5525L29.7911 73.7094L29.6875 81.5359C29.6741 82.5536 30.5129 83.3741 31.5324 83.3574L38.4211 83.1682C39.4226 83.1513 40.2016 82.299 40.1706 81.3296C40.1665 81.0929 40.1153 80.8593 40.0199 80.6425C39.9246 80.4258 39.7869 80.2302 39.615 80.0673C39.4432 79.9044 39.2405 79.7774 39.019 79.6937C38.7975 79.6101 38.5615 79.5714 38.3248 79.5801L33.3057 79.7149L33.4412 69.4808C33.4625 67.8702 31.5264 67.0834 30.4037 68.1611L1.00659 96.2226C0.279506 96.9016 0.263867 98.0831 0.972722 98.7811L29.6168 127.611C30.749 128.748 32.6673 127.95 32.6881 126.372L32.8236 116.138L62.2885 117.714C63.4154 117.729 64.1276 116.922 64.1799 116.014ZM50.9494 81.041C50.9608 81.5037 51.1514 81.9438 51.481 82.2687C51.8106 82.5935 52.2534 82.7777 52.7162 82.7824L52.7952 82.7834L62.8981 82.5146C63.1343 82.5088 63.3671 82.4563 63.583 82.3603C63.7989 82.2643 63.9937 82.1266 64.1563 81.9551C64.3188 81.7836 64.4459 81.5817 64.5302 81.361C64.6146 81.1403 64.6545 80.905 64.6477 80.6689C64.6419 80.4326 64.5894 80.1999 64.4934 79.984C64.3974 79.7681 64.2597 79.5733 64.0882 79.4107C63.9167 79.2482 63.7148 79.1211 63.4941 79.0367C63.2734 78.9524 63.0381 78.9125 62.802 78.9193L52.699 79.1953C52.4628 79.2011 52.23 79.2535 52.0141 79.3496C51.7982 79.4456 51.6034 79.5833 51.4408 79.7548C51.2783 79.9263 51.1512 80.1282 51.0669 80.3489C50.9825 80.5696 50.9426 80.8048 50.9494 81.041Z" fill="#303030"/>
</g>
</svg>
