<svg width="203" height="202" viewBox="0 0 203 202" fill="none" xmlns="http://www.w3.org/2000/svg">
<g id="06-browser">
<path id="Vector" d="M187.922 168.3L12.9377 165.984C9.62282 165.94 6.46102 164.588 4.14789 162.225C1.83476 159.861 0.559789 156.681 0.603447 153.382L2.03009 45.6002C2.07375 42.3018 3.43246 39.156 5.80733 36.8548C8.1822 34.5535 11.3787 33.2853 14.6936 33.3292L27.1925 33.4946L27.0828 41.7856L14.5839 41.6201C13.4789 41.6055 12.4134 42.0282 11.6218 42.7953C10.8302 43.5624 10.3772 44.611 10.3627 45.7105L8.93605 153.493C8.9215 154.592 9.34649 155.652 10.1175 156.44C10.8886 157.228 11.9425 157.679 13.0475 157.693L188.032 160.009C189.137 160.024 190.203 159.601 190.994 158.834C191.786 158.067 192.239 157.019 192.253 155.919L193.68 48.1369C193.695 47.0375 193.27 45.9772 192.498 45.1895C191.727 44.4017 190.674 43.9509 189.569 43.9363L135.407 43.2194L135.516 34.9284L189.678 35.6454C192.993 35.6892 196.155 37.0416 198.468 39.4049C200.781 41.7682 202.056 44.9489 202.013 48.2472L200.586 156.029C200.542 159.328 199.184 162.474 196.809 164.775C194.434 167.076 191.237 168.344 187.922 168.3Z" fill="#303030"/>
<path id="Vector_2" d="M62.9882 162.501L71.3208 162.611L71.1013 179.193L62.7687 179.082L62.9882 162.501Z" fill="#303030"/>
<path id="Vector_3" d="M54.2167 195.554L45.8841 195.444L45.9938 187.153C46.0375 183.854 47.3962 180.709 49.771 178.407C52.1459 176.106 55.3424 174.838 58.6573 174.882L100.32 175.433L100.211 183.724L58.5476 183.173C57.4426 183.158 56.3771 183.581 55.5855 184.348C54.7939 185.115 54.341 186.164 54.3264 187.263L54.2167 195.554ZM129.649 163.383L137.982 163.493L137.762 180.075L129.43 179.965L129.649 163.383Z" fill="#303030"/>
<path id="Vector_4" d="M154.208 196.878L145.875 196.767L145.985 188.476C146 187.377 145.575 186.317 144.804 185.529C144.033 184.741 142.979 184.29 141.874 184.276L121.042 184L121.152 175.709L141.983 175.985C145.298 176.029 148.46 177.381 150.773 179.744C153.086 182.108 154.361 185.288 154.318 188.587L154.208 196.878Z" fill="#303030"/>
<path id="Vector_5" d="M37.6063 191.188L162.595 192.842L162.486 201.133L37.4966 199.479L37.6063 191.188ZM5.15383 124.419L59.3158 125.136L59.206 133.427L5.04409 132.71L5.15383 124.419ZM175.972 126.68L196.804 126.956L196.694 135.247L175.862 134.971L175.972 126.68ZM59.645 100.263L34.6472 99.9325C31.3323 99.8886 28.1705 98.5362 25.8573 96.1729C23.5442 93.8096 22.2692 90.629 22.3129 87.3306L23.3006 12.7121C23.3442 9.4138 24.7029 6.26798 27.0778 3.96673C29.4527 1.66547 32.6492 0.397294 35.9641 0.441171L127.623 1.6544C130.938 1.69827 134.099 3.05062 136.413 5.41392C138.726 7.77723 140.001 10.9579 139.957 14.2562L139.353 59.8564L131.021 59.7461L131.624 14.146C131.639 13.0465 131.214 11.9863 130.443 11.1985C129.672 10.4107 128.618 9.95996 127.513 9.94534L35.8543 8.73211C34.7494 8.71749 33.6839 9.14021 32.8922 9.9073C32.1006 10.6744 31.6477 11.723 31.6332 12.8224L30.6455 87.4409C30.6309 88.5404 31.0559 89.6006 31.827 90.3884C32.598 91.1761 33.6519 91.6269 34.7569 91.6415L59.7547 91.9724L59.645 100.263Z" fill="#303030"/>
<path id="Vector_6" d="M167.365 147.297L67.374 145.974C64.0591 145.93 60.8973 144.578 58.5842 142.214C56.271 139.851 54.9961 136.67 55.0397 133.372L55.9177 67.0444C55.9613 63.7461 57.32 60.6003 59.6949 58.299C62.0698 55.9978 65.2663 54.7296 68.5812 54.7735L168.572 56.097C171.887 56.1409 175.049 57.4932 177.362 59.8565C179.675 62.2198 180.95 65.4005 180.907 68.6988L180.029 135.026C179.985 138.325 178.626 141.471 176.252 143.772C173.877 146.073 170.68 147.341 167.365 147.297ZM68.4714 63.0644C67.3665 63.0498 66.301 63.4725 65.5093 64.2396C64.7177 65.0067 64.2648 66.0553 64.2503 67.1547L63.3723 133.482C63.3578 134.582 63.7828 135.642 64.5538 136.43C65.3249 137.217 66.3788 137.668 67.4838 137.683L167.475 139.006C168.58 139.021 169.645 138.598 170.437 137.831C171.229 137.064 171.682 136.016 171.696 134.916L172.574 68.5885C172.589 67.4891 172.164 66.4289 171.393 65.6411C170.622 64.8533 169.568 64.4026 168.463 64.3879L68.4714 63.0644Z" fill="#303030"/>
<path id="Vector_7" d="M59.9193 79.536L176.576 81.0801L176.466 89.371L59.8096 87.8269L59.9193 79.536ZM72.5829 67.265L80.9155 67.3753L80.8057 75.6662L72.4731 75.5559L72.5829 67.265ZM89.2481 67.4856L97.5807 67.5959L97.4709 75.8868L89.1383 75.7765L89.2481 67.4856ZM105.913 67.7062L114.246 67.8165L114.136 76.1074L105.804 75.9971L105.913 67.7062ZM39.9658 12.9327L48.2984 13.043L48.1886 21.3339L39.856 21.2237L39.9658 12.9327ZM56.631 13.1533L64.9636 13.2636L64.8538 21.5545L56.5212 21.4442L56.631 13.1533ZM73.2962 13.3739L81.6288 13.4842L81.519 21.7751L73.1864 21.6648L73.2962 13.3739ZM27.3022 25.2037L135.626 26.6375L135.516 34.9284L27.1925 33.4946L27.3022 25.2037ZM72.1439 100.429L80.4765 100.539L80.3667 108.83L72.0341 108.72L72.1439 100.429ZM88.8091 100.649L147.137 101.421L147.028 109.712L88.6994 108.94L88.8091 100.649ZM96.9222 117.342L105.255 117.452L105.145 125.743L96.8125 125.632L96.9222 117.342ZM71.9244 117.011L88.5896 117.231L88.4799 125.522L71.8147 125.302L71.9244 117.011ZM113.587 117.562L163.583 118.224L163.473 126.515L113.478 125.853L113.587 117.562ZM155.47 101.532L163.803 101.642L163.693 109.933L155.36 109.823L155.47 101.532ZM47.6399 62.7887L39.3073 62.6784L39.5268 46.0965C39.5413 44.997 39.9942 43.9484 40.7859 43.1813C41.5775 42.4143 42.643 41.9915 43.748 42.0062L60.4132 42.2267L60.3034 50.5177L47.8045 50.3522L47.6399 62.7887ZM17.4332 141.167L25.7659 141.277L25.6561 149.568L17.3235 149.458L17.4332 141.167ZM34.0985 141.387L42.4311 141.497L42.3213 149.788L33.9887 149.678L34.0985 141.387Z" fill="#303030"/>
</g>
</svg>
