<svg width="650" height="579" viewBox="0 0 650 579" fill="none" xmlns="http://www.w3.org/2000/svg">
<g clip-path="url(#clip0_376_632)">
<path d="M495.542 230.258C494.169 231.184 492.824 232.125 491.481 233.095C478.531 269.886 471.954 308.55 472.025 347.479C472.02 351.981 472.12 356.472 472.324 360.952C473.753 394.546 480.277 427.743 491.68 459.446C492.282 461.115 492.894 462.777 493.518 464.431C493.965 465.618 494.419 466.816 494.907 467.992C495.395 468.584 495.875 469.166 496.355 469.747C496.388 469.772 496.418 469.815 496.452 469.841C496.645 470.075 496.839 470.31 497.014 470.541C497.844 471.537 498.685 472.526 499.515 473.522L498.858 473.596L497.212 473.772L497.219 473.783C497.773 473.747 498.337 473.704 498.895 473.65C499.098 473.641 499.32 473.636 499.526 473.609C499.711 473.598 499.907 473.578 500.091 473.566C523.868 471.869 548.176 469.614 569.397 459.085C591.607 448.055 609.838 425.538 607.732 401.189C607.446 398.001 606.806 394.852 605.822 391.801C605.411 390.526 604.938 389.277 604.435 388.032C601.373 380.408 596.298 373.723 589.734 368.664C583.169 363.605 575.351 360.355 567.083 359.247C558.816 358.139 550.397 359.214 542.693 362.361C534.988 365.508 528.276 370.614 523.247 377.154C528.584 351.78 555.888 337.734 580.653 328.83C605.437 319.929 633.35 310.53 645.15 287.356C651.74 274.458 651.234 259.797 645.927 246.475C645.766 246.077 645.597 245.668 645.417 245.266C638.786 229.608 626.384 216.985 610.689 209.918C581.308 197.228 546.621 203.718 517.756 217.505C510.034 221.199 502.608 225.462 495.542 230.258Z" fill="#F2F2F2"/>
<path d="M585.418 388.985C562.928 392.033 542.032 402.109 525.821 417.721C512.021 431.159 502.158 447.999 497.269 466.473C496.983 467.53 496.728 468.584 496.491 469.641C495.871 468.6 495.266 467.533 494.668 466.477C494.283 465.801 493.891 465.114 493.518 464.431C493.965 465.618 494.419 466.816 494.907 467.992C495.394 468.584 495.874 469.166 496.355 469.747C496.388 469.772 496.418 469.815 496.451 469.841C496.645 470.075 496.838 470.31 497.013 470.541C497.843 471.537 498.684 472.526 499.514 473.522L498.857 473.596L497.211 473.772L497.218 473.783C497.772 473.747 498.337 473.704 498.895 473.65C499.098 473.641 499.319 473.636 499.526 473.609C499.579 473.29 499.651 472.974 499.723 472.657C504.485 448.868 517.852 427.574 537.355 412.712C556.857 397.849 581.177 390.421 605.822 391.8C605.411 390.526 604.938 389.277 604.435 388.032C598.08 387.806 591.717 388.125 585.418 388.985Z" fill="white"/>
<path d="M506.082 299.557C497.329 306.631 489.675 314.922 483.362 324.169C480.078 329.095 477.268 334.311 474.968 339.748C473.876 342.272 472.895 344.865 472.025 347.479C472.02 351.981 472.119 356.472 472.324 360.952C473.007 357.528 473.876 354.143 474.927 350.81C475.469 348.982 476.082 347.186 476.74 345.408C484.116 325.5 498.406 309.403 515.558 296.884C533.938 283.487 554.879 273.111 576.219 265.138C598.087 256.934 620.897 251.393 644.138 248.64C644.663 248.575 645.141 248.313 645.475 247.91C645.808 247.506 645.97 246.992 645.927 246.475C645.924 246.022 645.741 245.588 645.417 245.266C645.246 245.116 645.041 245.007 644.819 244.948C644.598 244.89 644.365 244.883 644.14 244.929C641.272 245.269 638.412 245.621 635.556 246.048C611.786 249.531 588.55 255.904 566.382 265.02C544.981 273.792 523.911 284.868 506.082 299.557Z" fill="white"/>
<path d="M619.045 186.222C623.458 186.222 627.036 182.708 627.036 178.373C627.036 174.039 623.458 170.525 619.045 170.525C614.632 170.525 611.055 174.039 611.055 178.373C611.055 182.708 614.632 186.222 619.045 186.222Z" fill="#F2F2F2"/>
<path d="M462.689 577.302H265.687C253.876 577.289 242.553 572.675 234.202 564.472C225.85 556.269 221.152 545.147 221.139 533.546V43.7557C221.152 32.155 225.85 21.0332 234.202 12.8303C242.553 4.62734 253.876 0.0131429 265.687 0H462.689C474.5 0.0131406 485.823 4.62733 494.174 12.8303C502.526 21.0332 507.224 32.155 507.237 43.7557V533.546C507.224 545.147 502.526 556.269 494.174 564.472C485.823 572.675 474.5 577.289 462.689 577.302Z" fill="#3F3D56"/>
<path d="M460.485 13.5836H438.556C436.599 13.5854 434.723 14.3499 433.339 15.7092C431.955 17.0685 431.177 18.9115 431.175 20.8338C431.171 24.764 429.58 28.5321 426.751 31.3112C423.921 34.0902 420.085 35.6531 416.083 35.6569H308.836C304.834 35.6531 300.998 34.0902 298.169 31.3112C295.339 28.5321 293.748 24.764 293.744 20.8338C293.742 18.9115 292.964 17.0685 291.58 15.7092C290.196 14.3499 288.32 13.5854 286.363 13.5836H267.027C258.07 13.5948 249.483 17.0948 243.149 23.316C236.815 29.5373 233.252 37.9718 233.24 46.7699V533.079C233.252 541.877 236.815 550.312 243.149 556.533C249.483 562.754 258.07 566.254 267.027 566.265H460.485C469.442 566.254 478.03 562.754 484.363 556.533C490.697 550.312 494.261 541.877 494.272 533.079V46.7699C494.261 37.9718 490.697 29.5373 484.363 23.316C478.03 17.0948 469.442 13.5948 460.485 13.5836Z" fill="white"/>
<path d="M389.47 23.3468H328.966C328.393 23.3468 327.843 23.1232 327.438 22.7251C327.033 22.3271 326.805 21.7873 326.805 21.2244C326.805 20.6615 327.033 20.1216 327.438 19.7236C327.843 19.3255 328.393 19.1019 328.966 19.1019H389.47C390.043 19.1019 390.593 19.3255 390.998 19.7236C391.403 20.1216 391.631 20.6615 391.631 21.2244C391.631 21.7873 391.403 22.3271 390.998 22.7251C390.593 23.1232 390.043 23.3468 389.47 23.3468Z" fill="white"/>
<path d="M398.978 22.9223C399.932 22.9223 400.706 22.1621 400.706 21.2243C400.706 20.2866 399.932 19.5264 398.978 19.5264C398.023 19.5264 397.249 20.2866 397.249 21.2243C397.249 22.1621 398.023 22.9223 398.978 22.9223Z" fill="white"/>
<path d="M508.966 193.142C507.935 193.14 506.946 192.737 506.217 192.021C505.487 191.305 505.077 190.334 505.076 189.321V114.611C505.076 113.598 505.486 112.627 506.215 111.91C506.945 111.194 507.934 110.791 508.966 110.791C509.997 110.791 510.987 111.194 511.716 111.91C512.445 112.627 512.855 113.598 512.855 114.611V189.321C512.854 190.334 512.444 191.305 511.715 192.021C510.986 192.737 509.997 193.14 508.966 193.142Z" fill="#3F3D56"/>
<path d="M221.139 137.958C220.108 137.957 219.119 137.554 218.39 136.838C217.661 136.122 217.251 135.151 217.25 134.138V117.158C217.25 116.145 217.659 115.173 218.389 114.457C219.118 113.74 220.107 113.338 221.139 113.338C222.171 113.338 223.16 113.74 223.889 114.457C224.619 115.173 225.029 116.145 225.029 117.158V134.138C225.027 135.151 224.617 136.122 223.888 136.838C223.159 137.554 222.17 137.957 221.139 137.958Z" fill="#3F3D56"/>
<path d="M221.139 169.37C220.108 169.369 219.119 168.966 218.39 168.25C217.661 167.534 217.251 166.563 217.25 165.55V148.57C217.25 147.557 217.659 146.585 218.389 145.869C219.118 145.153 220.107 144.75 221.139 144.75C222.171 144.75 223.16 145.153 223.889 145.869C224.619 146.585 225.029 147.557 225.029 148.57V165.55C225.027 166.563 224.617 167.534 223.888 168.25C223.159 168.966 222.17 169.369 221.139 169.37Z" fill="#3F3D56"/>
<path d="M577.381 579H0.864343C0.635105 579 0.415255 578.91 0.25316 578.751C0.0910638 578.592 0 578.376 0 578.151C0 577.926 0.0910638 577.71 0.25316 577.551C0.415255 577.391 0.635105 577.302 0.864343 577.302H577.381C577.611 577.302 577.83 577.391 577.993 577.551C578.155 577.71 578.246 577.926 578.246 578.151C578.246 578.376 578.155 578.592 577.993 578.751C577.83 578.91 577.611 579 577.381 579Z" fill="#3F3D56"/>
<path d="M54.1502 568.727H64.747L69.7879 528.58H54.1484L54.1502 568.727Z" fill="#FFB6B6"/>
<path d="M51.4473 565.328L72.316 565.328H72.3169C75.8439 565.328 79.2265 566.704 81.7205 569.154C84.2146 571.603 85.6158 574.926 85.6161 578.39V578.815L51.4479 578.816L51.4473 565.328Z" fill="#2F2E41"/>
<path d="M151.821 568.727H162.418L167.459 528.58H151.819L151.821 568.727Z" fill="#FFB6B6"/>
<path d="M149.118 565.328L169.987 565.328H169.988C173.515 565.328 176.897 566.704 179.391 569.154C181.885 571.603 183.287 574.926 183.287 578.39V578.815L149.119 578.816L149.118 565.328Z" fill="#2F2E41"/>
<path d="M139.026 246.202L145.941 289.5L80.251 290.349L88.8944 248.749L139.026 246.202Z" fill="#FFB6B6"/>
<path d="M148.535 278.463L164.957 333.647L167.55 560.409H149.831L107.478 378.218L68.5828 555.653H51.2959L63.3967 356.144C63.3967 356.144 57.3463 306.904 78.0905 292.471V279.807L148.535 278.463Z" fill="#2F2E41"/>
<path d="M54.2915 321.584C56.1206 321.094 57.8181 320.217 59.2645 319.013C60.7109 317.81 61.871 316.309 62.6631 314.617C63.4552 312.926 63.8601 311.084 63.8491 309.222C63.8382 307.36 63.4117 305.523 62.5998 303.84L90.5453 214.351L69.9903 210.349L44.4313 298.067C41.6439 299.594 39.5236 302.073 38.4723 305.033C37.4209 307.993 37.5115 311.229 38.7269 314.127C39.9423 317.026 42.1981 319.386 45.0667 320.76C47.9354 322.135 51.2176 322.428 54.2915 321.584Z" fill="#FFB6B6"/>
<path d="M132.26 156.906C143.838 145.534 143.838 127.096 132.26 115.724C120.682 104.352 101.911 104.352 90.3328 115.724C78.7549 127.096 78.7549 145.534 90.3328 156.906C101.911 168.278 120.682 168.278 132.26 156.906Z" fill="#FFB6B6"/>
<path d="M90.0979 269.548C88.9339 269.321 87.8778 268.726 87.0918 267.852C86.3057 266.979 85.8331 265.876 85.7463 264.714C85.0945 255.946 81.8698 240.707 76.1627 219.42C74.8765 214.609 74.6406 209.585 75.4702 204.678C76.2999 199.771 78.1764 195.092 80.9768 190.947C83.7771 186.803 87.438 183.286 91.7192 180.629C96.0004 177.972 100.805 176.234 105.818 175.529C110.571 174.853 115.413 175.121 120.058 176.316C124.703 177.51 129.057 179.608 132.863 182.484C136.668 185.361 139.847 188.958 142.212 193.063C144.578 197.167 146.081 201.696 146.633 206.381C149.457 230.807 144.13 255.346 141.709 264.761C141.415 265.895 140.752 266.903 139.819 267.631C138.887 268.358 137.737 268.766 136.547 268.791L91.2652 269.649C90.8735 269.657 90.4821 269.624 90.0979 269.548Z" fill="#E4E4E4"/>
<path d="M217.657 191.508C217.385 192.107 217.162 192.727 216.989 193.36L160.309 212.278L149.357 202.88L132.757 217.262L150.5 235.749C151.933 237.243 153.821 238.239 155.88 238.589C157.939 238.939 160.058 238.624 161.919 237.69L222.57 207.26C224.764 208.582 227.314 209.216 229.884 209.079C232.453 208.942 234.919 208.039 236.953 206.492C238.988 204.944 240.494 202.825 241.273 200.416C242.051 198.008 242.064 195.423 241.311 193.006C240.557 190.59 239.072 188.456 237.054 186.889C235.035 185.321 232.579 184.395 230.011 184.232C227.443 184.069 224.886 184.678 222.679 185.978C220.472 187.278 218.721 189.207 217.657 191.508Z" fill="#FFB6B6"/>
<path d="M158.333 213.312L137.671 231.038C137.083 231.542 136.392 231.916 135.643 232.135C134.895 232.353 134.108 232.41 133.335 232.302C132.562 232.194 131.822 231.924 131.165 231.51C130.508 231.096 129.949 230.548 129.527 229.903L114.748 207.298C112.138 204.329 110.834 200.465 111.12 196.552C111.406 192.64 113.261 188.998 116.276 186.427C119.292 183.855 123.222 182.562 127.207 182.833C131.191 183.103 134.903 184.915 137.53 187.869L158.284 205.233C158.878 205.731 159.356 206.348 159.685 207.043C160.014 207.738 160.187 208.495 160.192 209.262C160.197 210.028 160.033 210.787 159.712 211.486C159.392 212.185 158.921 212.808 158.333 213.312Z" fill="#E4E4E4"/>
<path d="M87.2806 237.264L61.7464 227.411C61.0199 227.131 60.3634 226.7 59.8217 226.148C59.28 225.596 58.8658 224.936 58.6073 224.212C58.3488 223.489 58.2521 222.719 58.3237 221.956C58.3953 221.192 58.6337 220.453 59.0224 219.788L72.646 196.493C74.1264 192.849 77.018 189.931 80.6864 188.378C84.3548 186.825 88.5005 186.764 92.2142 188.21C95.9279 189.655 98.9063 192.488 100.496 196.088C102.086 199.687 102.158 203.759 100.695 207.41L94.5589 233.501C94.383 234.248 94.0452 234.949 93.5686 235.556C93.092 236.163 92.4878 236.662 91.7971 237.019C91.1064 237.376 90.3454 237.583 89.566 237.625C88.7867 237.668 88.0071 237.544 87.2806 237.264Z" fill="#E4E4E4"/>
<path d="M125.005 129.792C131.465 136.272 140.237 143.348 148.951 139.484C154.672 136.946 157.565 130.747 156.684 124.642C155.101 113.663 145.97 107.187 137.066 101.852C125.49 94.9172 112.618 88.6869 99.0786 89.4032C85.5389 90.1195 71.6745 100.159 71.4052 113.474C71.1887 124.182 79.3855 134.724 75.8735 144.863C72.339 155.068 59.2252 158.248 48.2527 158.059C37.2802 157.869 25.3033 156.163 16.181 162.155C4.54382 169.799 3.52972 187.314 10.6374 199.161C17.745 211.007 30.6158 218.256 43.354 223.96C60.2313 231.518 78.9466 237.407 97.1403 233.86C115.334 230.313 132.127 214.498 130.73 196.331C130.14 188.658 126.533 181.567 123.056 174.671C119.579 167.775 116.098 160.593 115.792 152.904C115.538 146.496 118.074 139.607 123.131 135.822C124.044 135.165 124.722 134.24 125.067 133.181C125.412 132.122 125.407 130.983 125.052 129.927L125.005 129.792Z" fill="#2F2E41"/>
<path d="M487.62 254.593C478.27 260.101 461.611 267.003 444.587 259.91L433.582 255.325L455.635 231.044C438.037 211.986 428.301 187.171 428.328 161.443C428.355 135.714 438.142 110.918 455.779 91.8957C473.417 72.8731 497.638 60.9888 523.716 58.5625C549.794 56.1363 575.856 63.3422 596.816 78.7737C617.776 94.2052 632.129 116.755 637.074 142.021C642.019 167.287 637.2 193.456 623.559 215.421C609.917 237.385 588.432 253.568 563.297 260.812C538.162 268.055 511.181 265.838 487.62 254.593Z" fill="white"/>
<path d="M487.678 255.902C478.693 261.083 461.577 268.244 444.128 260.973L431.613 255.759L454.057 231.048C440.093 215.619 431.088 196.477 428.178 176.032C425.268 155.586 428.582 134.753 437.704 116.154C446.825 97.5551 461.345 82.0233 479.436 71.5143C497.526 61.0054 518.379 55.9893 539.366 57.0978C560.353 58.2063 580.538 65.3897 597.377 77.7435C614.216 90.0973 626.957 107.069 633.995 126.521C641.033 145.973 642.053 167.036 636.928 187.057C631.803 207.078 620.76 225.161 605.192 239.03C589.556 253.043 570.009 262.138 549.066 265.145C528.122 268.152 506.742 264.933 487.678 255.902ZM610.79 92.828C601.605 82.8702 590.511 74.7877 578.144 69.0422C565.777 63.2966 552.379 60.0007 538.715 59.3426C525.051 58.6844 511.388 60.6771 498.508 65.2067C485.628 69.7363 473.783 76.7141 463.65 85.7413C453.516 94.7686 445.293 105.669 439.449 117.818C433.605 129.968 430.256 143.13 429.593 156.551C428.929 169.973 430.964 183.391 435.582 196.04C440.2 208.689 447.31 220.32 456.505 230.269L457.215 231.039L435.551 254.892L445.046 258.848C461.898 265.869 478.575 258.575 487.016 253.603L487.561 253.281L488.134 253.555C509.893 263.939 534.653 266.56 558.165 260.966C581.676 255.373 602.471 241.914 616.981 222.901C631.49 203.888 638.808 180.507 637.679 156.772C636.549 133.037 627.042 110.428 610.79 92.828Z" fill="#08A882"/>
<path opacity="0.1" d="M622.56 160.904C622.559 137.113 613.488 114.185 597.136 96.6352C580.783 79.0851 558.332 68.185 534.206 66.0812C537.029 65.8383 539.885 65.7069 542.772 65.7069C568.468 65.72 593.108 75.7554 611.273 93.6068C629.438 111.458 639.642 135.664 639.642 160.904C639.642 186.143 629.438 210.349 611.273 228.201C593.108 246.052 568.468 256.087 542.772 256.1C539.889 256.1 537.038 255.967 534.22 255.725C558.343 253.618 580.79 242.717 597.14 225.167C613.49 207.618 622.559 184.692 622.56 160.904Z" fill="black"/>
<path d="M547.325 141.92H478.07V148.237H547.325V141.92Z" fill="#08A882"/>
<path d="M598.775 163.773H478.07V170.09H598.775V163.773Z" fill="#08A882"/>
<path d="M598.657 185.625H478.07V191.942H598.657V185.625Z" fill="#08A882"/>
<path d="M269.41 415.586C259.569 406.819 252.595 395.382 249.371 382.722C246.147 370.062 246.817 356.747 251.297 344.461C255.777 332.175 263.866 321.47 274.541 313.699C285.215 305.929 297.996 301.442 311.267 300.806C324.537 300.17 337.702 303.413 349.096 310.126C360.49 316.839 369.601 326.72 375.278 338.519C380.955 350.318 382.942 363.506 380.988 376.414C379.034 389.322 373.227 401.372 364.301 411.038L378.367 426.526L371.348 429.45C360.489 433.974 349.863 429.572 343.899 426.059C331.837 431.816 318.297 433.895 305.022 432.028C291.747 430.162 279.344 424.435 269.41 415.586Z" fill="white"/>
<path d="M314.454 433.488C297.601 433.475 281.359 427.286 268.907 416.132C258.977 407.286 251.933 395.751 248.664 382.981C245.395 370.211 246.046 356.776 250.535 344.369C255.024 331.961 263.151 321.136 273.892 313.256C284.632 305.376 297.507 300.794 310.894 300.087C324.28 299.38 337.581 302.58 349.12 309.283C360.659 315.986 369.921 325.893 375.739 337.756C381.557 349.619 383.671 362.908 381.814 375.949C379.958 388.989 374.215 401.199 365.308 411.04L379.623 426.802L371.641 430.128C360.511 434.766 349.594 430.199 343.863 426.894C334.686 431.226 324.636 433.479 314.454 433.488ZM269.914 415.041C279.716 423.827 291.983 429.514 305.119 431.361C318.256 433.208 331.654 431.129 343.572 425.397L343.937 425.222L344.285 425.427C349.669 428.599 360.306 433.251 371.055 428.773L377.111 426.249L363.293 411.035L363.746 410.544C372.572 400.985 378.315 389.07 380.247 376.306C382.179 363.541 380.214 350.501 374.6 338.833C368.987 327.166 359.977 317.396 348.711 310.758C337.444 304.12 324.426 300.912 311.303 301.541C298.181 302.17 285.543 306.607 274.987 314.291C264.432 321.975 256.433 332.56 252.003 344.709C247.573 356.858 246.91 370.024 250.098 382.543C253.286 395.062 260.182 406.372 269.914 415.041Z" fill="#08A882"/>
<path opacity="0.1" d="M257.828 366.299C257.829 351.125 263.615 336.5 274.045 325.306C284.476 314.112 298.796 307.159 314.185 305.817C312.384 305.662 310.562 305.578 308.721 305.578C292.331 305.587 276.615 311.988 265.028 323.374C253.442 334.761 246.933 350.201 246.933 366.299C246.933 382.398 253.442 397.838 265.028 409.224C276.615 420.611 292.331 427.012 308.721 427.02C310.56 427.02 312.378 426.935 314.176 426.781C298.789 425.437 284.471 418.483 274.042 407.29C263.614 396.096 257.829 381.473 257.828 366.299Z" fill="black"/>
<path d="M349.991 354.191H305.817V358.22H349.991V354.191Z" fill="#08A882"/>
<path d="M349.991 368.129H273V372.158H349.991V368.129Z" fill="#08A882"/>
<path d="M349.991 382.068H273.075V386.097H349.991V382.068Z" fill="#08A882"/>
<path d="M400.497 441.58C405.748 441.58 410.005 437.399 410.005 432.241C410.005 427.084 405.748 422.903 400.497 422.903C395.246 422.903 390.989 427.084 390.989 432.241C390.989 437.399 395.246 441.58 400.497 441.58Z" fill="#08A882"/>
<path d="M414.327 269.238C420.533 269.238 425.563 264.297 425.563 258.202C425.563 252.106 420.533 247.165 414.327 247.165C408.121 247.165 403.09 252.106 403.09 258.202C403.09 264.297 408.121 269.238 414.327 269.238Z" fill="#08A882"/>
</g>
<defs>
<clipPath id="clip0_376_632">
<rect width="650" height="579" fill="white"/>
</clipPath>
</defs>
</svg>
