<svg width="128" height="128" viewBox="0 0 128 128" fill="none" xmlns="http://www.w3.org/2000/svg">
<path d="M107 64.005H99.733C99.2689 64.005 98.8237 63.8206 98.4956 63.4924C98.1674 63.1642 97.983 62.7191 97.983 62.255C97.983 61.7909 98.1674 61.3458 98.4956 61.0176C98.8237 60.6894 99.2689 60.505 99.733 60.505H107C107.464 60.505 107.909 60.6894 108.237 61.0176C108.566 61.3458 108.75 61.7909 108.75 62.255C108.75 62.7191 108.566 63.1642 108.237 63.4924C107.909 63.8206 107.464 64.005 107 64.005ZM28.268 64.058H21C20.5359 64.058 20.0908 63.8736 19.7626 63.5454C19.4344 63.2173 19.25 62.7721 19.25 62.308C19.25 61.8439 19.4344 61.3988 19.7626 61.0706C20.0908 60.7424 20.5359 60.558 21 60.558H28.268C28.7321 60.558 29.1772 60.7424 29.5054 61.0706C29.8336 61.3988 30.018 61.8439 30.018 62.308C30.018 62.7721 29.8336 63.2173 29.5054 63.5454C29.1772 63.8736 28.7321 64.058 28.268 64.058ZM89.249 38.746C88.903 38.7458 88.5648 38.6431 88.2772 38.4508C87.9896 38.2585 87.7654 37.9852 87.633 37.6656C87.5007 37.3459 87.466 36.9942 87.5335 36.6548C87.6009 36.3155 87.7674 36.0037 88.012 35.759L93.15 30.62C93.4789 30.2918 93.9246 30.1077 94.3893 30.1081C94.8539 30.1086 95.2993 30.2936 95.6275 30.6225C95.9557 30.9514 96.1398 31.3972 96.1394 31.8618C96.1389 32.3264 95.9539 32.7718 95.625 33.1L90.486 38.238C90.3235 38.4 90.1305 38.5283 89.9182 38.6155C89.7059 38.7027 89.4785 38.747 89.249 38.746ZM63.975 28.3C63.7451 28.3001 63.5175 28.255 63.3051 28.1671C63.0928 28.0792 62.8998 27.9503 62.7373 27.7877C62.5747 27.6252 62.4458 27.4322 62.3579 27.2199C62.27 27.0075 62.2249 26.7799 62.225 26.55V19.281C62.225 19.0512 62.2703 18.8236 62.3582 18.6113C62.4462 18.399 62.5751 18.2061 62.7376 18.0436C62.9001 17.8811 63.093 17.7522 63.3053 17.6642C63.5176 17.5763 63.7452 17.531 63.975 17.531C64.2048 17.531 64.4324 17.5763 64.6447 17.6642C64.857 17.7522 65.0499 17.8811 65.2124 18.0436C65.3749 18.2061 65.5038 18.399 65.5918 18.6113C65.6797 18.8236 65.725 19.0512 65.725 19.281V26.549C65.7251 26.7789 65.68 27.0066 65.5921 27.219C65.5042 27.4314 65.3753 27.6245 65.2128 27.7871C65.0503 27.9497 64.8573 28.0787 64.6449 28.1667C64.4325 28.2547 64.2049 28.3 63.975 28.3ZM38.716 38.783C38.4862 38.7833 38.2587 38.7383 38.0464 38.6504C37.8341 38.5626 37.6413 38.4336 37.479 38.271L32.339 33.131C32.0202 32.801 31.8437 32.359 31.8476 31.9002C31.8515 31.4413 32.0354 31.0023 32.3598 30.6778C32.6842 30.3533 33.1231 30.1692 33.5819 30.1651C34.0408 30.161 34.4829 30.3373 34.813 30.656L39.953 35.796C40.1976 36.0407 40.3641 36.3525 40.4315 36.6918C40.499 37.0312 40.4643 37.3829 40.332 37.7026C40.1996 38.0222 39.9754 38.2955 39.6878 38.4878C39.4002 38.6801 39.062 38.7828 38.716 38.783Z" fill="#F18F22" fill-opacity="0.36"/>
<path d="M64.4609 108.719H63.5409C62.3209 108.719 61.1509 108.234 60.2882 107.372C59.4256 106.509 58.9409 105.339 58.9409 104.119H69.0629C69.0629 104.723 68.9439 105.322 68.7126 105.88C68.4813 106.438 68.1423 106.945 67.7149 107.372C67.2875 107.8 66.7802 108.138 66.2219 108.369C65.6635 108.6 65.0652 108.719 64.4609 108.719Z" fill="#08A882"/>
<path d="M87.847 61.833C87.8489 65.2343 87.1214 68.5965 85.7136 71.6928C84.3058 74.7891 82.2504 77.5475 79.686 79.782C77.3013 81.8873 75.5551 84.6196 74.646 87.668C74.4079 87.4124 74.1257 87.2018 73.813 87.046C73.4107 86.8402 72.965 86.7336 72.513 86.735H55.489C55.0276 86.7325 54.5725 86.8424 54.163 87.055C53.8969 87.1908 53.6531 87.3665 53.44 87.576C53.3989 87.615 53.3621 87.6583 53.33 87.705C52.3522 84.5771 50.5447 81.7726 48.1 79.59C45.1381 76.9372 42.8867 73.5857 41.5508 69.8405C40.2149 66.0954 39.837 62.0756 40.4513 58.1471C41.0657 54.2186 42.6528 50.5062 45.0683 47.3477C47.4839 44.1893 50.651 41.6851 54.2814 40.0632C57.9118 38.4413 61.8903 37.7532 65.8545 38.0615C69.8188 38.3698 73.643 39.6647 76.979 41.8284C80.3151 43.992 83.057 46.9557 84.9551 50.4496C86.8533 53.9436 87.8474 57.8568 87.847 61.833Z" fill="#F18F22" fill-opacity="0.36"/>
<path d="M75.4138 89.635C75.4131 90.0143 75.3376 90.3897 75.1915 90.7398C75.0455 91.0899 74.8318 91.4077 74.5628 91.675C74.0182 92.217 73.2821 92.5227 72.5138 92.526H55.4888C55.1092 92.526 54.7333 92.4512 54.3826 92.3059C54.0319 92.1606 53.7132 91.9476 53.4449 91.6792C53.1765 91.4107 52.9636 91.092 52.8185 90.7413C52.6733 90.3905 52.5986 90.0146 52.5988 89.635C52.5921 88.9228 52.8529 88.2341 53.3298 87.705C53.3618 87.6582 53.3987 87.615 53.4398 87.576C53.6528 87.3665 53.8966 87.1908 54.1628 87.055C54.5723 86.8423 55.0273 86.7325 55.4888 86.735H72.5138C72.9657 86.7336 73.4114 86.8402 73.8138 87.046C74.2958 87.2849 74.7012 87.6541 74.984 88.1117C75.2668 88.5693 75.4157 89.097 75.4138 89.635Z" fill="#08A882"/>
<path d="M72.5139 98.322H55.4879C54.7188 98.322 53.9811 98.0165 53.4373 97.4726C52.8934 96.9288 52.5879 96.1911 52.5879 95.422C52.5879 94.6529 52.8934 93.9152 53.4373 93.3714C53.9811 92.8275 54.7188 92.522 55.4879 92.522H72.5139C72.8947 92.522 73.2718 92.597 73.6237 92.7428C73.9755 92.8885 74.2952 93.1021 74.5645 93.3714C74.8338 93.6407 75.0474 93.9604 75.1931 94.3122C75.3389 94.6641 75.4139 95.0412 75.4139 95.422C75.4139 95.8028 75.3389 96.1799 75.1931 96.5318C75.0474 96.8836 74.8338 97.2033 74.5645 97.4726C74.2952 97.7419 73.9755 97.9555 73.6237 98.1012C73.2718 98.247 72.8947 98.322 72.5139 98.322Z" fill="#08A882"/>
<path d="M72.5139 104.116H55.4879C54.7188 104.116 53.9811 103.81 53.4373 103.267C52.8934 102.723 52.5879 101.985 52.5879 101.216C52.5879 100.447 52.8934 99.7093 53.4373 99.1654C53.9811 98.6215 54.7188 98.316 55.4879 98.316H72.5139C72.8947 98.316 73.2718 98.391 73.6237 98.5368C73.9755 98.6825 74.2952 98.8961 74.5645 99.1654C74.8338 99.4347 75.0474 99.7544 75.1931 100.106C75.3389 100.458 75.4139 100.835 75.4139 101.216C75.4139 101.597 75.3389 101.974 75.1931 102.326C75.0474 102.678 74.8338 102.997 74.5645 103.267C74.2952 103.536 73.9755 103.75 73.6237 103.895C73.2718 104.041 72.8947 104.116 72.5139 104.116Z" fill="#08A882"/>
<path d="M108.75 62.255C108.75 62.4849 108.705 62.7125 108.617 62.9249C108.529 63.1372 108.4 63.3302 108.238 63.4927C108.075 63.6553 107.882 63.7842 107.67 63.8721C107.457 63.96 107.23 64.0051 107 64.005H99.733C99.2689 64.005 98.8237 63.8206 98.4956 63.4924C98.1674 63.1642 97.983 62.7191 97.983 62.255C97.983 61.7909 98.1674 61.3458 98.4956 61.0176C98.8237 60.6894 99.2689 60.505 99.733 60.505H107C107.23 60.5049 107.457 60.55 107.67 60.6379C107.882 60.7258 108.075 60.8547 108.238 61.0173C108.4 61.1798 108.529 61.3728 108.617 61.5852C108.705 61.7975 108.75 62.0252 108.75 62.255ZM28.268 60.555H21C20.5359 60.555 20.0908 60.7394 19.7626 61.0676C19.4344 61.3958 19.25 61.8409 19.25 62.305C19.25 62.7691 19.4344 63.2143 19.7626 63.5424C20.0908 63.8706 20.5359 64.055 21 64.055H28.268C28.7321 64.055 29.1772 63.8706 29.5054 63.5424C29.8336 63.2143 30.018 62.7691 30.018 62.305C30.018 61.8409 29.8336 61.3958 29.5054 61.0676C29.1772 60.7394 28.7321 60.555 28.268 60.555ZM93.15 30.62L88.012 35.759C87.8496 35.9214 87.7207 36.1143 87.6328 36.3265C87.5449 36.5388 87.4996 36.7663 87.4996 36.996C87.4996 37.2257 87.5449 37.4532 87.6328 37.6655C87.7207 37.8777 87.8496 38.0706 88.012 38.233C88.1744 38.3955 88.3673 38.5243 88.5795 38.6122C88.7918 38.7001 89.0193 38.7454 89.249 38.7454C89.4787 38.7454 89.7062 38.7001 89.9185 38.6122C90.1307 38.5243 90.3236 38.3955 90.486 38.233L95.625 33.1C95.9539 32.7718 96.1389 32.3264 96.1394 31.8618C96.1398 31.3972 95.9557 30.9514 95.6275 30.6225C95.2993 30.2936 94.8539 30.1086 94.3893 30.1081C93.9246 30.1077 93.4789 30.2918 93.15 30.62ZM63.975 28.3C64.4391 28.3 64.8843 28.1156 65.2124 27.7874C65.5406 27.4593 65.725 27.0141 65.725 26.55V19.281C65.725 18.8169 65.5406 18.3718 65.2124 18.0436C64.8843 17.7154 64.4391 17.531 63.975 17.531C63.5109 17.531 63.0658 17.7154 62.7376 18.0436C62.4094 18.3718 62.225 18.8169 62.225 19.281V26.549C62.2247 26.7789 62.2698 27.0067 62.3577 27.2192C62.4455 27.4317 62.5744 27.6247 62.7369 27.7874C62.8995 27.95 63.0925 28.079 63.3049 28.167C63.5174 28.2549 63.7451 28.3001 63.975 28.3ZM39.953 38.271C40.1156 38.1086 40.2447 37.9157 40.3327 37.7033C40.4207 37.491 40.466 37.2634 40.466 37.0335C40.466 36.8036 40.4207 36.576 40.3327 36.3637C40.2447 36.1513 40.1156 35.9584 39.953 35.796L34.813 30.656C34.4829 30.3373 34.0408 30.161 33.5819 30.1651C33.1231 30.1692 32.6842 30.3533 32.3598 30.6778C32.0354 31.0023 31.8515 31.4413 31.8476 31.9002C31.8437 32.359 32.0202 32.801 32.339 33.131L37.479 38.271C37.8072 38.5989 38.2521 38.7831 38.716 38.7831C39.1799 38.7831 39.6248 38.5989 39.953 38.271ZM89.6 61.833C89.5967 65.4833 88.8133 69.0907 87.3024 72.4136C85.7914 75.7365 83.5877 78.6981 80.839 81.1C78.9056 82.8073 77.44 84.9799 76.581 87.412C76.9591 88.0926 77.1596 88.8575 77.164 89.636C77.1588 90.6917 76.7893 91.7133 76.118 92.528C76.7935 93.3435 77.1631 94.3691 77.1631 95.428C77.1631 96.4869 76.7935 97.5126 76.118 98.328C76.7888 99.146 77.1571 100.17 77.161 101.228C77.1594 102.46 76.6693 103.641 75.7982 104.512C74.927 105.383 73.746 105.873 72.514 105.875H70.563C70.1816 107.199 69.3806 108.363 68.2805 109.193C67.1805 110.022 65.8408 110.472 64.463 110.475H63.543C62.1652 110.472 60.8255 110.022 59.7255 109.193C58.6254 108.363 57.8244 107.199 57.443 105.875H55.488C54.256 105.873 53.075 105.383 52.2038 104.512C51.3327 103.641 50.8426 102.46 50.841 101.228C50.8449 100.17 51.2132 99.146 51.884 98.328C51.2083 97.5126 50.8386 96.4869 50.8386 95.428C50.8386 94.3691 51.2083 93.3434 51.884 92.528C51.2174 91.7123 50.851 90.6925 50.846 89.639C50.8485 88.882 51.0359 88.1371 51.392 87.469C50.4637 84.9461 48.9305 82.6895 46.927 80.897C46.472 80.491 46.027 80.061 45.596 79.619C44.7969 78.7936 44.0539 77.9156 43.372 76.991C40.6997 73.368 39.0364 69.1008 38.552 64.625C38.5272 64.3965 38.5477 64.1654 38.6123 63.9448C38.6769 63.7242 38.7843 63.5185 38.9283 63.3394C39.0724 63.1604 39.2503 63.0114 39.452 62.9011C39.6536 62.7908 39.875 62.7213 40.1035 62.6965C40.332 62.6717 40.5631 62.6922 40.7837 62.7568C41.0043 62.8214 41.21 62.9288 41.3891 63.0729C41.5682 63.2169 41.7171 63.3949 41.8274 63.5965C41.9377 63.7981 42.0072 64.0195 42.032 64.248C42.3216 66.9428 43.1096 69.5603 44.356 71.967C44.8888 72.996 45.5014 73.9816 46.188 74.915C46.778 75.7129 47.4197 76.4712 48.109 77.185C48.479 77.566 48.864 77.935 49.26 78.285C51.3932 80.1932 53.0915 82.5374 54.24 85.159C54.6455 85.0448 55.0647 84.9863 55.486 84.985H58.786V72.766H56.237C54.6336 72.7642 53.0965 72.1263 51.9628 70.9925C50.8292 69.8586 50.1916 68.3214 50.19 66.718V66.261C50.19 64.6564 50.8274 63.1176 51.962 61.983C53.0966 60.8484 54.6354 60.211 56.24 60.211C57.8446 60.211 59.3834 60.8484 60.518 61.983C61.6526 63.1176 62.29 64.6564 62.29 66.261V69.266H65.733V66.261C65.733 64.6572 66.3701 63.1192 67.5041 61.9851C68.6382 60.8511 70.1762 60.214 71.78 60.214C73.3838 60.214 74.9218 60.8511 76.0559 61.9851C77.1899 63.1192 77.827 64.6572 77.827 66.261V66.718C77.8254 68.3214 77.1878 69.8586 76.0542 70.9925C74.9205 72.1263 73.3834 72.7642 71.78 72.766H69.228V84.984H72.515C72.9205 84.9854 73.324 85.0406 73.715 85.148C74.8003 82.5876 76.4468 80.3038 78.533 78.465C80.9065 76.392 82.8096 73.8356 84.1147 70.9671C85.4197 68.0987 86.0966 64.9844 86.1 61.833C86.1077 57.2444 84.6843 52.7675 82.0282 49.0257C79.3721 45.2839 75.6154 42.4635 71.281 40.957C66.9467 39.4506 62.2505 39.333 57.8463 40.6209C53.442 41.9087 49.5489 44.5377 46.709 48.142C46.4202 48.5054 45.9988 48.7391 45.5377 48.7918C45.0765 48.8445 44.6133 48.7118 44.25 48.423C43.8867 48.1342 43.6529 47.7129 43.6002 47.2517C43.5475 46.7906 43.6802 46.3274 43.969 45.964C47.2632 41.796 51.7737 38.7575 56.8741 37.2707C61.9744 35.784 67.4112 35.9227 72.429 37.6678C77.4469 39.4128 81.7966 42.6775 84.8738 47.0081C87.951 51.3388 89.6029 56.5204 89.6 61.833ZM69.228 69.266H71.775C72.4504 69.2652 73.098 68.9965 73.5755 68.5188C74.053 68.0411 74.3215 67.3934 74.322 66.718V66.261C74.322 65.9265 74.2561 65.5953 74.1281 65.2863C74.0001 64.9773 73.8125 64.6965 73.576 64.46C73.3395 64.2235 73.0587 64.0359 72.7497 63.9079C72.4407 63.7799 72.1095 63.714 71.775 63.714C71.4405 63.714 71.1093 63.7799 70.8003 63.9079C70.4913 64.0359 70.2105 64.2235 69.974 64.46C69.7375 64.6965 69.5499 64.9773 69.4219 65.2863C69.2939 65.5953 69.228 65.9265 69.228 66.261V69.266ZM62.285 84.984H65.728V72.766H62.285V84.984ZM58.785 69.266V66.261C58.7917 65.9222 58.7308 65.5855 58.6058 65.2705C58.4808 64.9556 58.2942 64.6687 58.057 64.4268C57.8197 64.1848 57.5366 63.9926 57.2242 63.8613C56.9118 63.7301 56.5764 63.6625 56.2375 63.6625C55.8986 63.6625 55.5632 63.7301 55.2508 63.8613C54.9384 63.9926 54.6553 64.1848 54.418 64.4268C54.1808 64.6687 53.9942 64.9556 53.8692 65.2705C53.7442 65.5855 53.6833 65.9222 53.69 66.261V66.718C53.6908 67.3934 53.9594 68.0408 54.4368 68.5185C54.9143 68.9961 55.5616 69.2649 56.237 69.266H58.785ZM66.712 105.866H61.29C61.5566 106.209 61.898 106.486 62.2881 106.677C62.6782 106.867 63.1068 106.966 63.541 106.966H64.461C64.8952 106.966 65.3238 106.867 65.7139 106.677C66.104 106.486 66.4454 106.209 66.712 105.866ZM73.661 101.219C73.6605 100.915 73.5395 100.624 73.3245 100.409C73.1095 100.194 72.818 100.073 72.514 100.072H55.488C55.1838 100.072 54.8921 100.193 54.6769 100.408C54.4618 100.623 54.341 100.915 54.341 101.219C54.341 101.523 54.4618 101.815 54.6769 102.03C54.8921 102.245 55.1838 102.366 55.488 102.366H72.514C72.8181 102.366 73.1097 102.245 73.3248 102.03C73.5398 101.815 73.6607 101.523 73.661 101.219ZM73.661 95.425C73.6605 95.121 73.5395 94.8295 73.3245 94.6145C73.1095 94.3996 72.818 94.2785 72.514 94.278H55.488C55.1838 94.278 54.8921 94.3988 54.6769 94.614C54.4618 94.8291 54.341 95.1208 54.341 95.425C54.341 95.7292 54.4618 96.021 54.6769 96.2361C54.8921 96.4512 55.1838 96.572 55.488 96.572H72.514C72.8181 96.5717 73.1097 96.4508 73.3248 96.2358C73.5398 96.0207 73.6607 95.7291 73.661 95.425ZM73.661 89.635C73.6631 89.3474 73.5559 89.0696 73.361 88.858C73.2663 88.7566 73.1542 88.673 73.03 88.611C72.8708 88.5274 72.6938 88.4839 72.514 88.484H55.489C55.3096 88.4815 55.1323 88.5234 54.973 88.606C54.8751 88.6554 54.784 88.7172 54.702 88.79C54.678 88.821 54.652 88.852 54.625 88.881C54.4413 89.0886 54.3427 89.3579 54.349 89.635C54.3493 89.9373 54.4695 90.2271 54.6832 90.4408C54.8969 90.6546 55.1867 90.7747 55.489 90.775H72.515C72.8238 90.7715 73.1188 90.6465 73.336 90.427C73.5455 90.2166 73.6634 89.9319 73.664 89.635H73.661ZM39.561 54.246C39.47 54.539 39.384 54.833 39.302 55.13C39.1787 55.5774 39.2382 56.0555 39.4673 56.4591C39.6965 56.8626 40.0766 57.1587 40.524 57.282C40.6759 57.3234 40.8326 57.3446 40.99 57.345C41.373 57.3447 41.7453 57.2188 42.05 56.9867C42.3547 56.7547 42.5749 56.4291 42.677 56.06C42.747 55.804 42.821 55.549 42.901 55.295C42.9699 55.0757 42.9949 54.845 42.9746 54.616C42.9543 54.387 42.8891 54.1643 42.7827 53.9605C42.6764 53.7567 42.5309 53.5759 42.3547 53.4283C42.1784 53.2808 41.9748 53.1694 41.7555 53.1005C41.5362 53.0316 41.3055 53.0066 41.0765 53.0269C40.8475 53.0472 40.6248 53.1124 40.421 53.2188C40.2172 53.3251 40.0364 53.4706 39.8888 53.6469C39.7413 53.8231 39.6299 54.0267 39.561 54.246Z" fill="#13134C"/>
</svg>
