<?xml version="1.0" encoding="utf-8"?>
<!-- Generator: Adobe Illustrator 25.0.0, SVG Export Plug-In . SVG Version: 6.00 Build 0)  -->
<svg version="1.1" id="Camada_1" xmlns="http://www.w3.org/2000/svg" xmlns:xlink="http://www.w3.org/1999/xlink" x="0px" y="0px"
	 viewBox="0 0 1000 1000" style="enable-background:new 0 0 1000 1000;" xml:space="preserve">
<style type="text/css">
	.st0{fill:#159A7C;}
	.st1{fill:#FEFEFE;}
	.st2{fill:#ED8E23;}
	.st3{fill:#3EAE99;}
</style>
<g>
	<g>
		<path class="st0" d="M477.57,353.55c-0.38-21.41-0.33-41.88,1.11-62.32c3.11-44.11,9.74-87.49,28.93-127.9
			C537.9,99.57,585.66,54.84,652.85,31.71c24.56-8.46,49.92-12.89,75.78-14.62c47.51-3.17,93.96,2.94,139.58,16.13
			c4.36,1.26,8.67,2.67,12.96,4.14c6.74,2.3,11.01,6.91,11.84,14.06c0.8,6.92-2.23,12.11-7.88,16.15
			c-15.8,11.3-26,27.01-34.07,44.27c-11.22,23.99-16.41,49.5-18.36,75.73c-3.76,50.46,3.93,99.67,15.95,148.5
			c9.42,38.28,21.15,75.93,30.38,114.24c11.65,48.35,15.99,97.54,13.6,147.02c-3.88,80.41-30.74,153.23-77.58,218.49
			c-49.65,69.18-114.88,118.06-195.3,146.25c-28.77,10.08-58.73,15.02-88.97,18.31c-27.52,2.99-55.13,3.97-82.75,2.93
			c-52.87-1.99-104.73-9.57-153.92-30.28c-18.34-7.72-35.21-17.8-50.46-30.86c-7.8-6.68-17.26-11.44-25.48-17.81
			c-44.32-34.36-78.14-77.25-102.99-127.32c-21.04-42.4-33.71-87.33-39.46-134.27c-4.54-37.06-5.48-74.21-1.75-111.38
			c5.3-52.9,19.42-102.9,49.91-147.28c13.63-19.84,30.07-37.05,49.39-51.47c1.41-1.05,2.7-1.97,3.11-4.05
			c7.48-37.81,24.86-71.14,46.7-102.41c8.66-12.4,18.09-24.21,28.56-35.15c7-7.31,13.94-8.31,22.75-3.37
			c16.5,9.25,27.72,23.26,35.82,39.99c1.71,3.53,2.87,4.33,6.61,2.09c13.4-8.04,27.71-14.15,42.68-18.65
			c10.02-3.01,17.98,0.88,21.87,10.76c9.75,24.77,12.72,50.59,11.27,76.98c-0.25,4.53,1.03,6.38,5.32,7.96
			c27.79,10.29,53.12,24.94,75.87,43.96C474.79,351.6,475.84,352.29,477.57,353.55z"/>
		<path class="st1" d="M342.29,935.49c-4.74,0.31,32.03,10.34,60.5,13.34c28.94,3.05,77.58,5.31,143-3.48
			c24.85-3.34,57.76-10.48,93.83-26.36c12.61-5.55,48.85-22.43,87.94-55.78c24.35-20.77,45.97-44.79,64.85-72.06
			c37.21-53.75,60.19-113.11,66.14-178.25c4.82-52.73,0.42-105.13-11.77-156.75c-8.35-35.36-19.47-69.97-28.28-105.22
			c-13.01-52.05-21.84-104.55-19.02-158.47c1.49-28.37,6.33-56.07,16.53-82.71c6.72-17.54,15.86-33.7,27.58-48.32
			c-0.39-0.44-0.55-0.79-0.81-0.88c-1.07-0.37-2.15-0.72-3.25-0.98c-50.3-11.47-100.84-15.06-151.6-3.46
			c-70.37,16.08-120.56,57.59-151.38,122.51c-15.67,33-21.62,68.54-24.63,104.61c-2.56,30.65-2.29,61.35-1.16,92.07
			c0.27,7.26,1.58,13.18,8.17,17.3c3.27,2.04,5.92,5.06,8.93,7.52c21.73,17.72,44.62,33.61,71.01,43.7
			c9.21,3.52,18.59,7.01,28.79,6.01c10.64-1.04,18.38,5.37,18.91,16.01c0.71,14.1-2.78,27.38-8.41,40.13
			c-12.42,28.09-33.68,48.18-59.11,64.29c-14.15,8.96-29.17,16.29-44.91,22.04c-3.17,1.16-4.27,2.68-3.83,6.02
			c0.64,4.82,0.82,9.71,1.2,14.56c3.54,45.56,5.72,91.15,1.66,136.79c-2.94,33.06-5.47,51.46-15.44,75.61
			c-5.72,13.85-21.3,62.96-66.39,84.27C397.54,934.99,365.18,933.99,342.29,935.49z"/>
		<path class="st1" d="M122.36,703.52c-7.04-21.81-11.52-44.01-14.24-66.57c-3.36-27.8-4.5-55.73-2.91-83.68
			c2.8-49.18,12.95-96.43,38.62-139.32c13.61-22.74,30.93-42.16,52.79-57.25c6.46-4.46,10.03-9.82,11.37-17.67
			c5.84-34.29,21.25-64.49,40.95-92.7c4.55-6.52,9.37-12.87,14.41-19.03c4.5-5.49,3.3-5.64,8.03,0.08
			c10.48,12.67,15.72,27.87,19.87,43.46c3.05,11.47,4.86,23.18,6.02,34.99c1.08,10.99,6.94,16.73,17.98,17.22
			c48.32,2.15,91.63,18.16,130.24,47.09c13.83,10.36,25.48,23.16,38.09,34.88c27.82,25.88,57.22,49.55,91.85,65.91
			c7.93,3.75,16.15,6.79,24.6,9.13c5.14,1.42,5.2,1.31,1.78,5.67c-14.13,18.02-32.56,30.02-53.64,38.32
			c-24.3,9.57-49.69,13.6-75.64,14.62c-43.48,1.7-86.15-4.39-128.6-13.05c-35.37-7.22-70.51-6.6-104.58,6.38
			c-56.79,21.63-92.65,62.68-109.77,120.55C124.68,669.17,123.1,686.29,122.36,703.52z"/>
		<path class="st1" d="M343.04,901.92c-25.36-0.04-51.2-3.79-76.96-8.38c-2.23-0.4-3.22-1.7-4.05-3.63
			c-19.21-44.22-20.64-88.66-0.98-133.06c16.4-37.05,43.66-64.82,76.48-87.7c25.05-17.46,52.26-30.64,80.65-41.6
			c3.44-1.33,3.83-0.42,3.97,2.83c1.86,45.58,31.31,78.56,76.34,85.56c2.28,0.36,3.86,0.4,3.73,3.54
			c-1.38,34.02-4.85,67.68-17.18,99.78c-17.45,45.42-50.95,71.01-98.43,79.28C372.47,901,358.22,901.66,343.04,901.92z"/>
		<path class="st2" d="M215.27,848.2c-37.38-43.9-62.22-93.15-59.07-152.27c3.26-61.26,33.14-105.9,89.82-130.92
			c27.19-12,55.97-13.46,85.07-8.24c29.55,5.3,58.95,11.5,88.99,13.59c23.38,1.63,78.33,1.55,73,1.24
			c-33,8.3-66.03,16.44-97.64,29.38c-47.66,19.51-91.32,45.07-126.36,83.56c-34.68,38.1-54.6,82.42-55.27,134.52"/>
		<path class="st1" d="M497.97,604.25c2.1,25.44,3.83,50.06,4.33,74.76c0.06,2.99-0.12,4.4-3.87,3.63
			c-32.38-6.67-46.93-36.45-43.91-63.74c0.2-1.82,0.35-3.67,3.01-4.32C470.91,611.3,484.23,607.78,497.97,604.25z"/>
		<path class="st1" d="M360.28,281.46c0,3.73-0.05,7.45,0.02,11.18c0.04,2.15-0.72,2.79-2.93,2.35c-8.89-1.79-17.81-3.41-26.86-4.04
			c-1.73-0.12-1.99-1.14-2.25-2.53c-1.42-7.47-2.88-14.92-4.46-22.36c-0.4-1.9,0.61-2.63,1.92-3.4c8.63-5.1,17.27-10.17,26.56-14.06
			c2.68-1.12,3.23-0.29,3.82,2.11C358.59,260.82,359.77,271.09,360.28,281.46z"/>
		<path class="st3" d="M342.08,933.99c-0.26,0.33-0.52,0.67-0.79,1"/>
		<path class="st2" d="M215.43,844.8"/>
	</g>
</g>
<path class="st2" d="M243.8,629.31"/>
<path class="st2" d="M217.74,844.8"/>
<path class="st1" d="M456.06,953.26"/>
</svg>
