<svg width="1012" height="550" viewBox="0 0 1012 550" fill="none" xmlns="http://www.w3.org/2000/svg">
<g clip-path="url(#clip0_382_60)">
<path d="M878.483 546.394C878.579 546.105 887.957 517.206 871.36 491.419L869.666 492.5C885.731 517.463 876.666 545.481 876.573 545.761L878.483 546.394Z" fill="#E4E4E4"/>
<path d="M859.492 495.127C859.85 496.816 860.538 498.418 861.517 499.843C862.497 501.267 863.748 502.485 865.2 503.427C866.652 504.369 868.276 505.018 869.98 505.335C871.683 505.652 873.433 505.632 875.129 505.276C876.824 504.92 878.433 504.235 879.863 503.259C881.293 502.284 882.516 501.037 883.462 499.591C884.408 498.145 885.059 496.527 885.377 494.831C885.696 493.134 885.676 491.391 885.318 489.702C883.814 482.599 871.063 464.921 863.932 466.419C856.8 467.917 857.988 488.024 859.492 495.127Z" fill="#E4E4E4"/>
<path d="M861.897 528.349C868.261 535.2 879.648 535.014 879.648 535.014C879.648 535.014 880.715 523.721 874.35 516.871C867.985 510.02 856.599 510.206 856.599 510.206C856.599 510.206 855.532 521.499 861.897 528.349Z" fill="#E4E4E4"/>
<path d="M958.366 548.399C958.594 547.717 980.724 479.517 941.557 418.661L937.559 421.214C975.472 480.124 954.08 546.243 953.86 546.904L958.366 548.399Z" fill="#E4E4E4"/>
<path d="M913.55 427.413C915.257 435.461 920.102 442.505 927.022 446.995C933.942 451.485 942.368 453.053 950.449 451.356C958.53 449.659 965.603 444.834 970.113 437.943C974.623 431.053 976.2 422.66 974.498 414.611C970.949 397.848 940.858 356.129 924.027 359.664C907.197 363.2 910.001 410.65 913.55 427.413Z" fill="#E4E4E4"/>
<path d="M919.225 505.814C934.245 521.981 961.116 521.542 961.116 521.542C961.116 521.542 963.635 494.893 948.614 478.726C933.594 462.56 906.723 462.999 906.723 462.999C906.723 462.999 904.205 489.648 919.225 505.814Z" fill="#E4E4E4"/>
<path d="M583.81 543.264L569.124 537.105L559.05 463.779H424.892L413.972 536.805L400.833 543.348C400.204 543.661 399.7 544.176 399.402 544.811C399.105 545.445 399.03 546.16 399.192 546.842C399.353 547.523 399.741 548.13 400.292 548.564C400.843 548.999 401.526 549.235 402.229 549.235H582.599C583.32 549.235 584.018 548.987 584.575 548.533C585.133 548.078 585.515 547.446 585.658 546.743C585.8 546.039 585.694 545.309 585.357 544.675C585.02 544.04 584.474 543.542 583.81 543.264Z" fill="#E6E6E6"/>
<path d="M822.218 473.535H163.196C159.738 473.527 156.425 472.154 153.983 469.716C151.541 467.278 150.169 463.975 150.169 460.531V367.972H835.245V460.531C835.245 463.975 833.873 467.278 831.431 469.716C828.989 472.154 825.675 473.527 822.218 473.535Z" fill="#CCCCCC"/>
<path d="M835.934 411.717H149.568V15.6763C149.573 11.5201 151.233 7.53543 154.183 4.59658C157.134 1.65774 161.135 0.00465856 165.308 0H820.194C824.367 0.00465583 828.368 1.65772 831.318 4.59657C834.269 7.53541 835.929 11.52 835.934 15.6763V411.717Z" fill="#3F3D56"/>
<path d="M794.944 28.7438H190.56C187.343 28.7478 184.259 30.0231 181.985 32.2896C179.712 34.5561 178.434 37.6286 178.433 40.8325V370.886C178.434 374.09 179.712 377.162 181.985 379.429C184.259 381.695 187.343 382.97 190.56 382.974H794.944C798.16 382.969 801.243 381.693 803.517 379.427C805.79 377.161 807.068 374.089 807.072 370.886V40.8325C807.068 37.629 805.79 34.5575 803.517 32.2914C801.243 30.0252 798.16 28.7495 794.944 28.7438Z" fill="white"/>
<path d="M297.691 28.7438V382.974H190.56C187.343 382.97 184.259 381.695 181.985 379.429C179.712 377.162 178.434 374.09 178.433 370.886V40.8325C178.434 37.6286 179.712 34.5561 181.985 32.2896C184.259 30.0231 187.343 28.7478 190.56 28.7438H297.691Z" fill="#F0F0F0"/>
<path d="M209.309 207.689C208.103 207.416 206.852 207.409 205.643 207.67C204.434 207.93 203.297 208.451 202.312 209.197C201.328 209.942 200.519 210.893 199.943 211.984C199.368 213.074 199.039 214.277 198.981 215.507L170.144 223.975L182.082 234.012L207.635 224.432C209.717 224.393 211.712 223.595 213.243 222.188C214.773 220.782 215.732 218.865 215.939 216.801C216.145 214.737 215.584 212.67 214.362 210.991C213.14 209.311 211.342 208.137 209.309 207.689Z" fill="#FFB6B6"/>
<path d="M92.7954 271.415C89.9446 271.412 87.1878 270.4 85.0165 268.56C82.8452 266.72 81.4006 264.171 80.9403 261.369C80.48 258.567 81.0339 255.693 82.5033 253.26C83.9727 250.827 86.2619 248.992 88.9629 248.084L147.399 228.437L192.981 211.898L198.575 231.399L158.335 257.809L95.3105 271.151C94.4837 271.327 93.6407 271.415 92.7954 271.415Z" fill="#08A882"/>
<path d="M129.364 540.073H137.568L141.472 508.554H129.362L129.364 540.073Z" fill="#FFB6B6"/>
<path d="M127.271 537.406L143.429 537.405C146.16 537.405 148.779 538.486 150.71 540.409C152.641 542.332 153.726 544.941 153.727 547.661V547.994L127.271 547.995L127.271 537.406Z" fill="#2F2E41"/>
<path d="M66.4558 540.073H74.66L78.5639 508.554H66.4548L66.4558 540.073Z" fill="#FFB6B6"/>
<path d="M64.3628 537.406L80.5208 537.405C83.2517 537.405 85.8713 538.486 87.8024 540.409C89.7334 542.332 90.8184 544.941 90.8186 547.661V547.994L64.3633 547.995L64.3628 537.406Z" fill="#2F2E41"/>
<path d="M66.3746 351.009C62.6198 359.721 61.7981 369.409 64.0322 378.624L61.6899 534.979H79.7092L89.7977 448.993L106.529 392.336L124.598 436.329V528.017L141.998 526.981L151.367 429.663L140.659 360.341L66.3746 351.009Z" fill="#2F2E41"/>
<path d="M132.294 229.363L116.902 224.697L112.886 216.698H93.1149L88.1246 225.363C88.1246 225.363 68.0476 232.695 67.3784 268.023C66.7092 303.351 64.0322 360.008 64.0322 360.008L143.197 371.249L132.294 229.363Z" fill="#08A882"/>
<path d="M155.021 364.922C155.541 363.804 155.807 362.586 155.803 361.355C155.799 360.123 155.523 358.907 154.996 357.793C154.469 356.678 153.703 355.693 152.751 354.905C151.8 354.118 150.688 353.547 149.491 353.235L147.171 323.38L134.832 332.924L138.927 359.811C138.532 361.847 138.902 363.957 139.965 365.74C141.028 367.524 142.711 368.857 144.695 369.487C146.678 370.117 148.825 370 150.729 369.159C152.632 368.318 154.159 366.81 155.021 364.922Z" fill="#FFB6B6"/>
<path d="M133.968 349.535L116.398 304.841V240.666C116.398 237.609 117.571 234.668 119.678 232.445C121.784 230.222 124.664 228.884 127.727 228.707C130.791 228.53 133.807 229.526 136.158 231.491C138.508 233.456 140.016 236.242 140.372 239.278L147.517 300.293L154.283 348.139L133.968 349.535Z" fill="#08A882"/>
<path d="M106.793 206.322C117.705 206.322 126.551 197.512 126.551 186.643C126.551 175.775 117.705 166.964 106.793 166.964C95.8812 166.964 87.0352 175.775 87.0352 186.643C87.0352 197.512 95.8812 206.322 106.793 206.322Z" fill="#FFB9B9"/>
<path d="M108.087 180.661C107.163 181.843 105.895 182.91 105.692 184.394C105.541 185.494 106.023 186.581 106.069 187.691C106.073 188.81 105.648 189.889 104.881 190.707C104.114 191.525 103.063 192.021 101.941 192.094C101.16 191.115 100.031 190.472 98.7876 190.298C98.1688 190.228 97.5439 190.358 97.0047 190.668C96.4654 190.979 96.0403 191.453 95.7919 192.022C95.2052 193.673 96.5633 195.35 96.7817 197.087C96.8107 198.373 96.6019 199.652 96.1658 200.862C95.6651 202.856 95.5313 204.966 94.653 206.825C93.7747 208.685 91.8217 210.284 89.7999 209.873C88.0999 209.528 86.9496 207.888 86.4742 206.226C85.9987 204.564 86.0201 202.802 85.676 201.108C84.5579 195.604 79.8015 191.526 77.9354 186.228C75.5442 179.438 78.4168 171.672 83.3675 166.432C85.369 164.136 87.9819 162.451 90.9041 161.572C93.9892 160.789 97.2511 161.352 100.417 161.017C103.802 160.659 106.985 159.289 110.275 158.418C113.565 157.547 117.24 157.219 120.231 158.84C122.317 159.969 123.828 161.918 125.771 163.277C128 164.823 130.701 165.543 133.406 165.312L130.176 166.719C131.412 167.849 132.906 168.664 134.528 169.093C133.208 170.135 131.574 170.706 129.89 170.715C130.241 171.345 130.719 171.898 131.293 172.337C131.867 172.777 132.525 173.095 133.227 173.271C130.774 174.418 128.169 175.593 125.472 175.334C124.15 175.208 122.887 174.74 121.582 174.499C118.8 173.986 115.942 174.518 113.163 175.049C111.704 175.328 109.913 175.595 109.176 176.993C108.563 178.156 109.032 179.453 108.087 180.661Z" fill="#2F2E41"/>
<path d="M238.062 237.254C255.47 237.254 269.582 223.198 269.582 205.859C269.582 188.52 255.47 174.465 238.062 174.465C220.653 174.465 206.541 188.52 206.541 205.859C206.541 223.198 220.653 237.254 238.062 237.254Z" fill="#08A882"/>
<path d="M256.974 205.859H239.953V188.906H236.17V205.859H219.149V209.626H236.17V226.58H239.953V209.626H256.974V205.859Z" fill="white"/>
<path d="M506.477 70.1749C505.505 70.176 504.573 70.561 503.886 71.2456C503.199 71.9302 502.812 72.8584 502.811 73.8266V134.97C502.812 135.938 503.199 136.866 503.886 137.551C504.573 138.236 505.505 138.621 506.477 138.622H753.954C754.926 138.621 755.858 138.236 756.546 137.551C757.233 136.866 757.619 135.938 757.62 134.97V73.8266C757.619 72.8584 757.233 71.9302 756.545 71.2456C755.858 70.561 754.926 70.176 753.954 70.1749H506.477Z" fill="white"/>
<path d="M506.477 70.1749C505.505 70.176 504.573 70.561 503.886 71.2456C503.199 71.9302 502.812 72.8584 502.811 73.8266V134.97C502.812 135.938 503.199 136.866 503.886 137.551C504.573 138.236 505.505 138.621 506.477 138.622H753.954C754.926 138.621 755.858 138.236 756.546 137.551C757.233 136.866 757.619 135.938 757.62 134.97V73.8266C757.619 72.8584 757.233 71.9302 756.545 71.2456C755.858 70.561 754.926 70.176 753.954 70.1749H506.477Z" fill="#E6E6E6"/>
<path d="M506.936 134.513H753.496V74.2832H506.936V134.513Z" fill="white"/>
<path d="M534.969 91.6175C534.118 91.6175 533.302 91.9541 532.7 92.5533C532.099 93.1526 531.761 93.9653 531.761 94.8127C531.761 95.6601 532.099 96.4728 532.7 97.0721C533.302 97.6713 534.118 98.0079 534.969 98.0079H725.454C725.876 98.0081 726.293 97.9256 726.682 97.7652C727.071 97.6048 727.425 97.3696 727.723 97.073C728.021 96.7765 728.258 96.4243 728.419 96.0367C728.58 95.6491 728.664 95.2337 728.664 94.8141C728.664 94.3945 728.581 93.979 728.42 93.5912C728.259 93.2035 728.023 92.8511 727.725 92.5543C727.427 92.2575 727.074 92.022 726.685 91.8612C726.295 91.7005 725.878 91.6177 725.457 91.6175H534.969Z" fill="#E4E4E4"/>
<path d="M534.968 110.789C534.119 110.79 533.304 111.128 532.704 111.727C532.103 112.326 531.766 113.138 531.766 113.984C531.766 114.83 532.103 115.642 532.704 116.241C533.304 116.84 534.119 117.178 534.968 117.179H725.454C726.305 117.181 727.122 116.846 727.724 116.248C728.327 115.65 728.667 114.839 728.669 113.991C728.671 113.144 728.335 112.33 727.735 111.73C727.134 111.129 726.319 110.791 725.468 110.789H534.968Z" fill="#E4E4E4"/>
<path d="M334.383 173.921C333.411 173.922 332.479 174.307 331.791 174.992C331.104 175.676 330.717 176.605 330.716 177.573V238.716C330.717 239.684 331.104 240.612 331.791 241.297C332.479 241.982 333.411 242.367 334.383 242.368H581.859C582.832 242.367 583.764 241.982 584.451 241.297C585.138 240.612 585.525 239.684 585.526 238.716V177.573C585.525 176.605 585.138 175.676 584.451 174.992C583.763 174.307 582.832 173.922 581.859 173.921H334.383Z" fill="white"/>
<path d="M334.383 173.921C333.411 173.922 332.479 174.307 331.791 174.992C331.104 175.676 330.717 176.605 330.716 177.573V238.716C330.717 239.684 331.104 240.612 331.791 241.297C332.479 241.982 333.411 242.367 334.383 242.368H581.859C582.832 242.367 583.764 241.982 584.451 241.297C585.138 240.612 585.525 239.684 585.526 238.716V177.573C585.525 176.605 585.138 175.676 584.451 174.992C583.763 174.307 582.832 173.922 581.859 173.921H334.383Z" fill="#E6E6E6"/>
<path d="M334.841 238.26H581.401V178.029H334.841V238.26Z" fill="white"/>
<path d="M362.874 195.364C362.023 195.364 361.207 195.7 360.606 196.299C360.004 196.899 359.666 197.711 359.666 198.559C359.666 199.406 360.004 200.219 360.606 200.818C361.207 201.417 362.023 201.754 362.874 201.754H553.36C553.781 201.754 554.198 201.672 554.587 201.511C554.977 201.351 555.33 201.116 555.628 200.819C555.926 200.523 556.163 200.17 556.324 199.783C556.486 199.395 556.569 198.98 556.569 198.56C556.569 198.141 556.486 197.725 556.325 197.337C556.164 196.95 555.928 196.597 555.63 196.3C555.333 196.004 554.979 195.768 554.59 195.607C554.201 195.447 553.784 195.364 553.362 195.364H362.874Z" fill="#E4E4E4"/>
<path d="M362.874 214.535C362.024 214.536 361.209 214.874 360.609 215.473C360.009 216.072 359.671 216.884 359.671 217.73C359.671 218.577 360.009 219.388 360.609 219.987C361.209 220.587 362.024 220.924 362.874 220.925H553.359C554.21 220.927 555.027 220.592 555.63 219.994C556.233 219.397 556.573 218.585 556.574 217.737C556.576 216.89 556.24 216.076 555.64 215.476C555.04 214.875 554.224 214.537 553.374 214.535H362.874Z" fill="#E4E4E4"/>
<path d="M636.038 338.023C637.141 337.902 638.203 337.542 639.15 336.968C640.097 336.394 640.907 335.62 641.521 334.701C642.136 333.782 642.54 332.74 642.707 331.648C642.873 330.556 642.797 329.441 642.484 328.382L664.417 312.778L651.346 307.765L632.522 323.351C630.77 323.993 629.315 325.253 628.433 326.891C627.551 328.53 627.304 330.434 627.737 332.243C628.171 334.051 629.255 335.639 630.785 336.704C632.315 337.77 634.184 338.239 636.038 338.023Z" fill="#FFB7B7"/>
<path d="M648.215 327.747L640.939 315.37L641.093 315.194L670.45 281.906L693.243 243.192L713.036 245.704L713.328 251.663L713.268 251.752L681.823 298.833L681.789 298.862L648.215 327.747Z" fill="#3F3D56"/>
<path d="M745.207 537.189L734.015 537.188L728.689 494.187L745.21 494.188L745.207 537.189Z" fill="#FFB7B7"/>
<path d="M748.062 547.995L711.971 547.994V547.539C711.971 543.829 713.451 540.27 716.086 537.646C718.72 535.022 722.293 533.548 726.018 533.548L748.063 533.549L748.062 547.995Z" fill="#2F2E41"/>
<path d="M648.876 536.824L637.988 534.235L642.835 491.177L658.903 494.999L648.876 536.824Z" fill="#FFB7B7"/>
<path d="M649.132 547.995L614.028 539.646L614.134 539.204C614.999 535.595 617.269 532.476 620.443 530.533C623.617 528.59 627.436 527.983 631.06 528.844L652.501 533.944L649.132 547.995Z" fill="#2F2E41"/>
<path d="M692.377 223.532V204.766C692.377 198.097 695.037 191.701 699.772 186.985C704.506 182.27 710.928 179.62 717.624 179.62C724.32 179.62 730.741 182.27 735.476 186.985C740.211 191.701 742.871 198.097 742.871 204.766V223.532C742.87 224.428 742.512 225.286 741.876 225.919C741.241 226.553 740.379 226.909 739.479 226.91H695.768C694.869 226.909 694.007 226.553 693.371 225.919C692.736 225.286 692.378 224.428 692.377 223.532Z" fill="#2F2E41"/>
<path d="M711.393 226.625C721.616 226.625 729.903 218.371 729.903 208.189C729.903 198.007 721.616 189.752 711.393 189.752C701.17 189.752 692.883 198.007 692.883 208.189C692.883 218.371 701.17 226.625 711.393 226.625Z" fill="#FFB7B7"/>
<path d="M686.404 206.268C686.41 200.994 688.516 195.938 692.26 192.209C696.004 188.48 701.08 186.382 706.375 186.376H710.144C715.439 186.382 720.515 188.48 724.259 192.209C728.003 195.938 730.109 200.994 730.115 206.268V206.643H722.151L719.435 199.068L718.892 206.643H714.777L713.406 202.821L713.132 206.643H686.404V206.268Z" fill="#2F2E41"/>
<path d="M722.19 305.493L675.06 303.706L672.425 272.996C670.393 267.375 670.36 262.549 672.328 258.652C674.02 255.451 676.862 253.004 680.287 251.801L690.599 239.395C691.926 237.8 693.592 236.519 695.477 235.644C697.362 234.769 699.419 234.322 701.498 234.335L728.292 234.518C728.938 234.131 732.855 232.148 740.582 235.483C748.962 239.102 747.016 251.669 746.995 251.796L746.976 251.914L746.884 251.991L729.061 266.94L722.19 305.493Z" fill="#3F3D56"/>
<path d="M675.436 300.407L653.143 340.889L636.241 525.063L655.338 530.872L689.14 386.8L728.369 526.784L751.26 527.354L735.674 365.812L722.053 303.268L675.436 300.407Z" fill="#2F2E41"/>
<path d="M531.154 270.399C530.229 270.102 529.224 270.182 528.358 270.622C527.492 271.062 526.837 271.826 526.536 272.747L507.606 330.91C507.307 331.832 507.387 332.834 507.829 333.696C508.271 334.558 509.038 335.211 509.963 335.511L745.379 411.52C746.304 411.817 747.31 411.737 748.176 411.297C749.042 410.857 749.697 410.093 749.998 409.172L768.928 351.009C769.227 350.087 769.146 349.085 768.704 348.223C768.263 347.361 767.495 346.708 766.571 346.409L531.154 270.399Z" fill="white"/>
<path d="M531.154 270.399C530.229 270.102 529.224 270.182 528.358 270.622C527.492 271.062 526.837 271.826 526.536 272.747L507.606 330.91C507.307 331.832 507.387 332.834 507.829 333.696C508.271 334.558 509.038 335.211 509.963 335.511L745.379 411.52C746.304 411.817 747.31 411.737 748.176 411.297C749.042 410.857 749.697 410.093 749.998 409.172L768.928 351.009C769.227 350.087 769.146 349.085 768.704 348.223C768.263 347.361 767.495 346.708 766.571 346.409L531.154 270.399Z" fill="#E6E6E6"/>
<path d="M511.671 331.743L746.215 407.471L764.863 350.176L530.319 274.448L511.671 331.743Z" fill="white"/>
<path d="M551.619 299.548C550.809 299.287 549.929 299.357 549.172 299.742C548.414 300.127 547.841 300.797 547.579 301.602C547.317 302.408 547.387 303.285 547.773 304.04C548.16 304.794 548.831 305.365 549.64 305.627L730.843 364.132C731.243 364.262 731.666 364.312 732.086 364.279C732.507 364.247 732.916 364.132 733.292 363.941C733.668 363.751 734.002 363.488 734.276 363.169C734.55 362.85 734.758 362.48 734.888 362.08C735.018 361.681 735.068 361.26 735.035 360.841C735.001 360.423 734.885 360.015 734.694 359.641C734.502 359.267 734.238 358.934 733.917 358.662C733.596 358.39 733.225 358.183 732.824 358.054L732.821 358.053L551.619 299.548Z" fill="#08A882"/>
<path d="M545.683 317.785C544.874 317.525 543.995 317.596 543.239 317.982C542.482 318.367 541.911 319.036 541.649 319.841C541.387 320.646 541.456 321.522 541.841 322.276C542.227 323.03 542.897 323.601 543.705 323.864L724.907 382.369C725.716 382.632 726.597 382.564 727.355 382.181C728.114 381.797 728.689 381.129 728.953 380.324C729.217 379.518 729.149 378.641 728.764 377.885C728.379 377.13 727.708 376.557 726.899 376.294L726.886 376.29L545.683 317.785Z" fill="#08A882"/>
<path d="M734.995 365.944C735.82 365.206 736.473 364.297 736.907 363.281C737.342 362.265 737.547 361.166 737.509 360.063C737.471 358.959 737.191 357.877 736.687 356.893C736.184 355.909 735.47 355.047 734.596 354.367L743.299 328.96L729.743 332.468L723.557 356.057C722.508 357.595 722.062 359.463 722.303 361.307C722.545 363.151 723.457 364.842 724.867 366.061C726.277 367.279 728.087 367.941 729.953 367.919C731.82 367.898 733.614 367.195 734.995 365.944Z" fill="#FFB7B7"/>
<path d="M738.883 350.526L725.73 344.686L730.15 300.366L726.037 255.674L743.595 246.233L747.317 250.907L747.321 251.013L749.293 307.527L749.283 307.57L738.883 350.526Z" fill="#3F3D56"/>
<path d="M1010.46 550H322.64C322.292 550.007 321.952 549.9 321.672 549.694C321.392 549.489 321.187 549.197 321.091 548.864C321.031 548.637 321.024 548.4 321.071 548.17C321.118 547.94 321.216 547.724 321.36 547.538C321.504 547.352 321.688 547.202 321.899 547.098C322.11 546.994 322.343 546.94 322.578 546.94H1010.34C1010.7 546.927 1011.07 547.039 1011.36 547.256C1011.66 547.473 1011.87 547.784 1011.96 548.137C1012.01 548.361 1012.01 548.593 1011.96 548.816C1011.91 549.039 1011.81 549.248 1011.66 549.427C1011.52 549.606 1011.34 549.75 1011.13 549.849C1010.92 549.948 1010.69 550 1010.46 550Z" fill="#CCCCCC"/>
<path d="M231.509 550H1.59832C1.25044 550.007 0.909881 549.9 0.629714 549.694C0.349547 549.489 0.145503 549.197 0.0493774 548.864C-0.0106348 548.637 -0.0176199 548.4 0.0289533 548.17C0.0755264 547.94 0.174413 547.724 0.318016 547.538C0.461619 547.352 0.646104 547.202 0.857274 547.098C1.06844 546.994 1.30067 546.94 1.53608 546.94H231.383C231.75 546.927 232.111 547.039 232.406 547.256C232.701 547.473 232.914 547.784 233.01 548.137C233.059 548.361 233.058 548.593 233.006 548.816C232.954 549.039 232.852 549.248 232.708 549.427C232.564 549.606 232.381 549.75 232.174 549.849C231.966 549.948 231.739 550 231.509 550Z" fill="#CCCCCC"/>
</g>
<defs>
<clipPath id="clip0_382_60">
<rect width="1012" height="550" fill="white"/>
</clipPath>
</defs>
</svg>
