<svg width="1920" height="162" viewBox="0 0 1920 162" fill="none" xmlns="http://www.w3.org/2000/svg">
<path d="M-28 30.0493C80.2246 55.9122 188.442 81.7798 296.667 76.6874C404.891 71.5949 513.109 35.5471 621.333 30.0493C729.558 24.5515 837.775 49.5991 946 47.0086C1054.22 44.4181 1162.44 14.1849 1270.67 17.3298C1378.89 20.4747 1487.11 56.9931 1595.33 59.7281C1703.56 62.463 1811.78 31.4191 1920 0.370483V259C1811.78 259 1703.56 259 1595.33 259C1487.11 259 1378.89 259 1270.67 259C1162.44 259 1054.22 259 946 259C837.775 259 729.558 259 621.333 259C513.109 259 404.891 259 296.667 259C188.442 259 80.2246 259 -28 259V30.0493Z" fill="#08A882" fill-opacity="0.18"/>
<path d="M-28 59.728C80.2246 35.342 188.442 10.956 296.667 8.8501C404.891 6.74417 513.109 26.9183 621.333 47.0085C729.558 67.0988 837.775 87.1005 946 80.9272C1054.22 74.7538 1162.44 42.41 1270.67 42.7687C1378.89 43.1275 1487.11 76.1841 1595.33 80.9272C1703.56 85.6702 1811.78 62.0995 1920 38.5289V259C1811.78 259 1703.56 259 1595.33 259C1487.11 259 1378.89 259 1270.67 259C1162.44 259 1054.22 259 946 259C837.775 259 729.558 259 621.333 259C513.109 259 404.891 259 296.667 259C188.442 259 80.2246 259 -28 259V59.728Z" fill="#08A882" fill-opacity="0.18"/>
<path d="M-28 68.2077C80.2246 59.0991 188.442 49.9904 296.667 55.4882C404.891 60.986 513.109 81.0903 621.333 76.6874C729.558 72.2845 837.775 43.3791 946 47.0086C1054.22 50.6381 1162.44 86.7977 1270.67 106.366C1378.89 125.935 1487.11 128.916 1595.33 123.325C1703.56 117.735 1811.78 103.571 1920 89.4069V259C1811.78 259 1703.56 259 1595.33 259C1487.11 259 1378.89 259 1270.67 259C1162.44 259 1054.22 259 946 259C837.775 259 729.558 259 621.333 259C513.109 259 404.891 259 296.667 259C188.442 259 80.2246 259 -28 259V68.2077Z" fill="#08A882" fill-opacity="0.18"/>
<path d="M-2.85803 59.728C105.367 67.5321 213.584 75.3409 321.809 93.6466C430.033 111.952 538.251 140.765 646.475 131.805C754.7 122.846 862.917 76.1236 971.142 72.4475C1079.37 68.7714 1187.58 108.151 1295.81 127.565C1404.03 146.98 1512.25 146.439 1620.48 144.525C1728.7 142.61 1803.73 135.09 1911.95 131.805V157.842C1803.73 157.842 1728.7 144.525 1620.48 144.525C1512.25 144.525 1384.59 157.842 1276.37 157.842C1168.14 157.842 1093.45 157.842 985.221 157.842C876.997 157.842 754.7 157.842 646.475 157.842C538.251 157.842 430.033 157.842 321.809 157.842C213.584 157.842 105.367 157.842 -2.85803 157.842V59.728Z" fill="#08A882" fill-opacity="0.18"/>
<path d="M-28 173.14C80.2246 177.865 188.442 182.589 296.667 173.14C404.891 163.691 513.109 140.074 621.333 136.551C729.558 133.029 837.775 149.603 946 151.187C1054.22 152.771 1162.44 139.37 1270.67 129.234C1378.89 119.097 1487.11 112.226 1595.33 118.257C1703.56 124.288 1811.78 143.226 1920 162.164V239C1811.78 239 1703.56 239 1595.33 239C1487.11 239 1378.89 239 1270.67 239C1162.44 239 1054.22 239 946 239C837.775 239 729.558 239 621.333 239C513.109 239 404.891 239 296.667 239C188.442 239 80.2246 239 -28 239V173.14Z" fill="#08A882" fill-opacity="0.18"/>
<path d="M-28 127.565C80.2246 131.162 188.442 134.754 296.667 144.525C404.891 154.295 513.109 170.238 621.333 178.443C729.558 186.648 837.775 187.109 946 191.163C1054.22 195.216 1162.44 202.853 1270.67 208.122C1378.89 213.392 1487.11 216.29 1595.33 203.882C1703.56 191.475 1811.78 163.758 1920 136.045V259C1811.78 259 1703.56 259 1595.33 259C1487.11 259 1378.89 259 1270.67 259C1162.44 259 1054.22 259 946 259C837.775 259 729.558 259 621.333 259C513.109 259 404.891 259 296.667 259C188.442 259 80.2246 259 -28 259V127.565Z" fill="#08A882" fill-opacity="0.18"/>
</svg>
